<svg xmlns="http://www.w3.org/2000/svg" viewBox="0 0 86.78 86.78"><g id="Layer_2" data-name="Layer 2"><g id="Layer_1-2" data-name="Layer 1"><path d="M53.44,79.73,46.23,59.14h-.62L36.31,86.2a43.56,43.56,0,0,0,20.26-1.46,9.07,9.07,0,0,1-.72-.81A16.21,16.21,0,0,1,53.44,79.73ZM43.39,0A43.39,43.39,0,0,0,24.22,82.32L39.46,41.93l-.81-2a26.6,26.6,0,0,0-2-4.16,4.41,4.41,0,0,0-2.76-2.07,10.4,10.4,0,0,0-5.1.51L25.79,24a22.16,22.16,0,0,1,3.26-.9,19.57,19.57,0,0,1,3.79-.34,18.32,18.32,0,0,1,7.71,1.5A15.77,15.77,0,0,1,46,28.37a20.42,20.42,0,0,1,3.47,6L64.13,73a21.26,21.26,0,0,0,1.81,3.79A3,3,0,0,0,68.6,78a2.65,2.65,0,0,0,.53,0l.53-.06A43.39,43.39,0,0,0,43.39,0Z" fill="#53c2f0"/></g></g></svg>