<svg xmlns="http://www.w3.org/2000/svg" viewBox="0 0 69.98 118.29"><g id="Layer_2" data-name="Layer 2"><g id="Layer_1-2" data-name="Layer 1"><path d="M39.07,43.51,37.91,40.6c-2.24-5.5-4.08-6.44-9.91-4.79L24.9,25.13a20.86,20.86,0,0,1,7.34-1.3c8.25,0,14.34,4.28,17.35,12.11L64.77,75.88c1.42,3.78,2.23,5.24,4.59,5.24h.12V.5H.5V90.55H21.32Z" fill="none" stroke="#fff" stroke-miterlimit="10"/><path d="M46.13,61.44h-.65l-10,29.11H60.39a13.57,13.57,0,0,1-6.76-7.65Z" fill="none" stroke="#fff" stroke-miterlimit="10"/><path d="M11.81,97.85h4v12.26a6.42,6.42,0,0,1-3.72,6A9.18,9.18,0,0,1,8,117a9.18,9.18,0,0,1-4.11-.87,6.51,6.51,0,0,1-2.74-2.41,6.65,6.65,0,0,1-1-3.62V97.85h4v11.92a3.8,3.8,0,0,0,.47,1.92A3.47,3.47,0,0,0,6,113a4.11,4.11,0,0,0,2,.48,4.12,4.12,0,0,0,2-.48,3.38,3.38,0,0,0,1.33-1.32,3.8,3.8,0,0,0,.48-1.92Z" fill="#fff"/><path d="M35.15,107.29A10.93,10.93,0,0,1,34,112.55a8.1,8.1,0,0,1-3.17,3.31,9.47,9.47,0,0,1-9,0,8.08,8.08,0,0,1-3.16-3.31,12.48,12.48,0,0,1,0-10.51,8.12,8.12,0,0,1,3.16-3.3,9,9,0,0,1,4.52-1.14,9,9,0,0,1,4.51,1.14A8.14,8.14,0,0,1,34,102,11,11,0,0,1,35.15,107.29Zm-4,0a8.4,8.4,0,0,0-.6-3.37,4.57,4.57,0,0,0-1.67-2.09,4.84,4.84,0,0,0-5,0,4.66,4.66,0,0,0-1.68,2.09,9.95,9.95,0,0,0,0,6.75,4.63,4.63,0,0,0,1.68,2.08,4.84,4.84,0,0,0,5,0,4.55,4.55,0,0,0,1.67-2.08A8.45,8.45,0,0,0,31.1,107.29Zm-6.18,2.88h3.39l1.71,2.2,1.68,1.95,3.16,4H31.14L29,115.61,27.84,114Z" fill="#fff"/><path d="M53.49,104.46h-4a4.34,4.34,0,0,0-.45-1.4,3.69,3.69,0,0,0-.88-1,4.07,4.07,0,0,0-1.23-.67,4.92,4.92,0,0,0-1.51-.23,4.47,4.47,0,0,0-2.56.73,4.69,4.69,0,0,0-1.68,2.1,8.34,8.34,0,0,0-.6,3.34,8.52,8.52,0,0,0,.6,3.4,4.37,4.37,0,0,0,4.21,2.77,5.06,5.06,0,0,0,1.49-.21,3.8,3.8,0,0,0,1.22-.62,3.41,3.41,0,0,0,.89-1,4.1,4.1,0,0,0,.5-1.35l4,0A7.5,7.5,0,0,1,51,115a8,8,0,0,1-2.49,1.5,9.29,9.29,0,0,1-3.26.55,8.93,8.93,0,0,1-4.52-1.15,8,8,0,0,1-3.13-3.31,12.53,12.53,0,0,1,0-10.51,8.16,8.16,0,0,1,3.15-3.3,8.9,8.9,0,0,1,4.49-1.14,9.59,9.59,0,0,1,3,.46,8,8,0,0,1,2.5,1.34,7.06,7.06,0,0,1,1.78,2.16A8.26,8.26,0,0,1,53.49,104.46Z" fill="#fff"/><path d="M65.3,103.28a2.32,2.32,0,0,0-1-1.73,3.68,3.68,0,0,0-2.27-.62,4.47,4.47,0,0,0-1.66.27,2.29,2.29,0,0,0-1,.75A1.76,1.76,0,0,0,59,103a1.55,1.55,0,0,0,.22.89,2,2,0,0,0,.65.65,4.77,4.77,0,0,0,1,.47,9.3,9.3,0,0,0,1.16.33l1.7.41a11.62,11.62,0,0,1,2.27.74,6.9,6.9,0,0,1,1.79,1.13A4.83,4.83,0,0,1,69,109.25a5.13,5.13,0,0,1,.43,2.09,5.23,5.23,0,0,1-.88,3,5.64,5.64,0,0,1-2.51,2,10.13,10.13,0,0,1-3.94.7,10.29,10.29,0,0,1-4-.71,5.74,5.74,0,0,1-2.64-2.08,6.1,6.1,0,0,1-1-3.41h3.86a2.76,2.76,0,0,0,1.85,2.53,5.13,5.13,0,0,0,1.85.32,4.75,4.75,0,0,0,1.77-.3,2.6,2.6,0,0,0,1.16-.82,1.88,1.88,0,0,0,.42-1.21,1.64,1.64,0,0,0-.37-1.07,3.07,3.07,0,0,0-1.09-.74,12.19,12.19,0,0,0-1.75-.55l-2.06-.52a8.57,8.57,0,0,1-3.77-1.81A4.22,4.22,0,0,1,55,103.31a5,5,0,0,1,.91-3,6.19,6.19,0,0,1,2.55-2,9.07,9.07,0,0,1,3.69-.72,8.79,8.79,0,0,1,3.68.72,5.88,5.88,0,0,1,2.45,2,5.34,5.34,0,0,1,.9,3Z" fill="#fff"/></g></g></svg>