<svg xmlns="http://www.w3.org/2000/svg" viewBox="0 0 69.98 117.79"><g id="Layer_2" data-name="Layer 2"><g id="Layer_1-2" data-name="Layer 1"><path d="M39.07,43.51,37.91,40.6c-2.24-5.5-4.08-6.44-9.91-4.79L24.9,25.13a20.86,20.86,0,0,1,7.34-1.3c8.25,0,14.34,4.28,17.35,12.11L64.77,75.88c1.42,3.78,2.23,5.24,4.59,5.24h.12V.5H.5V90.55H21.32Z" fill="none" stroke="#50c3f0" stroke-miterlimit="10"/><path d="M46.13,61.44h-.65l-10,29.11H60.39a13.57,13.57,0,0,1-6.76-7.65Z" fill="none" stroke="#50c3f0" stroke-miterlimit="10"/><path d="M12,97.35h4v12.26a6.42,6.42,0,0,1-3.72,6,9.21,9.21,0,0,1-4.11.86A9.15,9.15,0,0,1,4,115.64a6.51,6.51,0,0,1-2.74-2.41,6.65,6.65,0,0,1-1-3.62V97.35h4v11.92a3.8,3.8,0,0,0,.48,1.92,3.4,3.4,0,0,0,1.34,1.32,4.11,4.11,0,0,0,2,.48,4.12,4.12,0,0,0,2-.48,3.38,3.38,0,0,0,1.33-1.32,3.8,3.8,0,0,0,.48-1.92Z" fill="#53c2f0"/><path d="M35.29,106.79a11,11,0,0,1-1.17,5.26A8.23,8.23,0,0,1,31,115.36a9,9,0,0,1-4.51,1.13,9,9,0,0,1-4.52-1.14A8.14,8.14,0,0,1,18.76,112a12.48,12.48,0,0,1,0-10.51,8.12,8.12,0,0,1,3.16-3.3,9,9,0,0,1,4.52-1.14A9,9,0,0,1,31,98.23a8.2,8.2,0,0,1,3.17,3.3A11,11,0,0,1,35.29,106.79Zm-4.05,0a8.4,8.4,0,0,0-.6-3.37A4.57,4.57,0,0,0,29,101.33a4.86,4.86,0,0,0-5.06,0,4.64,4.64,0,0,0-1.67,2.09,9.79,9.79,0,0,0,0,6.75,4.61,4.61,0,0,0,1.67,2.08,4.86,4.86,0,0,0,5.06,0,4.55,4.55,0,0,0,1.67-2.08A8.45,8.45,0,0,0,31.24,106.79Zm-6.18,2.88h3.39l1.71,2.19,1.68,2,3.16,4H31.27l-2.17-2.68L28,113.52Z" fill="#53c2f0"/><path d="M53.62,104h-4a3.91,3.91,0,0,0-.45-1.4,3.5,3.5,0,0,0-.87-1,4.07,4.07,0,0,0-1.23-.67,4.92,4.92,0,0,0-1.51-.23,4.47,4.47,0,0,0-2.56.73,4.7,4.7,0,0,0-1.69,2.1,8.34,8.34,0,0,0-.6,3.34,8.51,8.51,0,0,0,.61,3.4A4.62,4.62,0,0,0,43,112.26a4.55,4.55,0,0,0,2.52.7,5.06,5.06,0,0,0,1.49-.21,3.9,3.9,0,0,0,1.22-.62,3.54,3.54,0,0,0,.89-1,4,4,0,0,0,.49-1.35l4,0a7.26,7.26,0,0,1-.77,2.5,7.84,7.84,0,0,1-1.67,2.15,8,8,0,0,1-2.49,1.5,9.29,9.29,0,0,1-3.26.54,8.93,8.93,0,0,1-4.52-1.14A8.1,8.1,0,0,1,37.77,112a11.13,11.13,0,0,1-1.15-5.25,11,11,0,0,1,1.17-5.26,8.09,8.09,0,0,1,3.15-3.3,8.87,8.87,0,0,1,4.49-1.14,9.63,9.63,0,0,1,3,.46A7.81,7.81,0,0,1,51,98.89a7,7,0,0,1,1.77,2.16A7.81,7.81,0,0,1,53.62,104Z" fill="#53c2f0"/><path d="M65.44,102.78a2.32,2.32,0,0,0-1-1.73,3.72,3.72,0,0,0-2.28-.62,4.45,4.45,0,0,0-1.65.27,2.32,2.32,0,0,0-1,.75,1.82,1.82,0,0,0-.35,1.09,1.55,1.55,0,0,0,.22.89,2.12,2.12,0,0,0,.65.65,4.77,4.77,0,0,0,1,.47,9.3,9.3,0,0,0,1.16.33l1.69.41a11.19,11.19,0,0,1,2.27.74,6.58,6.58,0,0,1,1.79,1.13,4.72,4.72,0,0,1,1.18,1.59,5.09,5.09,0,0,1,.43,2.09,5.23,5.23,0,0,1-.88,3,5.64,5.64,0,0,1-2.51,2,10.14,10.14,0,0,1-3.94.69,10.35,10.35,0,0,1-4-.7,5.76,5.76,0,0,1-2.63-2.08,6.15,6.15,0,0,1-1-3.41h3.86a2.85,2.85,0,0,0,.55,1.58,2.94,2.94,0,0,0,1.3,1,5.09,5.09,0,0,0,1.85.32,4.79,4.79,0,0,0,1.77-.3,2.68,2.68,0,0,0,1.16-.82,1.88,1.88,0,0,0,.42-1.21,1.59,1.59,0,0,0-.38-1.07A3,3,0,0,0,64,109a11.63,11.63,0,0,0-1.74-.55L60.23,108a8.57,8.57,0,0,1-3.77-1.81,4.23,4.23,0,0,1-1.38-3.33,5,5,0,0,1,.92-3,6.11,6.11,0,0,1,2.55-2,9,9,0,0,1,3.69-.72,8.79,8.79,0,0,1,3.68.72,5.86,5.86,0,0,1,2.45,2,5.31,5.31,0,0,1,.9,3Z" fill="#53c2f0"/></g></g></svg>