<svg xmlns="http://www.w3.org/2000/svg" viewBox="0 0 69.98 117.79"><g id="Layer_2" data-name="Layer 2"><g id="Layer_1-2" data-name="Layer 1"><path d="M39.07,43.51,37.91,40.6c-2.24-5.5-4.08-6.44-9.91-4.79L24.9,25.13a20.86,20.86,0,0,1,7.34-1.3c8.25,0,14.34,4.28,17.35,12.11L64.77,75.88c1.42,3.78,2.23,5.24,4.59,5.24h.12V.5H.5V90.55H21.32Z" fill="none" stroke="#414141" stroke-miterlimit="10"/><path d="M46.13,61.44h-.65l-10,29.11H60.39a13.57,13.57,0,0,1-6.76-7.65Z" fill="none" stroke="#414141" stroke-miterlimit="10"/><path d="M11.83,97.35h4v12.26a6.45,6.45,0,0,1-3.73,6,9.13,9.13,0,0,1-4.1.86,9.22,9.22,0,0,1-4.12-.86,6.63,6.63,0,0,1-2.74-2.41,6.65,6.65,0,0,1-1-3.62V97.35h4v11.92a3.9,3.9,0,0,0,.47,1.92A3.43,3.43,0,0,0,6,112.51,4.08,4.08,0,0,0,8,113a4.08,4.08,0,0,0,2-.48,3.4,3.4,0,0,0,1.34-1.32,3.9,3.9,0,0,0,.47-1.92Z" fill="#414141"/><path d="M35.17,106.79A11,11,0,0,1,34,112.05a8.1,8.1,0,0,1-3.17,3.31,9,9,0,0,1-4.5,1.13,9,9,0,0,1-4.52-1.14A8.17,8.17,0,0,1,18.64,112a12.48,12.48,0,0,1,0-10.51,8.14,8.14,0,0,1,3.17-3.3,9,9,0,0,1,4.52-1.14,9,9,0,0,1,4.5,1.14,8.08,8.08,0,0,1,3.17,3.3A11,11,0,0,1,35.17,106.79Zm-4.05,0a8.58,8.58,0,0,0-.59-3.37,4.66,4.66,0,0,0-1.68-2.09,4.84,4.84,0,0,0-5.05,0,4.66,4.66,0,0,0-1.68,2.09,9.95,9.95,0,0,0,0,6.75,4.63,4.63,0,0,0,1.68,2.08,4.84,4.84,0,0,0,5.05,0,4.63,4.63,0,0,0,1.68-2.08A8.64,8.64,0,0,0,31.12,106.79Zm-6.18,2.88h3.4l1.7,2.19,1.68,2,3.17,4H31.16L29,115.11l-1.11-1.59Z" fill="#414141"/><path d="M53.51,104h-4a4.11,4.11,0,0,0-.45-1.4,3.53,3.53,0,0,0-.88-1,4,4,0,0,0-1.23-.67,4.88,4.88,0,0,0-1.51-.23,4.42,4.42,0,0,0-2.55.73,4.64,4.64,0,0,0-1.69,2.1,8.34,8.34,0,0,0-.6,3.34,8.52,8.52,0,0,0,.6,3.4,4.63,4.63,0,0,0,1.7,2.07,4.49,4.49,0,0,0,2.51.7,5,5,0,0,0,1.49-.21,4,4,0,0,0,1.23-.62,3.88,3.88,0,0,0,.89-1,4.18,4.18,0,0,0,.49-1.35l4,0a7.5,7.5,0,0,1-.78,2.5,7.65,7.65,0,0,1-1.67,2.15,8,8,0,0,1-2.49,1.5,9.25,9.25,0,0,1-3.26.54,8.89,8.89,0,0,1-4.51-1.14A8,8,0,0,1,37.66,112a12.53,12.53,0,0,1,0-10.51,8.18,8.18,0,0,1,3.16-3.3,8.83,8.83,0,0,1,4.48-1.14,9.7,9.7,0,0,1,3,.46,7.66,7.66,0,0,1,2.49,1.34,7.06,7.06,0,0,1,1.78,2.16A8,8,0,0,1,53.51,104Z" fill="#414141"/><path d="M65.33,102.78a2.35,2.35,0,0,0-1-1.73,3.72,3.72,0,0,0-2.28-.62,4.45,4.45,0,0,0-1.65.27,2.32,2.32,0,0,0-1,.75,1.76,1.76,0,0,0-.36,1.09,1.55,1.55,0,0,0,.22.89,2.23,2.23,0,0,0,.65.65,5.36,5.36,0,0,0,1,.47,9.3,9.3,0,0,0,1.16.33l1.7.41A11.62,11.62,0,0,1,66,106a6.74,6.74,0,0,1,1.79,1.13A4.83,4.83,0,0,1,69,108.75a4.94,4.94,0,0,1,.43,2.09,5.15,5.15,0,0,1-.88,3,5.64,5.64,0,0,1-2.51,2,10.1,10.1,0,0,1-3.94.69,10.33,10.33,0,0,1-4-.7,5.74,5.74,0,0,1-2.64-2.08,6.15,6.15,0,0,1-1-3.41h3.87a2.85,2.85,0,0,0,.54,1.58,3,3,0,0,0,1.3,1,5.17,5.17,0,0,0,1.85.32,4.75,4.75,0,0,0,1.77-.3A2.77,2.77,0,0,0,65,112a1.92,1.92,0,0,0,.41-1.21,1.58,1.58,0,0,0-.37-1.07,3,3,0,0,0-1.09-.74,12.19,12.19,0,0,0-1.75-.55L60.12,108a8.56,8.56,0,0,1-3.78-1.81A4.22,4.22,0,0,1,55,102.81a4.88,4.88,0,0,1,.92-3,6,6,0,0,1,2.55-2,9,9,0,0,1,3.69-.72,8.74,8.74,0,0,1,3.67.72,5.74,5.74,0,0,1,2.45,2,5.24,5.24,0,0,1,.9,3Z" fill="#414141"/></g></g></svg>