<svg xmlns="http://www.w3.org/2000/svg" viewBox="0 0 69.25 117.29"><g id="Layer_2" data-name="Layer 2"><g id="Layer_1-2" data-name="Layer 1"><path d="M11.67,96.85h4v12.26a6.42,6.42,0,0,1-3.72,6,9.21,9.21,0,0,1-4.11.86,9.15,9.15,0,0,1-4.11-.86A6.51,6.51,0,0,1,1,112.73a6.65,6.65,0,0,1-1-3.62V96.85H4v11.92a3.8,3.8,0,0,0,.48,1.92A3.4,3.4,0,0,0,5.81,112a4.11,4.11,0,0,0,2,.48,4.12,4.12,0,0,0,2-.48,3.38,3.38,0,0,0,1.33-1.32,3.8,3.8,0,0,0,.48-1.92Z" fill="#fff"/><path d="M35,106.29a11,11,0,0,1-1.17,5.26,8.23,8.23,0,0,1-3.17,3.31A9,9,0,0,1,26.16,116a9,9,0,0,1-4.52-1.14,8.08,8.08,0,0,1-3.16-3.31,12.39,12.39,0,0,1,0-10.51,8.12,8.12,0,0,1,3.16-3.3,9,9,0,0,1,4.52-1.14,9,9,0,0,1,4.51,1.14,8.2,8.2,0,0,1,3.17,3.3A11,11,0,0,1,35,106.29Zm-4,0a8.4,8.4,0,0,0-.6-3.37,4.57,4.57,0,0,0-1.67-2.09,4.86,4.86,0,0,0-5.06,0A4.64,4.64,0,0,0,22,102.92a9.79,9.79,0,0,0,0,6.75,4.61,4.61,0,0,0,1.67,2.08,4.86,4.86,0,0,0,5.06,0,4.55,4.55,0,0,0,1.67-2.08A8.45,8.45,0,0,0,31,106.29Zm-6.18,2.88h3.39l1.71,2.19,1.68,2,3.16,4H31l-2.17-2.68L27.7,113Z" fill="#fff"/><path d="M53.34,103.46h-4a3.91,3.91,0,0,0-.45-1.4,3.5,3.5,0,0,0-.87-1,4,4,0,0,0-1.24-.67,4.81,4.81,0,0,0-1.5-.23,4.47,4.47,0,0,0-2.56.73A4.7,4.7,0,0,0,41,103a8.34,8.34,0,0,0-.6,3.34,8.51,8.51,0,0,0,.61,3.4,4.62,4.62,0,0,0,1.69,2.07,4.55,4.55,0,0,0,2.52.7,5.11,5.11,0,0,0,1.49-.21,3.9,3.9,0,0,0,1.22-.62,3.7,3.7,0,0,0,.89-1,4,4,0,0,0,.49-1.35l4,0a7.07,7.07,0,0,1-.78,2.5A7.48,7.48,0,0,1,50.9,114a7.89,7.89,0,0,1-2.5,1.5,9.19,9.19,0,0,1-3.25.54,8.9,8.9,0,0,1-4.52-1.14,8,8,0,0,1-3.14-3.31,11.13,11.13,0,0,1-1.14-5.25A11,11,0,0,1,37.51,101a8.09,8.09,0,0,1,3.15-3.3,8.87,8.87,0,0,1,4.49-1.14,9.59,9.59,0,0,1,3,.46,7.81,7.81,0,0,1,2.5,1.34,7,7,0,0,1,1.77,2.16A7.81,7.81,0,0,1,53.34,103.46Z" fill="#fff"/><path d="M65.16,102.28a2.32,2.32,0,0,0-1-1.73,3.72,3.72,0,0,0-2.28-.62,4.45,4.45,0,0,0-1.65.27,2.32,2.32,0,0,0-1,.75A1.82,1.82,0,0,0,58.9,102a1.55,1.55,0,0,0,.22.89,2.12,2.12,0,0,0,.65.65,4.77,4.77,0,0,0,1,.47,9.3,9.3,0,0,0,1.16.33l1.69.41a11.19,11.19,0,0,1,2.27.74,6.58,6.58,0,0,1,1.79,1.13,4.72,4.72,0,0,1,1.18,1.59,5.09,5.09,0,0,1,.43,2.09,5.23,5.23,0,0,1-.88,3,5.64,5.64,0,0,1-2.51,2,10.14,10.14,0,0,1-3.94.69,10.26,10.26,0,0,1-4-.7,5.74,5.74,0,0,1-2.64-2.08,6.15,6.15,0,0,1-1-3.41h3.86a2.85,2.85,0,0,0,.55,1.58,2.94,2.94,0,0,0,1.3,1,5.09,5.09,0,0,0,1.85.32,4.79,4.79,0,0,0,1.77-.3,2.68,2.68,0,0,0,1.16-.82,1.88,1.88,0,0,0,.42-1.21,1.59,1.59,0,0,0-.38-1.07,2.93,2.93,0,0,0-1.08-.74A12.19,12.19,0,0,0,62,108L60,107.45a8.57,8.57,0,0,1-3.77-1.81,4.26,4.26,0,0,1-1.38-3.33,5,5,0,0,1,.92-3,6.11,6.11,0,0,1,2.55-2A9,9,0,0,1,62,96.59a8.79,8.79,0,0,1,3.68.72,5.8,5.8,0,0,1,2.45,2,5.31,5.31,0,0,1,.9,3Z" fill="#fff"/><path d="M38.62,43,37.45,40.1c-2.23-5.5-4.08-6.44-9.9-4.79L24.44,24.63a20.88,20.88,0,0,1,7.35-1.3c8.25,0,14.33,4.28,17.34,12.11L64.31,75.38c1.43,3.78,2.24,5.24,4.6,5.24H69V0H0V90.05H20.87Z" fill="#fff"/><path d="M45.67,60.94H45L35,90.05H59.93a13.52,13.52,0,0,1-6.75-7.65Z" fill="#fff"/></g></g></svg>