<svg xmlns="http://www.w3.org/2000/svg" xmlns:xlink="http://www.w3.org/1999/xlink" viewBox="0 0 2320.74 1248.59"><defs><style>.cls-1,.cls-7{fill:none;}.cls-2{clip-path:url(#clip-path);}.cls-3{fill:#231f20;stroke:#979797;stroke-width:2px;}.cls-4,.cls-5,.cls-8{fill:#3498db;}.cls-5,.cls-6,.cls-8{fill-rule:evenodd;}.cls-6{fill:#2f312e;stroke-width:14px;}.cls-6,.cls-7,.cls-8{stroke:#3498db;}.cls-7,.cls-8{stroke-width:12px;}</style><clipPath id="clip-path"><rect class="cls-1" x="18.11" y="17.09" width="2159.76" height="1214"/></clipPath></defs><title>banner2019</title><g id="Layer_2" data-name="Layer 2"><g id="Layer_1-2" data-name="Layer 1"><g class="cls-2"><g id="Rectangle-1"><rect class="cls-3" x="18.11" y="17.09" width="2158" height="1214"/></g><g id="RSS"><ellipse id="Oval" class="cls-4" cx="700.96" cy="1062.3" rx="39.68" ry="38.82" transform="translate(-447 512.75) rotate(-31)"/><path id="Shape" class="cls-5" d="M734.09,933.28c-.81-.2-1.61-.33-2.41-.49l-2.38-.49a8.06,8.06,0,0,0-1.27-.19c-67.48-12.66-133.86,29.34-151.17,95.63l-2,7.78L572,1046.28a24,24,0,0,0,17.77,29.46A25.26,25.26,0,0,0,620,1057.68l4.85-18.55c11-42.15,54.44-68.24,96.79-58.18l13.32,2.94a25.06,25.06,0,0,0,29.84-18,23.76,23.76,0,0,0-2.58-18.35,23.47,23.47,0,0,0-14.91-10.88l-13.2-3.35Z"/><path class="cls-5" d="M767.33,857.33l-11.22-2.67c-.05,0-.09,0-.15,0l-8.88-2.13a23.21,23.21,0,0,0-4.66-.58c-108.68-18.49-216.59,48.92-246.76,155.94-.15.5-.41.93-.55,1.47l-5.25,20.16a21.82,21.82,0,0,0,16.23,26.82,23,23,0,0,0,27.51-16.44l5.27-20.13a2.29,2.29,0,0,1,.07-.42C563.2,932.56,652,878.74,740,897l15.94,3.8a23.05,23.05,0,0,0,27.44-16.58,21.86,21.86,0,0,0-16.09-26.92Z"/></g><g id="shapes"><path class="cls-5" d="M1112.46,591c15,20.8,21.09,24.23,32.59,46.8,7.07,13.89-12.76,39.31-12.76,39.31l8.84,17.36s32.22-1.11,39.3,12.77c11.5,22.57,10.68,29.55,18.71,53.89,13.37,39.1,41.3,46.74,58.66,37.9l36.44-18.57-17.69-34.72s-29.47,19.38-40.08-1.45c-8-15.62-4.49-17.39-18.71-53.88-6.23-16.51-22.83-23.35-37.67-26.73,6-14,11.1-29.71,1.4-44.45-22.89-32.06-24.63-31.18-32.59-46.8-10.62-20.84,21.51-35,21.51-35l-17.69-34.72-36.45,18.57c-19.09,9.73-27.6,35.93-3.81,69.74Z"/><path class="cls-5" d="M1317.23,486.64c8,24.33,7.21,31.31,18.71,53.88,7.08,13.89,39.3,12.77,39.3,12.77l8.85,17.36s-19.84,25.42-12.76,39.31c11.49,22.57,17.62,26,32.59,46.81,23.78,33.8,13.54,60.89-3.82,69.73l-36.44,18.57L1346,710.35s33-12.45,22.39-33.28c-8-15.62-11.43-13.86-32.59-46.81-9.7-14.74-5.48-32.19.51-46.18-14.83-3.37-30.55-8.49-36.78-25-14.22-36.49-10.75-38.26-18.71-53.89-10.61-20.83-41-3.18-41-3.18l-17.69-34.72,36.45-18.56c19.08-9.73,45.28-1.21,58.65,37.9Z"/></g><path id="Shell-Prompt" class="cls-5" d="M681.48,284A13.65,13.65,0,0,1,669.06,262l39.26-50.3-50.26-39.29a13.65,13.65,0,0,1,16.8-21.52l61,47.71a13.68,13.68,0,0,1,2.36,19.17l-47.65,61a13.69,13.69,0,0,1-9.09,5.14Zm169.4-34.56a13.66,13.66,0,0,0-15.21-11.89l-79.28,9.74a13.65,13.65,0,0,0,3.33,27.1L839,264.62a13.66,13.66,0,0,0,11.88-15.22Z"/><path id="Cog" class="cls-5" d="M1515.56,198.39l-1-.36-4-9.65.44-1c12.22-27.76,11.37-28.59,9.35-30.61L1504,140.85a4.32,4.32,0,0,0-2.84-1.12c-.92,0-3.7,0-27.76,10.92l-1,.43-9.93-4-.4-1C1450.76,118,1449.61,118,1446.79,118h-23c-2.81,0-4.09,0-14.58,28.13l-.4,1-9.88,4-.94-.39c-16.29-6.88-25.8-10.37-28.28-10.37a4.36,4.36,0,0,0-2.85,1.11l-16.31,16c-2.07,2-2.93,2.9,9.93,30.08l.47,1-4,9.64-1,.38c-28.68,11.11-28.68,12.19-28.68,15.08v22.6c0,2.9,0,4.1,28.74,14.42l1,.37,4,9.6-.44,1c-12.21,27.77-11.44,28.53-9.36,30.6l16.27,15.95a4.45,4.45,0,0,0,2.87,1.13c.91,0,3.68,0,27.77-10.92l1-.45,9.94,4,.38,1c11.33,28.07,12.49,28.07,15.31,28.07h23c2.89,0,4.09,0,14.59-28.15l.39-1,9.9-4,.94.38c16.27,6.9,25.78,10.39,28.24,10.39a4.36,4.36,0,0,0,2.87-1.12l16.33-16c2.06-2.05,2.92-2.89-10-30.05l-.48-1,4-9.59,1-.38c28.73-11.17,28.73-12.26,28.73-15.15V212.77c0-2.9,0-4.09-28.74-14.38Zm-79.8,62.81c-20.56,0-37.29-16.45-37.29-36.65s16.73-36.62,37.29-36.62,37.29,16.43,37.29,36.62-16.73,36.65-37.29,36.65Z"/><g id="Group"><path class="cls-5" d="M368.51,86,69.91.41a10.52,10.52,0,0,0-13,7.2L.41,204.58a10.53,10.53,0,0,0,7.22,13l298.6,85.62a10.52,10.52,0,0,0,13-7.2L375.73,99a10.53,10.53,0,0,0-7.22-13ZM295.39,283.7l-25.3-7.25,2.9-10.1,25.3,7.25-2.9,10.1Zm5.8-20.2L33,186.59,77.85,30l268.23,76.91L301.19,263.5Z"/><polygon class="cls-5" points="62.56 293.46 58.21 308.61 225.22 356.5 229.57 341.35 205 312.44 98.72 281.96 62.56 293.46"/><rect id="Rectangle-path" class="cls-4" x="149.04" y="224.24" width="15.76" height="110.56" transform="translate(-155.03 353.32) rotate(-74)"/><polygon class="cls-5" points="139.3 58.57 74.23 80.84 69.23 98.29 164.32 65.75 139.3 58.57"/><polygon class="cls-5" points="333.06 114.13 186.83 72.2 64.73 113.99 45.97 179.39 293.96 250.5 333.06 114.13"/></g><g id="Coffee"><path class="cls-5" d="M1773.13,399.58,1580,347.84a11.1,11.1,0,0,0-13.6,7.87l-63.35,236.41a22.23,22.23,0,0,0,15.7,27.24l171.66,46a22.23,22.23,0,0,0,27.21-15.75L1781,413.2a11.12,11.12,0,0,0-7.85-13.62Z"/><path class="cls-5" d="M1682.33,352.22a11.12,11.12,0,0,0,13.61-7.87l8.64-32.24a11.11,11.11,0,1,0-21.46-5.75l-8.64,32.24a11.12,11.12,0,0,0,7.85,13.62Z"/><path class="cls-5" d="M1725.24,363.72a11.11,11.11,0,0,0,13.61-7.87l2.88-10.75a11.11,11.11,0,1,0-21.46-5.75l-2.87,10.75a11.11,11.11,0,0,0,7.84,13.62Z"/><path class="cls-5" d="M1639.42,340.72a11.11,11.11,0,0,0,13.6-7.87l2.88-10.75a11.1,11.1,0,1,0-21.45-5.75l-2.88,10.75a11.12,11.12,0,0,0,7.85,13.62Z"/><path class="cls-5" d="M1793.8,451.19l-11.52,43a22.26,22.26,0,0,1,15.7,27.25l-11.52,43a22.25,22.25,0,0,1-27.21,15.74l-11.52,43a66.78,66.78,0,0,0,81.65-47.23l11.51-43a66.76,66.76,0,0,0-47.09-81.72Z"/></g><g id="animal"><path class="cls-5" d="M1309.86,149.39l-16.21-9.53c-22.26-10.13-20.93-23-20.93-23a43.43,43.43,0,0,0-30.76-45c-27.46-8.4-84.13,1-98.53,93.25,0,0-1.49,19.48-8.07,14.63a189.6,189.6,0,0,0-36.72-14.53,184.7,184.7,0,0,0-57.26-6.81c-30.33,1.29-84.08,3.43-118.66-25.64a8.56,8.56,0,0,0-10.55-.41,10.18,10.18,0,0,0-3.95,10.55c8.3,36.37,27.26,87.36,59.2,127,18.68,23.22,48.45,44.82,86.52,55.46,59.12,16.49,114,1.58,137.87-30,14.3-19,33-51.88,14-105.46-4.41-12.4,3-26.09,33.51-32.38,9.53-2,23.26-4.87,66.67,3.79,6.19,1.24,15-3.67,3.83-12Z"/></g><g id="c64_mouse" data-name="c64 mouse"><path class="cls-5" d="M929.45,589.79c-.41-.48-12.47-15.23,1.32-27.57l15.37-13.79s15.89-11,27.23,1.68l14.27-12.76-6.1-6.77a68.13,68.13,0,0,0-96.12-5.18l-26.15,23.44,51.63,57.44,18.55-16.49Z"/><path class="cls-5" d="M779.91,619.92c-28,25.07-38.5,75.35-13.38,103.29L786,744.88c25.09,27.91,76.32,22.9,104.31-2.15l73.89-66.22L853.73,553.8l-73.82,66.12Z"/><path class="cls-5" d="M978.55,585.41l-14.46,13s-15.73,12.44-27.89-1.06v.11L917.8,614l51.85,57.7,26.2-23.45a67.88,67.88,0,0,0,5.19-96l-6.1-6.75-14.5,13s11.68,14.8-1.89,26.94Z"/><path class="cls-5" d="M1042.64,447.81c-19.91-9.09-37.92-8.06-48.21,2.76-10.65,11.08-7.08,26.28,9,39.46,20.23,16.67,16.55,26.64,13,31.7,0,0-4.49,8.19-19.26,12.84-1.94.44-9,1.13-9.64,3l7.36,7.89c1-.28,18.34-7.76,28.2-22.15,8.53-12.36,4.25-25.34-13.17-39.61-15.75-12.88-16.11-25.67-11.36-30.64,4.26-4.44,17.85-7.77,38.06,1.45,1.31.56,3.68-.44,5.33-2.32s1.9-3.84.63-4.4Z"/><path class="cls-5" d="M955.4,557.44,940.32,571a11.14,11.14,0,0,0,14.89,16.58L970.31,574a11.15,11.15,0,0,0-14.91-16.57Z"/></g><g id="database"><path class="cls-5" d="M247.47,490.65C317.56,508.13,369.61,551.87,363,587c-10.65,34.17-77.15,48.36-147.24,30.88S93.59,556.71,100.23,521.53c10.65-34.17,77.14-48.35,147.24-30.88Z"/><path class="cls-5" d="M316,776.46c-8.84,35.47-76.56,50.41-147.88,32.63S44,746.33,52.82,710.86l7.81-31.29c15.77,32.68,61,63.51,120.22,78.28s113.63,8.77,142.9-12.67L316,776.46Z"/><path class="cls-5" d="M332,712.3c-8.85,35.46-76.56,50.41-147.88,32.62S60,682.16,68.82,646.69L77,614.1c15.78,32.68,61,63.5,120.23,78.27s113.62,8.77,142.89-12.66L332,712.3Z"/><path class="cls-5" d="M348.27,646.82c-8.84,35.46-76.55,50.4-147.87,32.62S76.31,616.68,85.15,581.21l7.14-28.63c15.77,32.68,61,63.5,120.23,78.26s113.62,8.78,142.89-12.66l-7.14,28.64Z"/></g><path class="cls-5" d="M2183.12,27.57,1888.89,90.11a25.07,25.07,0,0,0-19.31,29.79l52.14,245.32a25.07,25.07,0,0,0,29.75,19.31L2245.7,322a25.1,25.1,0,0,0,19.3-29.73L2212.86,46.94a25.09,25.09,0,0,0-29.74-19.37Zm-197.6,61.26a12.54,12.54,0,1,1-9.65,14.89,12.54,12.54,0,0,1,9.65-14.89Zm-37.56,8a12.54,12.54,0,1,1-9.64,14.88A12.57,12.57,0,0,1,1948,96.82Zm-36.81,7.82a12.54,12.54,0,1,1-9.62,14.88,12.55,12.55,0,0,1,9.62-14.88Zm329.34,192.83L1946.26,360,1902,151.72l294.24-62.54,44.27,208.29Z"/><rect class="cls-4" x="1909.2" y="117.54" width="319" height="219" transform="translate(-2 435.07) rotate(-12)"/><g id="technology-2"><path id="Android" class="cls-5" d="M1738.84,864.4a21.27,21.27,0,0,0-5.21,29.54l48.66,69.49A21.21,21.21,0,0,0,1817,939.1l-48.66-69.5a21.28,21.28,0,0,0-29.54-5.2Zm-208.53,146a21.27,21.27,0,0,0-5.22,29.54l48.66,69.49a21.22,21.22,0,0,0,34.76-24.34l-48.66-69.49a21.27,21.27,0,0,0-29.54-5.2Zm105.13,94.67a31.83,31.83,0,0,0,44.32,7.81l8.69-6.09,24.33,34.75a21.21,21.21,0,0,0,34.75-24.34l-24.33-34.74,17.38-12.17,24.33,34.74a21.21,21.21,0,0,0,34.76-24.33L1775.34,1046l8.68-6.08a31.81,31.81,0,0,0,7.82-44.31L1724.94,900l-156.4,109.52,66.9,95.55ZM1623,852.29l-3.79-28.82a2.65,2.65,0,1,0-5.26.69l3.85,29.26a95.69,95.69,0,0,0-56.36,39.46l-26.18-13.62a2.65,2.65,0,1,0-2.45,4.7l25.79,13.43a95.5,95.5,0,0,0-1.7,94.44L1712.29,883a95.5,95.5,0,0,0-89.33-30.7Zm-32.57,96a15.38,15.38,0,1,1,3.78-21.42,15.39,15.39,0,0,1-3.78,21.42Zm69.51-48.67a15.38,15.38,0,1,1,3.78-21.42,15.38,15.38,0,0,1-3.78,21.42Z"/></g><g id="parrot"><path class="cls-6" d="M2164.58,1222.82c-1.38-1.54-3.41-3.78-6-6.39-14.45-14.39-27.93-22-34.49-26a250.74,250.74,0,0,1-40.51-30.54,100.3,100.3,0,0,0,1.44-13.16,96.75,96.75,0,0,0-1.6-21.64,30.22,30.22,0,0,0-5.17-10.34,30.6,30.6,0,0,0-11-8.9c-.22-1.17-.48-2.34-.7-3.57-1.17-5.75-2.39-11.46-3.73-17a63.61,63.61,0,0,0-30.75-27.39c-3.09-1.28-24.31-9.7-46.91-.37a63.93,63.93,0,0,0-22,15.72c-6.29,6.66-9.6,13-14.24,21.63a170,170,0,0,0-10.66,24.89,13.12,13.12,0,0,0-4.79,4.69,12.9,12.9,0,0,0-1.76,7.2,91.07,91.07,0,0,0,1.33,16.52,88.59,88.59,0,0,0,3.2,12.79,25.71,25.71,0,0,0,3.73,6.12,23.45,23.45,0,0,1,1.87,2.4,12.72,12.72,0,0,1,1.75,5.33c.38,7.41.48,15.51.16,24.2-.32,8.52-1,16.46-2,23.76Z"/><path class="cls-7" d="M1943.27,1180.24c11.67,11.84,22.86,18.76,29,21a84.22,84.22,0,0,0,9.92,2.88c3,.64,5.65,1,7.73,1.28a20.29,20.29,0,0,1,10.39,2.67,19.07,19.07,0,0,1,3.25,2.45"/><ellipse class="cls-4" cx="1984.95" cy="1093.75" rx="5.33" ry="11.19"/><ellipse class="cls-4" cx="2050.51" cy="1093.75" rx="5.33" ry="11.19"/><path class="cls-8" d="M2022.64,1166l-1.39-.48a11.23,11.23,0,0,1-3.14-2.08,89,89,0,0,1-6.35-9.75,93.45,93.45,0,0,1-6.77-14.81,173.11,173.11,0,0,1-1.7-19.56c-.06-2.45-.06-3.3,0-5.38,0-1.71.1-4.32.16-9.22a42.93,42.93,0,0,1,.48-6.45c.1-.75.26-1.55.42-2.29a6.5,6.5,0,0,1,1.07-.59,7.31,7.31,0,0,1,2.29-.48c2.88-.16,6-.26,9.06-.37h15.57a22.56,22.56,0,0,1,4.15,4.58,23.86,23.86,0,0,1,2.56,5.28q.4,3.6.48,7v2.45c0,.8,0,1.55,0,3.15.06,1,.11,1.86.16,2.56a17.47,17.47,0,0,1,.06,3.3,22.28,22.28,0,0,1-.54,3.2c-1.76,3.51-3.35,7.08-4.74,10.66a63.92,63.92,0,0,0-2.61,7.67c-.43,1.7-.64,2.77-.8,3.78s-.32,1.82-.64,3.15l-.11.48a31.22,31.22,0,0,1-2.13,6.66,28.77,28.77,0,0,1-5.54,7.51Z"/></g><g id="keyboard"><ellipse class="cls-4" cx="1064.85" cy="1042.01" rx="9.13" ry="9.09" transform="translate(-207.11 266.25) rotate(-13)"/><path class="cls-5" d="M1103.35,1042.45h0a9.09,9.09,0,1,0-4.09-17.72h0a9.09,9.09,0,1,0,4.09,17.72Z"/><ellipse class="cls-4" cx="1137.71" cy="1025.19" rx="9.13" ry="9.09" transform="translate(-201.46 282.2) rotate(-13)"/><ellipse class="cls-4" cx="1174.16" cy="1016.77" rx="9.13" ry="9.09" transform="translate(-198.63 290.19) rotate(-13)"/><ellipse class="cls-4" cx="1210.62" cy="1008.35" rx="9.13" ry="9.09" transform="translate(-195.8 298.17) rotate(-13)"/><ellipse class="cls-4" cx="1247.08" cy="999.94" rx="9.13" ry="9.09" transform="translate(-192.97 306.16) rotate(-13)"/><ellipse class="cls-4" cx="1091.8" cy="1075.44" rx="9.13" ry="9.09" transform="translate(-213.94 273.16) rotate(-13)"/><ellipse class="cls-4" cx="1128.2" cy="1067.04" rx="9.13" ry="9.09" transform="translate(-211.12 281.14) rotate(-13)"/><ellipse class="cls-4" cx="1164.65" cy="1058.62" rx="9.13" ry="9.09" transform="translate(-208.29 289.12) rotate(-13)"/><ellipse class="cls-4" cx="1201.05" cy="1050.22" rx="9.13" ry="9.09" transform="translate(-205.46 297.1) rotate(-13)"/><ellipse class="cls-4" cx="1237.51" cy="1041.8" rx="9.13" ry="9.09" transform="translate(-202.64 305.08) rotate(-13)"/><path class="cls-5" d="M1102.69,1112.52a7.32,7.32,0,0,0,8.79,5.47l127.11-29.34a7.31,7.31,0,1,0-3.29-14.25l-127.16,29.36a7.3,7.3,0,0,0-5.45,8.76Z"/><path class="cls-5" d="M1159.32,928.32l41.22-9.51a29.49,29.49,0,1,0-13.26-57.46l-139.83,32.34a7.28,7.28,0,1,0,3.33,14.18h0l139.83-32.34a14.92,14.92,0,1,1,6.71,29.07l-41.22,9.52a32,32,0,0,0-24,38.31l4.91,21.26L1018.64,1001c-9.07,2.1-14.85,10.75-12.89,19.27l32.9,142.48c2,8.51,10.95,13.76,20,11.66l252-58.18c9.07-2.09,14.85-10.75,12.89-19.26l-32.9-142.48c-2-8.51-11-13.76-20-11.66L1151.21,970.4l-4.91-21.26a17.36,17.36,0,0,1,13-20.82Zm117.1,29.46,32.89,142.48c.12.52-.58,1.47-1.92,1.78l-252,58.18c-1.34.31-2.39-.24-2.51-.76L1020,1017c-.12-.52.58-1.48,1.91-1.79l252-58.17a2.06,2.06,0,0,1,2.51.76Z"/></g><g id="pizza"><path class="cls-5" d="M590.47,334.6a15,15,0,0,0-16.13-13.78A314,314,0,0,0,359.53,430.27a15,15,0,0,0,1.66,21.15L589.32,646.25A15,15,0,0,0,614,633.67L594.9,390.88s0-.09,0-.14l-4.42-56.14ZM469.53,380.9a283.36,283.36,0,0,1,92.24-28.61l2.15,27.25a311.69,311.69,0,0,0-150.77,76.8L392.38,438.6a282.45,282.45,0,0,1,77.15-57.7Zm111.73,219-42-35.91a25,25,0,1,0-36.94-31.56L436.14,476a281.84,281.84,0,0,1,130.15-66.3l4,50.72a25,25,0,0,0,3.92,49.81l7.06,89.71Z"/><circle class="cls-4" cx="506.16" cy="474.55" r="25"/></g><g id="networking-cable"><path class="cls-5" d="M340,984.79V924.17h-15l-69.49-30.08-3.88,9,48.69,21.1H240.15v11.19c-39.62.86-95.35,4.62-109,45.35-10.83,32.26,26.58,65.61,45.85,86,25.47,26.84,64.17,57.53,72.85,95.39,11,48-120.32,52.66-143.77,54.76-15.34,1.35-29.6,33.39-10.13,31.68,54.42-4.83,140.61-8.06,174.91-59.61,22.09-33.19.54-69-21.26-95.6-26.17-32-60.06-58.51-82.67-93.25-6.11-9.43-9.68-18.35-5.64-20.74,21.71-12.93,53.59-12.23,78.81-12.5v18H340v0Z"/></g><g id="binary-code"><path id="rect34754" class="cls-5" d="M1995.92,551.93a6.17,6.17,0,0,0-3,3.4L1984,579.89a6.16,6.16,0,0,0,11.53,4.35.69.69,0,0,0,0-.13l3.85-10.59,22.36,47.94-11.17,5.21a6.16,6.16,0,1,0,5,11.24l.16-.07,15.83-7.39a6,6,0,0,0,1.81-.84l10.28-4.79a6.16,6.16,0,0,0-5-11.24l-.16.07-5.58,2.6-28.65-61.42a6.16,6.16,0,0,0-8.19-3l-.15.07Zm61.58-28.71a6.15,6.15,0,0,0-3,3.39l-8.94,24.57a6.16,6.16,0,0,0,11.49,4.45l.09-.24L2061,544.8l22.36,48-11.17,5.2a6.17,6.17,0,1,0,5,11.25l.16-.08,15.84-7.38a6.24,6.24,0,0,0,1.81-.85l10.27-4.79a6.16,6.16,0,0,0-5.05-11.24l-.16.08-5.58,2.6-28.65-61.42a6.14,6.14,0,0,0-8.18-3l-.16.08Zm-125.77,58.69a21.65,21.65,0,0,0-10.43,28.66l18.22,39.08a21.56,21.56,0,0,0,39.09-18.22l-18.23-39.09a21.65,21.65,0,0,0-28.65-10.43Zm184.74-86.14A21.64,21.64,0,0,0,2106,524.42l18.22,39.09a21.57,21.57,0,0,0,39.09-18.23l-18.23-39.08a21.64,21.64,0,0,0-28.65-10.43Zm61.58-28.72a21.65,21.65,0,0,0-10.43,28.66l18.22,39.08a21.56,21.56,0,0,0,39.09-18.22l-18.23-39.09a21.65,21.65,0,0,0-28.65-10.43Zm-241.12,126a9.08,9.08,0,0,1,12.28,4.47l18.23,39.09a9.24,9.24,0,1,1-16.75,7.81l-18.23-39.09a9.09,9.09,0,0,1,4.47-12.28Zm184.74-86.15A9.1,9.1,0,0,1,2134,511.4l18.23,39.09a9.24,9.24,0,1,1-16.75,7.81l-18.23-39.08a9.1,9.1,0,0,1,4.47-12.29Zm61.58-28.71a9.09,9.09,0,0,1,12.29,4.47l18.22,39.08a9.24,9.24,0,1,1-16.75,7.82l-18.23-39.09a9.1,9.1,0,0,1,4.47-12.28Zm-202,203a6.13,6.13,0,0,0-3,3.39l-8.94,24.56a6.16,6.16,0,0,0,11.58,4.22l3.85-10.58,22.35,47.94L1995.9,756a6.16,6.16,0,1,0,5,11.24l.15-.07,15.84-7.38a6.25,6.25,0,0,0,1.81-.85l10.27-4.79a6.16,6.16,0,1,0-5-11.24l-.16.07-5.58,2.61-28.64-61.42a6.16,6.16,0,0,0-8.19-3l-.16.08ZM2104.4,623.8a6.18,6.18,0,0,0-3,3.4l-8.94,24.56a6.16,6.16,0,0,0,11.53,4.36.58.58,0,0,1,.05-.14l3.85-10.59,22.35,47.94-11.16,5.21a6.16,6.16,0,1,0,5.05,11.24l.15-.07,15.84-7.38a6.25,6.25,0,0,0,1.81-.85l10.27-4.79a6.16,6.16,0,1,0-5-11.24l-.16.07-5.58,2.61-28.64-61.42a6.16,6.16,0,0,0-8.19-3l-.16.07ZM2166,595.09a6.15,6.15,0,0,0-3,3.4L2154,623.05a6.16,6.16,0,1,0,11.53,4.35s0-.09,0-.14l3.86-10.58,22.35,47.94-11.16,5.21a6.16,6.16,0,1,0,5,11.24l.16-.07,15.84-7.39a6.23,6.23,0,0,0,1.81-.84l10.27-4.79a6.16,6.16,0,1,0-5.05-11.24l-.16.07-5.58,2.6L2174.33,598a6.16,6.16,0,0,0-8.19-3l-.16.08Zm-125.77,58.69a21.66,21.66,0,0,0-10.43,28.66L2048,721.52a21.56,21.56,0,0,0,39.08-18.22l-18.22-39.09a21.66,21.66,0,0,0-28.66-10.43ZM2225,567.64a21.65,21.65,0,0,0-10.43,28.65l18.23,39.09a21.56,21.56,0,1,0,39.08-18.23l-18.22-39.08A21.65,21.65,0,0,0,2225,567.64ZM2045.42,665a9.09,9.09,0,0,1,12.28,4.47l18.22,39.09a9.24,9.24,0,1,1-16.75,7.81L2041,677.23a9.08,9.08,0,0,1,4.47-12.28Zm184.74-86.15a9.1,9.1,0,0,1,12.28,4.47l18.23,39.09a9.25,9.25,0,0,1-16.76,7.81l-18.22-39.09a9.09,9.09,0,0,1,4.47-12.28Zm-202,203a6.19,6.19,0,0,0-3,3.4l-8.94,24.56a6.16,6.16,0,1,0,11.58,4.21l3.85-10.58L2054,851.35l-11.17,5.21a6.16,6.16,0,1,0,5,11.24l.16-.08,15.83-7.38a6,6,0,0,0,1.81-.85l10.27-4.78a6.17,6.17,0,1,0-5.05-11.25l-.15.08-5.59,2.6-28.64-61.42a6.16,6.16,0,0,0-8.19-3l-.16.08Zm61.58-28.71a6.17,6.17,0,0,0-3,3.39l-8.94,24.56a6.16,6.16,0,1,0,11.58,4.22l3.85-10.58,22.36,47.93-11.17,5.21a6.16,6.16,0,1,0,5,11.24l.15-.07,15.84-7.39a6.09,6.09,0,0,0,1.81-.84L2137.5,826a6.16,6.16,0,1,0-5.05-11.24l-.15.07-5.59,2.61L2098.07,756a6.16,6.16,0,0,0-8.19-3l-.16.08Zm61.58-28.72a6.19,6.19,0,0,0-3,3.4l-8.94,24.56a6.16,6.16,0,0,0,11.53,4.35s0-.09.05-.14l3.85-10.58,22.36,47.94L2166,799.13a6.16,6.16,0,1,0,5.05,11.24l.16-.08,15.83-7.38a6,6,0,0,0,1.81-.85l10.27-4.79a6.16,6.16,0,0,0-5-11.24l-.16.08-5.59,2.6-28.64-61.42a6.16,6.16,0,0,0-8.19-3l-.16.08Zm61.58-28.72a6.22,6.22,0,0,0-3,3.4l-8.94,24.56a6.16,6.16,0,0,0,11.53,4.36s0-.1.05-.14l3.85-10.59,22.36,47.94-11.17,5.21a6.16,6.16,0,1,0,5.05,11.24l.15-.07,15.84-7.39a6,6,0,0,0,1.81-.84l10.27-4.79a6.16,6.16,0,1,0-5-11.24l-.15.07-5.59,2.61-28.64-61.43a6.16,6.16,0,0,0-8.19-3l-.16.07Zm59-27.45a21.66,21.66,0,0,0-10.43,28.66L2279.65,736a21.56,21.56,0,0,0,39.09-18.22l-18.23-39.09a21.66,21.66,0,0,0-28.66-10.43Zm5.21,11.17a9.08,9.08,0,0,1,12.28,4.47L2307.57,723a9.24,9.24,0,1,1-16.75,7.81l-18.23-39.09a9.08,9.08,0,0,1,4.47-12.28Z"/></g></g></g></g></svg>