<?xml version="1.0" encoding="UTF-8" standalone="no"?>
<svg width="1583px" height="602px" viewBox="0 0 1583 602" version="1.1" xmlns="http://www.w3.org/2000/svg" xmlns:xlink="http://www.w3.org/1999/xlink" xmlns:sketch="http://www.bohemiancoding.com/sketch/ns">
    <!-- Generator: Sketch 3.3.2 (12043) - http://www.bohemiancoding.com/sketch -->
    <title>websitebanner</title>
    <desc>Created with Sketch.</desc>
    <defs></defs>
    <g id="Page-1" stroke="none" stroke-width="1" fill="none" fill-rule="evenodd" sketch:type="MSPage">
        <rect id="Rectangle-1" sketch:type="MSShapeGroup" x="1" y="1" width="1581" height="600"></rect>
        <g id="Group" sketch:type="MSLayerGroup" transform="translate(101.000000, 151.000000)">
            <g id="hexagon1-copy" transform="translate(0.000000, 0.260420)" fill="#3498DB" sketch:type="MSShapeGroup">
                <path d="M331.421948,134.171811 L263.012064,15.7481129 C257.472189,6.16327126 247.253224,0.267364443 236.190148,0.267364443 L99.3766324,0.267364443 C88.3142508,0.267364443 78.0980654,6.16327126 72.5540219,15.7481129 L4.14830623,134.171811 C-1.38253716,143.755958 -1.38253716,155.55055 4.14830623,165.136086 L72.5540219,283.570201 C78.0980654,293.155042 88.3142508,299.051644 99.3766324,299.051644 L236.189453,299.051644 C247.253224,299.051644 257.472189,293.155042 263.011369,283.570201 L331.421948,165.136086 C336.952096,155.55055 336.952096,143.755958 331.421948,134.171811 L331.421948,134.171811 Z" id="Shape"></path>
            </g>
            <text id="{-copy" sketch:type="MSTextLayer" font-family="Consolas" font-size="199.856166" font-weight="normal" fill="#2F312E">
                <tspan x="57.6636103" y="197.56659">{</tspan>
            </text>
            <text id="}" sketch:type="MSTextLayer" font-family="Consolas" font-size="199.856166" font-weight="normal" fill="#2F312E">
                <tspan x="168.127635" y="197.56659">}</tspan>
            </text>
        </g>
        <text id="UQ-Computing-Society" sketch:type="MSTextLayer" font-family="Helvetica" font-size="110" font-weight="bold" fill="#3498DB">
            <tspan x="488" y="276">UQ</tspan>
            <tspan x="488" y="408">Computing Society</tspan>
        </text>
    </g>
</svg>