<svg xmlns="http://www.w3.org/2000/svg" width="418.952" height="359.818" viewBox="0 0 418.952 359.818"><title>UQCS_Logo_Portrait_Dark</title><g id="Layer_2" data-name="Layer 2"><g id="Layer_1-2" data-name="Layer 1"><path d="M260.943,7.5H158.008a32.14,32.14,0,0,0-27.835,16.071L78.705,112.715a32.145,32.145,0,0,0,0,32.142L130.173,234a32.14,32.14,0,0,0,27.835,16.071H260.943A32.143,32.143,0,0,0,288.779,234l51.467-89.144a32.14,32.14,0,0,0,0-32.142L288.779,23.571A32.141,32.141,0,0,0,260.943,7.5Z" fill="#5397d1" stroke="#fff" stroke-miterlimit="10" stroke-width="15"/><text transform="translate(0 311.453)" font-size="40" fill="#fff" font-family="MyriadPro-Regular, Myriad Pro">Uni<tspan x="57.439" y="0" letter-spacing="-0.01em">v</tspan><tspan x="76.279" y="0">ersi</tspan><tspan x="134.598" y="0" letter-spacing="0.009em">t</tspan><tspan x="148.197" y="0" letter-spacing="0em">y of </tspan><tspan x="217.636" y="0" letter-spacing="0.003em">Q</tspan><tspan x="245.315" y="0" letter-spacing="0em">ueensland</tspan></text><text transform="translate(44.179 349.818)" font-size="40" fill="#fff" font-family="MyriadPro-Semibold, Myriad Pro" font-weight="600"><tspan letter-spacing="-0.016em">C</tspan><tspan x="22.88" y="0" letter-spacing="0em">omputing </tspan><tspan x="203.877" y="0" letter-spacing="0.006em">S</tspan><tspan x="224.877" y="0" letter-spacing="0em">ocie</tspan><tspan x="296.276" y="0" letter-spacing="0.007em">t</tspan><tspan x="310.596" y="0">y</tspan></text><path d="M231.078,208.427V197.3c11.045-.139,17.371-7.781,17.371-21.015V156.393c0-13.867,4.093-21.449,13.269-24.586a3.638,3.638,0,0,0,2.5-3.472,3.69,3.69,0,0,0-2.478-3.492c-8.94-3.12-13.287-11.021-13.287-24.153v-20c0-20.418-12.978-20.418-17.242-20.418h-.129V49.145h2.711c19.178,0,30.178,10.96,30.178,30.07V100.8c0,12.591,3.36,20.619,19.612,21.346v12.936c-16.252.831-19.612,8.777-19.612,21.2v22.275c0,26.958-21.1,29.868-30.178,29.868Z" fill="#fff" stroke="#fff" stroke-miterlimit="10" stroke-width="2.5"/><path d="M231.078,208.427V197.3c11.045-.139,17.371-7.781,17.371-21.015V156.393c0-13.867,4.093-21.449,13.269-24.586a3.638,3.638,0,0,0,2.5-3.472,3.69,3.69,0,0,0-2.478-3.492c-8.94-3.12-13.287-11.021-13.287-24.153v-20c0-20.418-12.978-20.418-17.242-20.418h-.129V49.145h2.711c19.178,0,30.178,10.96,30.178,30.07V100.8c0,12.591,3.36,20.619,19.612,21.346v12.936c-16.252.831-19.612,8.777-19.612,21.2v22.275c0,26.958-21.1,29.868-30.178,29.868Z" fill="#fff" stroke="#fff" stroke-miterlimit="10" stroke-width="2.5"/><path d="M187.874,208.427V197.3c-11.045-.139-17.371-7.781-17.371-21.015V156.393c0-13.867-4.093-21.449-13.27-24.586a3.64,3.64,0,0,1-2.5-3.472,3.69,3.69,0,0,1,2.479-3.492c8.94-3.12,13.287-11.021,13.287-24.153v-20c0-20.418,12.977-20.418,17.242-20.418h.129V49.145h-2.711c-19.179,0-30.179,10.96-30.179,30.07V100.8c0,12.591-3.359,20.619-19.611,21.346v12.936c16.252.831,19.611,8.777,19.611,21.2v22.275c0,26.958,21.1,29.868,30.179,29.868Z" fill="#fff" stroke="#fff" stroke-miterlimit="10" stroke-width="2.5"/><path d="M187.874,208.427V197.3c-11.045-.139-17.371-7.781-17.371-21.015V156.393c0-13.867-4.093-21.449-13.27-24.586a3.64,3.64,0,0,1-2.5-3.472,3.69,3.69,0,0,1,2.479-3.492c8.94-3.12,13.287-11.021,13.287-24.153v-20c0-20.418,12.977-20.418,17.242-20.418h.129V49.145h-2.711c-19.179,0-30.179,10.96-30.179,30.07V100.8c0,12.591-3.359,20.619-19.611,21.346v12.936c16.252.831,19.611,8.777,19.611,21.2v22.275c0,26.958,21.1,29.868,30.179,29.868Z" fill="#fff" stroke="#fff" stroke-miterlimit="10" stroke-width="2.5"/></g></g></svg>