<svg xmlns="http://www.w3.org/2000/svg" width="413.188" height="358.657" viewBox="0 0 413.188 358.657"><title>UQCS_Logo_Portrait_Mono_Light</title><g id="Layer_2" data-name="Layer 2"><g id="Layer_1-2" data-name="Layer 1"><path d="M257.944,7.5H155.009a32.14,32.14,0,0,0-27.835,16.071L75.706,112.715a32.14,32.14,0,0,0,0,32.142L127.173,234a32.143,32.143,0,0,0,27.836,16.071H257.944A32.14,32.14,0,0,0,285.779,234l51.468-89.144a32.14,32.14,0,0,0,0-32.142L285.78,23.571A32.143,32.143,0,0,0,257.944,7.5Z" fill="none" stroke="#010101" stroke-miterlimit="10" stroke-width="15"/><path d="M3.52,284.5v15.957c0,6.039,2.679,8.6,6.278,8.6,4,0,6.559-2.64,6.559-8.6V284.5h3.519v15.717c0,8.278-4.358,11.677-10.2,11.677C4.159,311.892,0,308.733,0,300.375V284.5Z" fill="#010101"/><path d="M25.8,297.336c0-2-.04-3.64-.159-5.24h3.119l.2,3.2h.08a7.118,7.118,0,0,1,6.4-3.64c2.679,0,6.839,1.6,6.839,8.239v11.558h-3.52V300.3c0-3.119-1.16-5.719-4.479-5.719a5,5,0,0,0-4.719,3.6,5.051,5.051,0,0,0-.24,1.639v11.638H25.8Z" fill="#010101"/><path d="M51.918,286.657a2.18,2.18,0,0,1-4.359,0,2.145,2.145,0,0,1,2.2-2.2A2.088,2.088,0,0,1,51.918,286.657ZM48,311.453V292.1h3.52v19.357Z" fill="#010101"/><path d="M58.719,292.1l3.8,10.878a49.854,49.854,0,0,1,1.56,4.959h.12c.44-1.6,1-3.2,1.639-4.959L69.6,292.1h3.679l-7.6,19.357h-3.36L54.959,292.1Z" fill="#010101"/><path d="M78.159,302.415c.079,4.759,3.119,6.719,6.638,6.719a12.736,12.736,0,0,0,5.359-1l.6,2.519a15.671,15.671,0,0,1-6.439,1.2c-5.959,0-9.518-3.92-9.518-9.758s3.439-10.439,9.078-10.439c6.319,0,8,5.56,8,9.119a13.293,13.293,0,0,1-.12,1.64Zm10.318-2.52c.04-2.24-.92-5.719-4.879-5.719-3.56,0-5.119,3.279-5.4,5.719Z" fill="#010101"/><path d="M96.238,298.136c0-2.281-.04-4.24-.159-6.04h3.079l.12,3.8h.16a5.809,5.809,0,0,1,5.359-4.239,3.807,3.807,0,0,1,1,.12v3.32a5.227,5.227,0,0,0-1.2-.121c-2.48,0-4.239,1.88-4.719,4.52a9.9,9.9,0,0,0-.16,1.64v10.318h-3.48Z" fill="#010101"/><path d="M108.838,307.853a9.224,9.224,0,0,0,4.639,1.4c2.56,0,3.76-1.281,3.76-2.88,0-1.68-1-2.6-3.6-3.56-3.479-1.239-5.119-3.159-5.119-5.478,0-3.12,2.52-5.68,6.679-5.68a9.67,9.67,0,0,1,4.759,1.2l-.88,2.56a7.521,7.521,0,0,0-3.959-1.12c-2.08,0-3.24,1.2-3.24,2.639,0,1.6,1.16,2.32,3.68,3.28,3.36,1.28,5.079,2.96,5.079,5.839,0,3.4-2.639,5.8-7.239,5.8a11.039,11.039,0,0,1-5.439-1.32Z" fill="#010101"/><path d="M129.077,286.657a2.18,2.18,0,0,1-4.359,0,2.144,2.144,0,0,1,2.2-2.2A2.089,2.089,0,0,1,129.077,286.657Zm-3.919,24.8V292.1h3.519v19.357Z" fill="#010101"/><path d="M138.757,286.537V292.1H143.8v2.68h-5.039v10.438c0,2.4.68,3.759,2.639,3.759a7.83,7.83,0,0,0,2.04-.24l.16,2.64a8.615,8.615,0,0,1-3.119.48,4.878,4.878,0,0,1-3.8-1.48c-1-1.04-1.36-2.759-1.36-5.039V294.776h-3V292.1h3v-4.639Z" fill="#010101"/><path d="M149.4,292.1l4.239,11.438c.44,1.28.92,2.8,1.24,3.96h.08c.36-1.16.76-2.64,1.24-4.04l3.839-11.358h3.719l-5.278,13.8c-2.52,6.639-4.24,10.038-6.64,12.118a9.534,9.534,0,0,1-4.318,2.28l-.88-2.96a9.307,9.307,0,0,0,3.079-1.72,10.667,10.667,0,0,0,2.959-3.919,2.534,2.534,0,0,0,.281-.84,3.08,3.08,0,0,0-.241-.92L145.558,292.1Z" fill="#010101"/><path d="M192.954,301.615c0,7.158-4.959,10.277-9.639,10.277-5.239,0-9.278-3.838-9.278-9.958,0-6.478,4.239-10.278,9.6-10.278C189.194,291.656,192.954,295.7,192.954,301.615Zm-15.358.2c0,4.24,2.44,7.44,5.879,7.44,3.359,0,5.879-3.16,5.879-7.52,0-3.279-1.64-7.438-5.8-7.438S177.6,298.136,177.6,301.814Z" fill="#010101"/><path d="M197.756,311.453V294.776h-2.719V292.1h2.719v-.919c0-2.72.6-5.2,2.24-6.759a6.73,6.73,0,0,1,4.719-1.8,8.142,8.142,0,0,1,3,.56l-.48,2.719a5.256,5.256,0,0,0-2.24-.44c-3,0-3.759,2.639-3.759,5.6v1.04h4.679v2.68h-4.679v16.677Z" fill="#010101"/><path d="M239.912,315.412c-3.64-.96-7.2-2.039-10.318-3.119a5.169,5.169,0,0,0-1.64-.4c-6.4-.239-11.878-4.959-11.878-13.637,0-8.638,5.279-14.2,12.558-14.2,7.319,0,12.078,5.679,12.078,13.638,0,6.919-3.2,11.359-7.679,12.918v.16c2.68.68,5.6,1.32,7.879,1.72Zm-2.879-17.557c0-5.4-2.8-10.958-8.519-10.958-5.879,0-8.759,5.439-8.719,11.279-.04,5.718,3.12,10.878,8.559,10.878C233.913,309.054,237.033,304.014,237.033,297.855Z" fill="#010101"/><path d="M261.432,306.174c0,2,.04,3.759.16,5.279h-3.12l-.2-3.159h-.08a7.283,7.283,0,0,1-6.4,3.6c-3.039,0-6.679-1.679-6.679-8.478V292.1h3.52v10.718c0,3.68,1.12,6.159,4.319,6.159a5.085,5.085,0,0,0,4.639-3.2,5.148,5.148,0,0,0,.32-1.8V292.1h3.52Z" fill="#010101"/><path d="M269.234,302.415c.08,4.759,3.12,6.719,6.639,6.719a12.736,12.736,0,0,0,5.359-1l.6,2.519a15.675,15.675,0,0,1-6.439,1.2c-5.959,0-9.518-3.92-9.518-9.758s3.439-10.439,9.078-10.439c6.319,0,8,5.56,8,9.119a13.293,13.293,0,0,1-.12,1.64Zm10.318-2.52c.04-2.24-.919-5.719-4.879-5.719-3.559,0-5.119,3.279-5.4,5.719Z" fill="#010101"/><path d="M289.274,302.415c.08,4.759,3.12,6.719,6.64,6.719a12.734,12.734,0,0,0,5.358-1l.6,2.519a15.688,15.688,0,0,1-6.44,1.2c-5.959,0-9.518-3.92-9.518-9.758s3.439-10.439,9.079-10.439c6.318,0,8,5.56,8,9.119a13.293,13.293,0,0,1-.12,1.64Zm10.318-2.52c.04-2.24-.92-5.719-4.879-5.719-3.559,0-5.119,3.279-5.4,5.719Z" fill="#010101"/><path d="M307.354,297.336c0-2-.04-3.64-.16-5.24h3.119l.2,3.2h.08a7.118,7.118,0,0,1,6.4-3.64c2.679,0,6.839,1.6,6.839,8.239v11.558h-3.52V300.3c0-3.119-1.159-5.719-4.478-5.719a5,5,0,0,0-4.72,3.6,5.051,5.051,0,0,0-.24,1.639v11.638h-3.519Z" fill="#010101"/><path d="M329.073,307.853a9.224,9.224,0,0,0,4.639,1.4c2.56,0,3.759-1.281,3.759-2.88,0-1.68-1-2.6-3.6-3.56-3.48-1.239-5.12-3.159-5.12-5.478,0-3.12,2.52-5.68,6.679-5.68a9.673,9.673,0,0,1,4.759,1.2l-.88,2.56a7.521,7.521,0,0,0-3.959-1.12c-2.08,0-3.239,1.2-3.239,2.639,0,1.6,1.159,2.32,3.679,3.28,3.359,1.28,5.079,2.96,5.079,5.839,0,3.4-2.64,5.8-7.239,5.8a11.037,11.037,0,0,1-5.439-1.32Z" fill="#010101"/><path d="M345.393,283.057h3.519v28.4h-3.519Z" fill="#010101"/><path d="M365.55,311.453l-.28-2.44h-.12a7.207,7.207,0,0,1-5.919,2.879,5.514,5.514,0,0,1-5.919-5.558c0-4.68,4.159-7.239,11.639-7.2v-.4c0-1.6-.441-4.479-4.4-4.479a9.642,9.642,0,0,0-5.039,1.439l-.8-2.319a12.012,12.012,0,0,1,6.359-1.72c5.919,0,7.359,4.039,7.359,7.919v7.238a27.251,27.251,0,0,0,.32,4.64Zm-.519-9.878c-3.84-.08-8.2.6-8.2,4.358a3.114,3.114,0,0,0,3.319,3.361,4.819,4.819,0,0,0,4.68-3.24,3.674,3.674,0,0,0,.2-1.12Z" fill="#010101"/><path d="M374.112,297.336c0-2-.04-3.64-.16-5.24h3.119l.2,3.2h.08a7.118,7.118,0,0,1,6.4-3.64c2.679,0,6.838,1.6,6.838,8.239v11.558h-3.519V300.3c0-3.119-1.159-5.719-4.479-5.719a5.165,5.165,0,0,0-4.96,5.239v11.638h-3.518Z" fill="#010101"/><path d="M413.028,283.057v23.4c0,1.72.04,3.68.16,5h-3.159l-.16-3.359h-.08a7.162,7.162,0,0,1-6.6,3.8c-4.68,0-8.279-3.959-8.279-9.838-.04-6.438,3.96-10.4,8.678-10.4a6.471,6.471,0,0,1,5.839,2.96h.08V283.057Zm-3.52,16.917a6.211,6.211,0,0,0-.16-1.479,5.175,5.175,0,0,0-5.079-4.079c-3.639,0-5.8,3.2-5.8,7.478,0,3.92,1.92,7.16,5.719,7.16a5.29,5.29,0,0,0,5.159-4.2,6.111,6.111,0,0,0,.16-1.519Z" fill="#010101"/><path d="M63.335,349.018a17.027,17.027,0,0,1-6.959,1.2c-8.558,0-13.757-5.36-13.757-13.559,0-8.878,6.159-14.237,14.4-14.237a15.47,15.47,0,0,1,6.559,1.2l-1.08,3.919a13.1,13.1,0,0,0-5.28-1.04c-5.479,0-9.438,3.439-9.438,9.919,0,5.919,3.479,9.717,9.4,9.717a13.754,13.754,0,0,0,5.36-1Z" fill="#010101"/><path d="M85.216,339.9c0,7.158-5.039,10.358-10,10.358-5.519,0-9.759-3.8-9.759-10.038,0-6.4,4.2-10.319,10.079-10.319C81.336,329.9,85.216,333.981,85.216,339.9Zm-14.677.2c0,3.76,1.839,6.6,4.838,6.6,2.8,0,4.76-2.76,4.76-6.68,0-3.039-1.36-6.518-4.72-6.518C71.938,333.5,70.539,336.86,70.539,340.1Z" fill="#010101"/><path d="M89.259,336.14c0-2.239-.04-4.119-.16-5.8h4.239l.2,2.879h.12a6.735,6.735,0,0,1,6-3.32,5.617,5.617,0,0,1,5.4,3.6h.08a7.363,7.363,0,0,1,2.4-2.44,6.512,6.512,0,0,1,3.92-1.16c3.239,0,6.518,2.2,6.518,8.439v11.478h-4.8V339.06c0-3.24-1.12-5.159-3.479-5.159a3.751,3.751,0,0,0-3.44,2.6,7.03,7.03,0,0,0-.239,1.639v11.678h-4.8V338.54c0-2.72-1.08-4.639-3.359-4.639a3.842,3.842,0,0,0-3.52,2.8,4.21,4.21,0,0,0-.279,1.6v11.518h-4.8Z" fill="#010101"/><path d="M123.179,336.82c0-2.559-.08-4.639-.16-6.478h4.319l.241,3h.079a7.586,7.586,0,0,1,6.679-3.44c4.479,0,8.2,3.84,8.2,9.919,0,7.038-4.439,10.438-8.879,10.438a6.4,6.4,0,0,1-5.479-2.6h-.08v10.078h-4.919Zm4.919,4.84a5.067,5.067,0,0,0,.16,1.359,4.449,4.449,0,0,0,4.32,3.44c3.119,0,4.959-2.6,4.959-6.44,0-3.438-1.68-6.238-4.839-6.238a4.585,4.585,0,0,0-4.4,3.64,4.454,4.454,0,0,0-.2,1.239Z" fill="#010101"/><path d="M164.016,343.979c0,2.32.08,4.24.16,5.839h-4.32l-.24-2.96h-.08a7.04,7.04,0,0,1-6.239,3.4c-3.559,0-6.8-2.12-6.8-8.479V330.342h4.918v10.6c0,3.24,1.041,5.32,3.64,5.32a4.145,4.145,0,0,0,3.759-2.64,4.448,4.448,0,0,0,.28-1.52V330.342h4.92Z" fill="#010101"/><path d="M174.977,324.782v5.56h4.679v3.679h-4.679v8.6c0,2.36.64,3.6,2.52,3.6a7.309,7.309,0,0,0,1.919-.24l.08,3.759a10.8,10.8,0,0,1-3.559.481,5.7,5.7,0,0,1-4.24-1.6c-1.039-1.119-1.519-2.879-1.519-5.439v-9.158h-2.8v-3.679h2.8v-4.4Z" fill="#010101"/><path d="M188.617,324.9a2.761,2.761,0,1,1-2.76-2.68A2.607,2.607,0,0,1,188.617,324.9Zm-5.239,24.916V330.342h4.959v19.476Z" fill="#010101"/><path d="M193.618,336.14c0-2.239-.04-4.119-.16-5.8h4.319l.24,2.919h.12a7.022,7.022,0,0,1,6.2-3.36c3.4,0,6.918,2.2,6.918,8.36v11.557h-4.919v-11c0-2.8-1.04-4.919-3.719-4.919a4.127,4.127,0,0,0-3.839,2.879,5.017,5.017,0,0,0-.2,1.6v11.438h-4.959Z" fill="#010101"/><path d="M234.294,330.342c-.08,1.319-.16,2.919-.16,5.6v11.038c0,4.08-.84,7-2.879,8.839a11.2,11.2,0,0,1-7.519,2.36,13.775,13.775,0,0,1-6.8-1.56l1.079-3.72a11.745,11.745,0,0,0,5.679,1.481c3.2,0,5.6-1.68,5.6-5.879v-1.68h-.08a6.575,6.575,0,0,1-5.679,2.879c-4.839,0-8.278-4-8.278-9.519,0-6.4,4.159-10.278,8.838-10.278a6.132,6.132,0,0,1,5.639,3.04h.08l.2-2.6Zm-5.079,7.8a4.782,4.782,0,0,0-.16-1.32,4.083,4.083,0,0,0-4-3.159c-2.76,0-4.8,2.4-4.8,6.358,0,3.321,1.68,6,4.759,6a4.2,4.2,0,0,0,4-2.959,8.464,8.464,0,0,0,.2-1.759Z" fill="#010101"/><path d="M247.777,344.459a13.615,13.615,0,0,0,6.518,1.72c3.16,0,4.92-1.48,4.92-3.679,0-2.04-1.36-3.24-4.8-4.48-4.44-1.6-7.279-3.96-7.279-7.839,0-4.4,3.679-7.758,9.518-7.758a14.222,14.222,0,0,1,6.479,1.36l-1.2,3.959a11.393,11.393,0,0,0-5.359-1.28c-3.119,0-4.479,1.679-4.479,3.24,0,2.079,1.56,3.039,5.159,4.438,4.679,1.76,6.959,4.121,6.959,8,0,4.32-3.279,8.08-10.238,8.08a16.009,16.009,0,0,1-7.279-1.681Z" fill="#010101"/><path d="M287.213,339.9c0,7.158-5.039,10.358-10,10.358-5.519,0-9.758-3.8-9.758-10.038,0-6.4,4.2-10.319,10.078-10.319C283.333,329.9,287.213,333.981,287.213,339.9Zm-14.677.2c0,3.76,1.839,6.6,4.839,6.6,2.8,0,4.759-2.76,4.759-6.68,0-3.039-1.36-6.518-4.719-6.518C273.936,333.5,272.536,336.86,272.536,340.1Z" fill="#010101"/><path d="M305.574,349.219a14.255,14.255,0,0,1-5.519,1c-6.079,0-10.039-3.88-10.039-9.919,0-5.839,4-10.4,10.839-10.4a12.289,12.289,0,0,1,4.759.92l-.88,3.68a8.653,8.653,0,0,0-3.72-.76c-3.759,0-6,2.76-5.959,6.318,0,4,2.6,6.28,5.959,6.28a9.622,9.622,0,0,0,3.88-.76Z" fill="#010101"/><path d="M314.456,324.9a2.761,2.761,0,1,1-2.76-2.68A2.608,2.608,0,0,1,314.456,324.9Zm-5.24,24.916V330.342h4.959v19.476Z" fill="#010101"/><path d="M322.936,341.46c.12,3.519,2.879,5.039,6,5.039a14.628,14.628,0,0,0,5.4-.88l.721,3.4a18.337,18.337,0,0,1-6.8,1.2c-6.319,0-10.039-3.88-10.039-9.839,0-5.4,3.281-10.479,9.519-10.479,6.319,0,8.4,5.2,8.4,9.479a12.244,12.244,0,0,1-.159,2.08Zm8.559-3.44c.04-1.8-.76-4.759-4.039-4.759-3.04,0-4.32,2.759-4.52,4.759Z" fill="#010101"/><path d="M345.735,324.782v5.56h4.68v3.679h-4.68v8.6c0,2.36.64,3.6,2.519,3.6a7.305,7.305,0,0,0,1.92-.24l.08,3.759a10.8,10.8,0,0,1-3.559.481,5.693,5.693,0,0,1-4.239-1.6c-1.04-1.119-1.52-2.879-1.52-5.439v-9.158h-2.8v-3.679h2.8v-4.4Z" fill="#010101"/><path d="M357.5,330.342l3.519,10.438c.4,1.2.8,2.679,1.08,3.8h.12c.32-1.12.68-2.56,1.04-3.839l3.039-10.4h5.28l-4.879,13.277c-2.68,7.279-4.48,10.518-6.8,12.518a9.891,9.891,0,0,1-5.158,2.52l-1.12-4.159a8.419,8.419,0,0,0,2.879-1.361,8.557,8.557,0,0,0,2.679-3.079,1.968,1.968,0,0,0,.321-.879,2.073,2.073,0,0,0-.281-.96L352.1,330.342Z" fill="#010101"/><path d="M228.079,208.427V197.3c11.045-.139,17.371-7.781,17.371-21.015V156.393c0-13.867,4.093-21.449,13.27-24.586a3.639,3.639,0,0,0,2.5-3.472,3.69,3.69,0,0,0-2.479-3.492c-8.94-3.12-13.287-11.021-13.287-24.153v-20c0-20.418-12.977-20.418-17.242-20.418h-.129V49.145h2.711c19.179,0,30.179,10.96,30.179,30.07V100.8c0,12.591,3.359,20.619,19.611,21.346v12.936c-16.252.831-19.611,8.777-19.611,21.2v22.275c0,26.958-21.1,29.868-30.179,29.868Z" fill="#231f20" stroke="#231f20" stroke-miterlimit="10" stroke-width="2.5"/><path d="M228.079,208.427V197.3c11.045-.139,17.371-7.781,17.371-21.015V156.393c0-13.867,4.093-21.449,13.27-24.586a3.639,3.639,0,0,0,2.5-3.472,3.69,3.69,0,0,0-2.479-3.492c-8.94-3.12-13.287-11.021-13.287-24.153v-20c0-20.418-12.977-20.418-17.242-20.418h-.129V49.145h2.711c19.179,0,30.179,10.96,30.179,30.07V100.8c0,12.591,3.359,20.619,19.611,21.346v12.936c-16.252.831-19.611,8.777-19.611,21.2v22.275c0,26.958-21.1,29.868-30.179,29.868Z" fill="#231f20" stroke="#231f20" stroke-miterlimit="10" stroke-width="2.5"/><path d="M184.875,208.427V197.3c-11.045-.139-17.371-7.781-17.371-21.015V156.393c0-13.867-4.093-21.449-13.269-24.586a3.639,3.639,0,0,1-2.5-3.472,3.69,3.69,0,0,1,2.478-3.492c8.941-3.12,13.287-11.021,13.287-24.153v-20c0-20.418,12.978-20.418,17.242-20.418h.129V49.145h-2.711c-19.178,0-30.178,10.96-30.178,30.07V100.8c0,12.591-3.36,20.619-19.612,21.346v12.936c16.252.831,19.612,8.777,19.612,21.2v22.275c0,26.958,21.1,29.868,30.178,29.868Z" fill="#231f20" stroke="#231f20" stroke-miterlimit="10" stroke-width="2.5"/><path d="M184.875,208.427V197.3c-11.045-.139-17.371-7.781-17.371-21.015V156.393c0-13.867-4.093-21.449-13.269-24.586a3.639,3.639,0,0,1-2.5-3.472,3.69,3.69,0,0,1,2.478-3.492c8.941-3.12,13.287-11.021,13.287-24.153v-20c0-20.418,12.978-20.418,17.242-20.418h.129V49.145h-2.711c-19.178,0-30.178,10.96-30.178,30.07V100.8c0,12.591-3.36,20.619-19.612,21.346v12.936c16.252.831,19.612,8.777,19.612,21.2v22.275c0,26.958,21.1,29.868,30.178,29.868Z" fill="#231f20" stroke="#231f20" stroke-miterlimit="10" stroke-width="2.5"/></g></g></svg>