<svg xmlns="http://www.w3.org/2000/svg" viewBox="0 0 418.95 359.82"><defs><style>.cls-1{fill:none;stroke:#010101;stroke-width:15px;}.cls-1,.cls-12{stroke-miterlimit:10;}.cls-2,.cls-7{font-size:40px;fill:#010101;}.cls-2{font-family:MyriadPro-Regular, Myriad Pro;}.cls-3{letter-spacing:-0.01em;}.cls-4{letter-spacing:0.01em;}.cls-5{letter-spacing:0em;}.cls-6{letter-spacing:0em;}.cls-7{font-family:MyriadPro-Semibold, Myriad Pro;font-weight:600;}.cls-8{letter-spacing:-0.02em;}.cls-9{letter-spacing:0.01em;}.cls-10{letter-spacing:0em;}.cls-11{letter-spacing:0.01em;}.cls-12{fill:#231f20;stroke:#231f20;stroke-width:2.5px;}</style></defs><title>UQCS_Logo_Portrait_Mono_Light</title><g id="Layer_2" data-name="Layer 2"><g id="Layer_1-2" data-name="Layer 1"><path class="cls-1" d="M260.94,7.5H158a32.16,32.16,0,0,0-27.84,16.07L78.71,112.72a32.1,32.1,0,0,0,0,32.14L130.17,234A32.14,32.14,0,0,0,158,250.07H260.94A32.13,32.13,0,0,0,288.78,234l51.47-89.14a32.15,32.15,0,0,0,0-32.14L288.78,23.57A32.15,32.15,0,0,0,260.94,7.5Z"/><text class="cls-2" transform="translate(0 311.45)">Uni<tspan class="cls-3" x="57.44" y="0">v</tspan><tspan x="76.28" y="0">ersi</tspan><tspan class="cls-4" x="134.6" y="0">t</tspan><tspan class="cls-5" x="148.2" y="0">y of </tspan><tspan class="cls-6" x="217.64" y="0">Q</tspan><tspan class="cls-5" x="245.31" y="0">ueensland</tspan></text><text class="cls-7" transform="translate(44.18 349.82)"><tspan class="cls-8">C</tspan><tspan class="cls-5" x="22.88" y="0">omputing </tspan><tspan class="cls-9" x="203.88" y="0">S</tspan><tspan class="cls-10" x="224.88" y="0">ocie</tspan><tspan class="cls-11" x="296.28" y="0">t</tspan><tspan x="310.6" y="0">y</tspan></text><path class="cls-12" d="M231.08,208.43V197.3c11-.14,17.37-7.78,17.37-21v-19.9c0-13.86,4.09-21.45,13.27-24.58a3.66,3.66,0,0,0,2.5-3.48,3.71,3.71,0,0,0-2.48-3.49c-8.94-3.12-13.29-11-13.29-24.15v-20c0-20.42-13-20.42-17.24-20.42h-.13V49.15h2.71c19.18,0,30.18,11,30.18,30.06V100.8c0,12.59,3.36,20.62,19.61,21.35v12.93c-16.25.83-19.61,8.78-19.61,21.2v22.28c0,27-21.11,29.87-30.18,29.87Z"/><path class="cls-12" d="M231.08,208.43V197.3c11-.14,17.37-7.78,17.37-21v-19.9c0-13.86,4.09-21.45,13.27-24.58a3.66,3.66,0,0,0,2.5-3.48,3.71,3.71,0,0,0-2.48-3.49c-8.94-3.12-13.29-11-13.29-24.15v-20c0-20.42-13-20.42-17.24-20.42h-.13V49.15h2.71c19.18,0,30.18,11,30.18,30.06V100.8c0,12.59,3.36,20.62,19.61,21.35v12.93c-16.25.83-19.61,8.78-19.61,21.2v22.28c0,27-21.11,29.87-30.18,29.87Z"/><path class="cls-12" d="M187.87,208.43V197.3c-11-.14-17.37-7.78-17.37-21v-19.9c0-13.86-4.09-21.45-13.27-24.58a3.64,3.64,0,0,1-2.49-3.48,3.68,3.68,0,0,1,2.48-3.49c8.94-3.12,13.28-11,13.28-24.15v-20c0-20.42,13-20.42,17.25-20.42h.12V49.15h-2.71C166,49.15,155,60.11,155,79.21V100.8c0,12.59-3.36,20.62-19.62,21.35v12.93c16.26.83,19.62,8.78,19.62,21.2v22.28c0,27,21.1,29.87,30.17,29.87Z"/><path class="cls-12" d="M187.87,208.43V197.3c-11-.14-17.37-7.78-17.37-21v-19.9c0-13.86-4.09-21.45-13.27-24.58a3.64,3.64,0,0,1-2.49-3.48,3.68,3.68,0,0,1,2.48-3.49c8.94-3.12,13.28-11,13.28-24.15v-20c0-20.42,13-20.42,17.25-20.42h.12V49.15h-2.71C166,49.15,155,60.11,155,79.21V100.8c0,12.59-3.36,20.62-19.62,21.35v12.93c16.26.83,19.62,8.78,19.62,21.2v22.28c0,27,21.1,29.87,30.17,29.87Z"/></g></g></svg>