<?xml version="1.0" encoding="UTF-8" standalone="no"?>
<svg width="2318px" height="579px" viewBox="0 0 2318 579" version="1.1" xmlns="http://www.w3.org/2000/svg" xmlns:xlink="http://www.w3.org/1999/xlink" xmlns:sketch="http://www.bohemiancoding.com/sketch/ns">
    <!-- Generator: Sketch 3.3.2 (12043) - http://www.bohemiancoding.com/sketch -->
    <title>logo</title>
    <desc>Created with Sketch.</desc>
    <defs></defs>
    <g id="Page-1" stroke="none" stroke-width="1" fill="none" fill-rule="evenodd" sketch:type="MSPage">
        <g id="Logo-Light" sketch:type="MSLayerGroup" transform="translate(0.000000, 10.000000)">
            <g id="hexagon1-+-{-+-}" transform="translate(115.000000, 0.000000)">
                <g id="hexagon1" fill="#3498DB" sketch:type="MSShapeGroup">
                    <path d="M485.913634,197.335437 L385.614618,23.1618007 C377.492341,9.06473435 362.509826,0.39323073 346.289719,0.39323073 L145.700853,0.39323073 C129.481764,0.39323073 114.503324,9.06473435 106.374936,23.1618007 L6.08203099,197.335437 C-2.02700413,211.431482 -2.02700413,228.778574 6.08203099,242.876662 L106.374936,417.065619 C114.503324,431.162685 129.481764,439.83521 145.700853,439.83521 L346.2887,439.83521 C362.509826,439.83521 377.492341,431.162685 385.613599,417.065619 L485.913634,242.876662 C494.021651,228.778574 494.021651,211.431482 485.913634,197.335437 L485.913634,197.335437 Z" id="Shape"></path>
                </g>
                <text id="{" sketch:type="MSTextLayer" font-family="Consolas" font-size="292.795175" font-weight="normal" fill="#FFFFFF">
                    <tspan x="84.5433884" y="289.198694">{</tspan>
                </text>
                <text id="}" sketch:type="MSTextLayer" font-family="Consolas" font-size="292.795175" font-weight="normal" fill="#FFFFFF">
                    <tspan x="246.5" y="289.198694">}</tspan>
                </text>
            </g>
            <text id="UQ-Computing-Society" sketch:type="MSTextLayer" font-family="Helvetica" font-size="64" font-weight="bold" fill="#3498DB">
                <tspan x="0.25" y="552.710007">UQ Computing Society</tspan>
            </text>
        </g>
        <g id="Group" sketch:type="MSLayerGroup" transform="translate(823.000000, 20.000000)">
            <g id="hexagon1-copy" transform="translate(107.000000, 0.375000)" fill="#3498DB" sketch:type="MSShapeGroup">
                <path d="M477.043,193.205 L378.575,22.677 C370.601,8.875 355.892,0.385 339.968,0.385 L143.041,0.385 C127.118,0.385 112.413,8.875 104.433,22.677 L5.971,193.205 C-1.99,207.006 -1.99,223.99 5.971,237.793 L104.433,408.336 C112.413,422.138 127.118,430.629 143.041,430.629 L339.967,430.629 C355.892,430.629 370.601,422.138 378.574,408.336 L477.043,237.793 C485.003,223.99 485.003,207.006 477.043,193.205 L477.043,193.205 Z" id="Shape"></path>
            </g>
            <text id="{-copy" sketch:type="MSTextLayer" font-family="Consolas" font-size="288" font-weight="normal" fill="#2F312E">
                <tspan x="190" y="285.375">{</tspan>
            </text>
            <text id="}" sketch:type="MSTextLayer" font-family="Consolas" font-size="288" font-weight="normal" fill="#2F312E">
                <tspan x="349" y="285.375">}</tspan>
            </text>
            <text id="UQ-Computing-Society-Copy" sketch:type="MSTextLayer" font-family="Helvetica" font-size="64" font-weight="bold" fill="#3498DB">
                <tspan x="0.5" y="544">UQ Computing Society</tspan>
            </text>
        </g>
        <g id="Logo-Dark" sketch:type="MSLayerGroup" transform="translate(1621.000000, 0.000000)">
            <g id="hexagon1-copy-2-+-{-copy-2-+-}-copy-2" transform="translate(96.000000, 0.000000)">
                <g id="hexagon1-copy-2" fill="#2F312E" sketch:type="MSShapeGroup">
                    <path d="M497.741147,201.722158 L395.000775,23.6766821 C386.680795,9.2662413 371.333595,0.401972158 354.718678,0.401972158 L149.247324,0.401972158 C132.63345,0.401972158 117.290424,9.2662413 108.964184,23.6766821 L6.23007231,201.722158 C-2.07634298,216.131555 -2.07634298,233.864269 6.23007231,248.275754 L108.964184,426.336891 C117.290424,440.747332 132.63345,449.612645 149.247324,449.612645 L354.717634,449.612645 C371.333595,449.612645 386.680795,440.747332 394.999731,426.336891 L497.741147,248.275754 C506.046519,233.864269 506.046519,216.131555 497.741147,201.722158 L497.741147,201.722158 Z" id="Shape"></path>
                </g>
                <text id="{-copy-2" sketch:type="MSTextLayer" font-family="Consolas" font-size="300.495868" font-weight="normal" fill="#3498DB">
                    <tspan x="86.6012397" y="297.12993">{</tspan>
                </text>
                <text id="}-copy-2" sketch:type="MSTextLayer" font-family="Consolas" font-size="300.495868" font-weight="normal" fill="#3498DB">
                    <tspan x="252.5" y="297.12993">}</tspan>
                </text>
            </g>
            <text id="UQ-Computing-Society" sketch:type="MSTextLayer" font-family="Helvetica" font-size="64" font-weight="bold" fill="#3498DB">
                <tspan x="0" y="562.214141">UQ Computing Society</tspan>
            </text>
        </g>
    </g>
</svg>