<?xml version="1.0" encoding="UTF-8" standalone="no"?>
<svg width="2158px" height="1214px" viewBox="0 0 2158 1214" version="1.1" xmlns="http://www.w3.org/2000/svg" xmlns:xlink="http://www.w3.org/1999/xlink">
    <!-- Generator: Sketch 39.1 (31720) - http://www.bohemiancoding.com/sketch -->
    <title>eventbrite</title>
    <desc>Created with Sketch.</desc>
    <defs>
        <rect id="path-1" x="1" y="1" width="2158" height="1214"></rect>
        <mask id="mask-2" maskContentUnits="userSpaceOnUse" maskUnits="objectBoundingBox" x="0" y="0" width="2158" height="1214" fill="white">
            <use xlink:href="#path-1"></use>
        </mask>
    </defs>
    <g id="Page-1" stroke="none" stroke-width="1" fill="none" fill-rule="evenodd">
        <use id="Rectangle-1" stroke="#979797" mask="url(#mask-2)" stroke-width="2" fill="#2F312E" xlink:href="#path-1"></use>
        <g id="RSS" transform="translate(638.500000, 973.000000) rotate(-31.000000) translate(-638.500000, -973.000000) translate(468.000000, 847.000000)" fill="#3498DB">
            <ellipse id="Oval" cx="171.667059" cy="212.108151" rx="39.684827" ry="38.8186674"></ellipse>
            <path d="M266.511505,118.581724 C265.922612,117.989683 265.301003,117.461647 264.695753,116.91761 L262.912716,115.269496 C262.61827,114.965476 262.291107,114.74146 261.91487,114.45344 C210.599412,68.8503068 132.064022,70.658431 83.0877768,118.565723 L77.3460727,124.19811 L69.3960208,131.974644 C59.7120069,141.447295 59.7610813,156.888356 69.4614533,166.377008 C79.1781834,175.897662 94.9637803,175.913664 104.631436,166.441013 L118.33955,153.032091 C149.485433,122.581999 200.146566,122.581999 231.27609,153.01609 L241.17276,162.392734 C250.758625,171.769379 266.396998,171.753378 276.031938,162.312729 C280.694005,157.768417 283.262232,151.704 283.27859,145.255557 C283.294948,138.839116 280.759438,132.774699 276.09737,128.246388 L266.511505,118.581724 L266.511505,118.581724 Z" id="Shape"></path>
            <path d="M334.119663,70.5944266 L325.875164,62.5298725 C325.842448,62.4978703 325.82609,62.449867 325.760657,62.4338659 L319.250121,56.0334261 C318.105052,54.9293502 316.861834,53.9692842 315.553183,53.137227 C231.914057,-18.6917086 104.696869,-16.4835569 23.7241176,59.7136789 C23.3315225,60.0657031 22.8898529,60.3057196 22.4972578,60.689746 L7.61135813,75.2667477 C-1.22203287,83.8913403 -1.17295848,97.9243046 7.70950692,106.612902 C16.5756142,115.285498 30.9216955,115.349502 39.7550865,106.692907 L54.6409862,92.1479076 C54.7391349,92.0198988 54.8209256,91.9078911 54.9190744,91.8278857 C120.400675,29.9516339 224.27481,29.5676075 290.27987,90.5637988 L301.992292,102.036587 C310.809325,110.66118 325.188123,110.629178 334.05423,101.956582 C342.903979,93.2679846 342.936696,79.2190192 334.119663,70.5944266 L334.119663,70.5944266 Z" id="Shape"></path>
        </g>
        <g id="shapes" transform="translate(1240.708698, 608.000000) rotate(-27.000000) translate(-1240.708698, -608.000000) translate(1103.208698, 452.000000)" fill="#3498DB">
            <path d="M23.0100043,60.4978502 C26.9053966,85.8268103 30.8007888,91.671955 30.8007888,117.000915 C30.8007888,132.587968 1.58534667,146.226638 1.58534667,146.226638 L1.58534667,165.710454 C1.58534667,165.710454 30.8007888,179.349125 30.8007888,194.936177 C30.8007888,220.265137 26.9053966,226.110282 23.0100043,251.439242 C17.1669158,292.355255 38.5915734,311.83907 58.0685349,311.83907 L98.9701539,311.83907 L98.9701539,272.871439 C98.9701539,272.871439 63.9116233,276.768202 63.9116233,253.387624 C63.9116233,235.85219 67.8070156,235.85219 71.7024079,196.884559 C73.650104,179.349125 61.9639272,165.710454 50.2777503,155.968546 C61.9639272,146.226638 73.650104,134.536349 71.7024079,117.000915 C65.8593195,78.0332841 63.9116233,78.0332841 63.9116233,60.4978502 C63.9116233,37.1172716 98.9701539,39.0656531 98.9701539,39.0656531 L98.9701539,0.0980220758 L58.0685349,0.0980220758 C36.6438773,0.0980220758 17.1669158,19.5818376 23.0100043,60.4978502 L23.0100043,60.4978502 Z" id="Shape"></path>
            <path d="M252.838149,60.4978502 C248.942757,85.8268103 245.047365,91.671955 245.047365,117.000915 C245.047365,132.587968 274.262807,146.226638 274.262807,146.226638 L274.262807,165.710454 C274.262807,165.710454 245.047365,179.349125 245.047365,194.936177 C245.047365,220.265137 248.942757,226.110282 252.838149,251.439242 C258.681238,292.355255 237.25658,311.83907 217.779619,311.83907 L176.878,311.83907 L176.878,272.871439 C176.878,272.871439 211.93653,276.768202 211.93653,253.387624 C211.93653,235.85219 208.041138,235.85219 204.145746,196.884559 C202.19805,179.349125 213.884226,165.710454 225.570403,155.968546 C213.884226,146.226638 202.19805,134.536349 204.145746,117.000915 C208.041138,78.0332841 211.93653,78.0332841 211.93653,60.4978502 C211.93653,37.1172716 176.878,39.0656531 176.878,39.0656531 L176.878,0.0980220758 L217.779619,0.0980220758 C239.204276,0.0980220758 258.681238,19.5818376 252.838149,60.4978502 L252.838149,60.4978502 Z" id="Shape"></path>
        </g>
        <path d="M655.430748,258.706621 C651.938177,258.706621 648.451062,257.374006 645.782519,254.708775 C640.450891,249.378314 640.450891,240.732698 645.782519,235.407698 L690.880348,190.273544 L645.782519,145.144852 C640.450891,139.808929 640.450891,131.163314 645.782519,125.838314 C651.114148,120.50239 659.747348,120.50239 665.073519,125.838314 L719.814119,180.623006 C722.373519,183.184467 723.803291,186.652544 723.803291,190.279006 C723.803291,193.905467 722.362605,197.368083 719.814119,199.940467 L665.078977,254.719698 C662.410434,257.374006 658.917862,258.706621 655.430748,258.706621 L655.430748,258.706621 Z M827.778234,245.052775 C827.778234,237.51039 821.671691,231.398929 814.135377,231.398929 L734.259177,231.398929 C726.722862,231.398929 720.616319,237.51039 720.616319,245.052775 C720.616319,252.59516 726.722862,258.706621 734.259177,258.706621 L814.135377,258.706621 C821.666234,258.706621 827.778234,252.59516 827.778234,245.052775 L827.778234,245.052775 Z" id="Shell-Prompt" fill="#3498DB" transform="translate(734.781016, 190.271496) rotate(-7.000000) translate(-734.781016, -190.271496) "></path>
        <path d="M1498.44199,182.303848 L1497.40947,181.935045 L1493.37685,172.28911 L1493.81416,171.297989 C1506.0306,143.534238 1505.18827,142.706049 1503.16198,140.69322 L1486.86654,124.763517 C1486.20031,124.101201 1485.03044,123.635344 1484.02199,123.635344 C1483.10511,123.635344 1480.32806,123.635344 1456.26087,134.558267 L1455.29586,134.99236 L1445.36633,130.985524 L1444.96776,129.994991 C1433.65,101.913023 1432.4907,101.913023 1429.67432,101.913023 L1406.66136,101.913023 C1403.85555,101.913023 1402.57767,101.913023 1392.08287,130.043812 L1391.68783,131.067872 L1381.80996,135.102942 L1380.86549,134.709435 C1364.57534,127.827464 1355.06375,124.337658 1352.5843,124.337658 C1351.5782,124.337658 1350.40422,124.789986 1349.73505,125.450538 L1333.42435,141.42612 C1331.35521,143.4713 1330.49703,144.327723 1343.35329,171.512095 L1343.82582,172.520274 L1339.78674,182.15562 L1338.79824,182.53854 C1310.1179,193.644982 1310.1179,194.727863 1310.1179,197.620643 L1310.1179,220.21821 C1310.1179,223.118637 1310.1179,224.323276 1338.85518,234.643291 L1339.88242,235.0068 L1343.92208,244.613913 L1343.4883,245.595623 C1331.27186,273.372314 1332.04668,274.124037 1334.12639,276.196863 L1350.39717,292.148329 C1351.07926,292.805352 1352.25969,293.274737 1353.26638,293.274737 C1354.17739,293.274737 1356.94798,293.274737 1381.03102,282.357109 L1381.99545,281.904781 L1391.93143,285.931616 L1392.31767,286.927443 C1403.64247,315 1404.80589,315 1407.62403,315 L1430.64403,315 C1433.53437,315 1434.733,315 1445.23602,286.850388 L1445.62754,285.82574 L1455.52126,281.817727 L1456.46279,282.202412 C1472.73945,289.103793 1482.24634,292.58654 1484.70994,292.58654 C1485.70724,292.58654 1486.89178,292.148329 1487.5721,291.473073 L1503.90922,275.462786 C1505.96427,273.407018 1506.82069,272.566477 1493.94154,245.407986 L1493.46255,244.388043 L1497.49459,234.794459 L1498.45725,234.416245 C1527.18338,223.251571 1527.18338,222.163396 1527.18338,219.267087 L1527.18338,196.683048 C1527.1828,193.783209 1527.1828,192.585629 1498.44199,182.303848 L1498.44199,182.303848 Z M1418.65005,245.10565 C1398.08309,245.10565 1381.35152,228.660094 1381.35152,208.460629 C1381.35152,188.260575 1398.08368,171.836782 1418.65005,171.836782 C1439.20821,171.836782 1455.93685,188.264104 1455.93685,208.460629 C1455.93744,228.656565 1439.2088,245.10565 1418.65005,245.10565 L1418.65005,245.10565 Z" id="Cog" fill="#3498DB"></path>
        <g id="Group" transform="translate(160.607452, 171.082325) rotate(16.000000) translate(-160.607452, -171.082325) translate(-5.892548, 20.582325)" fill="#3498DB">
            <path d="M322.014822,0.690685379 L11.3845006,0.690685379 C5.56706774,0.690685379 0.85464983,5.39288318 0.85464983,11.1983777 L0.85464983,216.109367 C0.85464983,221.914861 5.56706774,226.617608 11.3845006,226.617608 L322.015373,226.617608 C327.832806,226.617608 332.545224,221.914861 332.545224,216.109367 L332.545224,11.1983777 C332.545224,5.39288318 327.832806,0.690685379 322.014822,0.690685379 L322.014822,0.690685379 Z M306.220321,210.855521 L279.89597,210.855521 L279.89597,200.347279 L306.220321,200.347279 L306.220321,210.855521 L306.220321,210.855521 Z M306.220321,189.839037 L27.1790014,189.839037 L27.1790014,26.961015 L306.219771,26.961015 L306.219771,189.839037 L306.220321,189.839037 Z" id="Shape"></path>
            <polygon id="Shape" points="85.0934558 284.412663 85.0934558 300.175301 258.835718 300.175301 258.835718 284.412663 227.246716 263.39618 116.683008 263.39618"></polygon>
            <rect id="Rectangle-path" x="116.683008" y="237.12585" width="110.563158" height="15.7626374"></rect>
            <polygon id="Shape" points="94.1174691 37.4692568 37.7094027 76.812114 37.7094027 94.9654107 120.14726 37.4692568"></polygon>
            <polygon id="Shape" points="295.690471 37.4692568 143.565648 37.4692568 37.7094027 111.300026 37.7094027 179.330246 295.690471 179.330246"></polygon>
        </g>
        <g id="Coffee" transform="translate(1676.284282, 466.206469) rotate(15.000000) translate(-1676.284282, -466.206469) translate(1520.284282, 287.706469)" fill="#3498DB">
            <path d="M211.605545,77.9678846 L11.6769737,77.9678846 C5.54305406,77.9678846 0.569830845,82.9491034 0.569830845,89.0928846 L0.569830845,333.842885 C0.569830845,346.130447 10.5148889,356.092885 22.7841166,356.092885 L200.498402,356.092885 C212.76763,356.092885 222.712688,346.130447 222.712688,333.842885 L222.712688,89.0928846 C222.712688,82.9491034 217.739465,77.9678846 211.605545,77.9678846 L211.605545,77.9678846 Z" id="Shape"></path>
            <path d="M111.641259,55.7178846 C117.780733,55.7178846 122.748402,50.7366659 122.748402,44.5928846 L122.748402,11.2178846 C122.748402,5.0741034 117.780733,0.0928846462 111.641259,0.0928846462 C105.501786,0.0928846462 100.534117,5.0741034 100.534117,11.2178846 L100.534117,44.5928846 C100.534117,50.7366659 105.501786,55.7178846 111.641259,55.7178846 L111.641259,55.7178846 Z" id="Shape"></path>
            <path d="M156.069831,55.7178846 C162.209304,55.7178846 167.176974,50.7366659 167.176974,44.5928846 L167.176974,33.4678846 C167.176974,27.3241034 162.209304,22.3428846 156.069831,22.3428846 C149.930358,22.3428846 144.962688,27.3241034 144.962688,33.4678846 L144.962688,44.5928846 C144.962688,50.7366659 149.930358,55.7178846 156.069831,55.7178846 L156.069831,55.7178846 Z" id="Shape"></path>
            <path d="M67.212688,55.7178846 C73.3521612,55.7178846 78.3198308,50.7366659 78.3198308,44.5928846 L78.3198308,33.4678846 C78.3198308,27.3241034 73.3521612,22.3428846 67.212688,22.3428846 C61.0732148,22.3428846 56.1055451,27.3241034 56.1055451,33.4678846 L56.1055451,44.5928846 C56.1055451,50.7366659 61.0732148,55.7178846 67.212688,55.7178846 L67.212688,55.7178846 Z" id="Shape"></path>
            <path d="M244.926974,122.467885 L244.926974,166.967885 C257.173293,166.967885 267.141259,176.94701 267.141259,189.217885 L267.141259,233.717885 C267.141259,245.98876 257.173293,255.967885 244.926974,255.967885 L244.926974,300.467885 C281.676344,300.467885 311.569831,270.525642 311.569831,233.717885 L311.569831,189.217885 C311.569831,152.410127 281.676344,122.467885 244.926974,122.467885 L244.926974,122.467885 Z" id="Shape"></path>
        </g>
        <g id="animal" transform="translate(1083.000000, 167.500000) rotate(17.000000) translate(-1083.000000, -167.500000) translate(885.000000, 18.000000)" fill="#3498DB">
            <path d="M388.582354,55.471388 L370.291429,51.0990997 C346.044812,47.9127152 343.558667,35.234083 343.558667,35.234083 C339.150953,15.7678663 322.07462,1.20416558 300.989294,1.20416558 C272.272977,1.20416558 220.842943,26.8123266 234.025878,119.189042 C234.025878,119.189042 238.296218,138.258842 230.586487,135.539125 C218.132307,133.215824 204.966125,132.058356 191.221964,132.37783 C170.716292,132.87126 151.4939,136.626343 134.474527,142.609386 C105.848676,152.708803 55.073684,170.47227 13.5011147,152.78909 C9.84393487,151.240223 5.76290409,152.32075 3.29853781,155.4787 C0.824119721,158.61825 0.559422323,163.139404 2.59658711,166.718859 C21.1689628,199.074461 54.2125798,242.297223 96.3564263,270.89607 C121.00344,287.632533 155.79607,299.586911 195.306345,298.63016 C256.667558,297.114745 304.798926,266.811476 318.390635,229.663753 C326.524217,207.350698 334.734862,170.412055 300.985944,124.705418 C293.14554,114.137661 296.228092,98.8731229 323.568987,83.9431134 C332.102966,79.2864759 344.386265,72.4821651 388.434928,68.076424 C394.707251,67.4525282 401.671473,60.1915859 388.582354,55.471388 L388.582354,55.471388 Z" id="Shape"></path>
        </g>
        <g id="c64_mouse" transform="translate(734.781016, 425.562527)" fill="#3498DB">
            <path d="M177.554701,148.136048 C177.142399,147.66052 165.084864,132.910014 178.874067,120.564581 L194.24834,106.774276 C194.24834,106.774276 210.135701,95.8097025 221.47858,108.456912 L235.74422,95.6999653 L229.642154,88.9236944 C204.565046,60.9772927 161.511582,58.6911015 133.520875,83.7477575 L107.371783,107.18579 L159.001123,164.624059 L177.554701,148.136048 L177.554701,148.136048 Z" id="Shape"></path>
            <path d="M28.0174408,178.268048 C0.0358959811,203.333849 -10.4823795,253.620911 14.6313776,281.558168 L34.1195066,303.231261 C59.2149392,331.131939 110.44114,326.129753 138.431847,301.073097 L212.325481,234.855854 L101.837777,112.142253 L28.0174408,178.268048 L28.0174408,178.268048 Z" id="Shape"></path>
            <path d="M226.655257,143.755705 L212.19721,156.722982 C212.19721,156.722982 196.465608,169.169007 184.307287,155.671334 L184.307287,155.771926 L165.900305,172.305661 L217.758702,230.009128 L243.953606,206.552806 C271.907664,181.487005 274.253203,138.534044 249.148608,110.605932 L243.046542,103.857096 L228.542683,116.815228 C228.551845,116.787793 240.224566,131.611457 226.655257,143.755705 L226.655257,143.755705 Z" id="Shape"></path>
            <path d="M290.745272,6.15442682 C270.835679,-2.93546955 252.822674,-1.90211111 242.533455,8.91614583 C231.886908,19.999601 235.451028,35.1982003 251.54912,48.3758066 C271.77023,65.0467131 268.096163,75.0145069 264.59618,80.071562 C264.59618,80.071562 260.106672,88.2652714 245.337107,92.9199567 C243.394708,93.3589054 236.358092,94.0447628 235.689247,95.9377292 L243.055704,103.829661 C244.026904,103.546174 261.389388,96.0657559 271.257143,81.6718958 C279.787208,69.3173184 275.508432,56.3317521 258.081812,42.0659188 C242.331886,29.1900897 241.974557,16.3965636 246.720609,11.4218114 C250.98106,6.98660043 264.577855,3.65790598 284.78064,12.8758291 C286.090844,13.4336597 288.463869,12.4368803 290.113076,10.5530588 C291.70731,8.7423953 292.009664,6.72140224 290.745272,6.15442682 L290.745272,6.15442682 Z" id="Shape"></path>
            <path d="M203.502224,115.781869 L188.421142,129.306976 C183.840012,133.394686 183.455197,140.436155 187.578214,145.026827 C191.673745,149.608355 198.747011,149.974145 203.309816,145.886435 L218.418385,132.352183 C222.990353,128.264473 223.366006,121.223004 219.25215,116.650622 C215.138295,112.050805 208.101679,111.666725 203.502224,115.781869 L203.502224,115.781869 Z" id="Shape"></path>
        </g>
        <g id="database" transform="translate(189.858569, 634.138631) rotate(14.000000) translate(-189.858569, -634.138631) translate(53.349795, 469.504933)" fill="#3498DB">
            <g id="Group" transform="translate(1.371947, 0.000000)">
                <path d="M135.823883,1.55972371e-13 C208.064297,1.55972371e-13 269.151007,29.8496058 271.218111,65.5816169 C269.151007,101.310379 208.064297,131.167566 135.823883,131.167566 C63.5813045,131.167566 2.50000534,101.316877 0.429654597,65.5816169 C2.50000534,29.8496058 63.5813045,1.55972371e-13 135.823883,1.55972371e-13 L135.823883,1.55972371e-13 Z" id="Shape"></path>
                <path d="M271.412917,260.753783 C271.412917,297.305713 209.325122,328.186446 135.823883,328.186446 C62.3226439,328.186446 0.234848986,297.305713 0.234848986,260.753783 L0.234848986,228.508323 C23.448102,256.402904 74.7880384,275.374771 135.823883,275.374771 C196.859728,275.374771 248.198582,256.397488 271.412917,228.508323 L271.412917,260.753783 L271.412917,260.753783 Z" id="Shape"></path>
                <path d="M271.412917,194.623026 C271.412917,231.173873 209.325122,262.055689 135.823883,262.055689 C62.3226439,262.055689 0.234848986,231.173873 0.234848986,194.623026 L0.234848986,161.036668 C23.448102,188.92475 74.7880384,207.891202 135.823883,207.891202 C196.859728,207.891202 248.198582,188.912836 271.412917,161.036668 L271.412917,194.623026 L271.412917,194.623026 Z" id="Shape"></path>
                <path d="M271.412917,127.13729 C271.412917,163.690303 209.325122,194.56887 135.823883,194.56887 C62.3226439,194.56887 0.234848986,163.68922 0.234848986,127.13729 L0.234848986,97.6266997 C23.448102,125.52128 74.7880384,144.48015 135.823883,144.48015 C196.859728,144.48015 248.198582,125.514782 271.412917,97.6266997 L271.412917,127.13729 L271.412917,127.13729 Z" id="Shape"></path>
            </g>
        </g>
        <g id="Group" transform="translate(2050.258820, 190.271496) rotate(-12.000000) translate(-2050.258820, -190.271496) translate(1874.758820, 39.271496)" fill="#3498DB">
            <path d="M325.892843,0.182389482 L25.0835302,0.182389482 C11.2097254,0.182389482 1.13686838e-12,11.3980934 1.13686838e-12,25.3050512 L1.13686838e-12,276.106733 C1.13686838e-12,289.93643 11.2097254,301.177887 25.0835302,301.177887 L325.892843,301.177887 C339.689428,301.177887 350.950633,289.93643 350.950633,276.106733 L350.950633,25.3050512 C350.963503,11.3980934 339.702298,0.182389482 325.892843,0.182389482 L325.892843,0.182389482 Z M119.870703,19.0211665 C126.781865,19.0211665 132.393163,24.6354569 132.393163,31.576059 C132.393163,38.4909074 126.781865,44.1051978 119.870703,44.1051978 C112.95954,44.1051978 107.335373,38.4909074 107.335373,31.576059 C107.335373,24.6225801 112.95954,19.0211665 119.870703,19.0211665 L119.870703,19.0211665 Z M81.4667758,19.0211665 C88.3779382,19.0211665 94.0407157,24.6354569 94.0407157,31.576059 C94.0407157,38.4909074 88.3908082,44.1051978 81.4667758,44.1051978 C74.5427433,44.1051978 68.9443156,38.4909074 68.9443156,31.576059 C68.9443156,24.6225801 74.5556133,19.0211665 81.4667758,19.0211665 L81.4667758,19.0211665 Z M43.8350455,19.0211665 C50.7719479,19.0211665 56.3832456,24.6354569 56.3832456,31.576059 C56.3832456,38.4909074 50.7719479,44.1051978 43.8350455,44.1051978 C36.9753628,44.1051978 31.3383253,38.4909074 31.3383253,31.576059 C31.3511952,24.6225801 36.9753628,19.0211665 43.8350455,19.0211665 L43.8350455,19.0211665 Z M325.892843,276.106733 L25.0835302,276.106733 L25.0835302,63.1628806 L325.892843,63.1628806 C325.892843,63.1628806 325.892843,276.106733 325.892843,276.106733 L325.892843,276.106733 Z" id="Shape"></path>
            <rect id="Rectangle-path" x="13" y="62" width="319" height="219"></rect>
        </g>
        <g id="technology-2" transform="translate(1653.606262, 973.281263) rotate(-35.000000) translate(-1653.606262, -973.281263) translate(1504.606262, 803.281263)" fill="#3498DB">
            <path d="M276.481721,106.699366 C264.813864,106.699366 255.267435,116.243225 255.267435,127.907943 L255.267435,212.742251 C255.267435,224.407631 264.813864,233.950828 276.481721,233.950828 C288.149578,233.950828 297.696007,224.407631 297.696007,212.742251 L297.696007,127.907943 C297.696007,116.243225 288.149578,106.699366 276.481721,106.699366 L276.481721,106.699366 Z M21.9102924,106.699366 C10.2424352,106.699366 0.69600666,116.243225 0.69600666,127.907943 L0.69600666,212.742251 C0.69600666,224.407631 10.2424352,233.950828 21.9102924,233.950828 C33.5781495,233.950828 43.1245781,224.407631 43.1245781,212.742251 L43.1245781,127.907943 C43.1245781,116.243225 33.5774866,106.699366 21.9102924,106.699366 L21.9102924,106.699366 Z M53.7317209,244.555116 C53.7317209,262.125097 67.9784397,276.367982 85.5531495,276.367982 L96.1602924,276.367982 L96.1602924,318.785136 C96.1602924,330.449853 105.706721,339.993713 117.374578,339.993713 C129.042435,339.993713 138.588864,330.449853 138.588864,318.785136 L138.588864,276.367982 L159.80315,276.367982 L159.80315,318.785136 C159.80315,330.449853 169.349578,339.993713 181.017435,339.993713 C192.685292,339.993713 202.231721,330.449853 202.231721,318.785136 L202.231721,276.367982 L212.838864,276.367982 C230.413574,276.367982 244.660292,262.125097 244.660292,244.555116 L244.660292,127.907943 L53.7317209,127.907943 L53.7317209,244.555116 L53.7317209,244.555116 Z M188.508067,30.3133616 L201.934058,4.52969692 C202.608937,3.23663649 202.099795,1.62743571 200.806386,0.954063389 C199.514304,0.28069107 197.903344,0.788371382 197.22979,2.08143181 L183.600275,28.2561297 C172.9275,24.1310614 161.327263,21.8650575 149.196007,21.8650575 C137.065413,21.8650575 125.465176,24.1310614 114.790413,28.2561297 L101.16156,2.08209458 C100.488007,0.78903415 98.8790357,0.281353838 97.5849642,0.954726157 C96.2908928,1.62809848 95.7837388,3.23663649 96.4572924,4.53035969 L109.881958,30.3146872 C79.8405401,43.9073967 58.0925826,72.5939854 54.3204174,106.700028 L244.068281,106.700028 C240.298105,72.5926599 218.550147,43.906734 188.508067,30.3133616 L188.508067,30.3133616 Z M106.767435,90.2627184 C98.2731026,90.2627184 91.3870781,83.3785468 91.3870781,74.8865 C91.3870781,66.3944533 98.2731026,59.5102817 106.767435,59.5102817 C115.261768,59.5102817 122.147792,66.3944533 122.147792,74.8865 C122.147129,83.3785468 115.261768,90.2627184 106.767435,90.2627184 L106.767435,90.2627184 Z M191.624578,90.2627184 C183.130908,90.2627184 176.243558,83.3785468 176.243558,74.8865 C176.243558,66.3944533 183.130908,59.5102817 191.624578,59.5102817 C200.118248,59.5102817 207.004272,66.3944533 207.004272,74.8865 C207.004272,83.3785468 200.118248,90.2627184 191.624578,90.2627184 L191.624578,90.2627184 Z" id="Android"></path>
        </g>
        <g id="parrot" transform="translate(1914.000000, 1037.000000)">
            <path d="M233.46697,169.733542 C232.081093,168.188088 230.055581,165.949843 227.443736,163.338558 C212.998633,148.949843 199.512984,141.329154 192.95672,137.38558 C182.829157,131.310345 168.810478,121.824451 152.446469,106.84953 C153.139408,102.959248 153.672437,98.5360502 153.885649,93.6865204 C154.205467,85.3197492 153.405923,77.9655172 152.28656,72.0501567 C151.593622,69.5454545 150.154442,65.6551724 147.116173,61.7115987 C143.225057,56.6489028 138.641002,54.0376176 136.08246,52.8119122 C135.869248,51.6394984 135.602733,50.4670846 135.389522,49.2413793 C134.216856,43.4858934 132.990888,37.7836991 131.658314,32.2413793 C128.88656,27.338558 119.771754,12.630094 100.902506,4.84952978 C97.8109339,3.57053292 76.5963554,-4.84952978 53.9958998,4.47648903 C42.3225513,9.37931034 34.9667426,17 31.9817768,20.1974922 C25.6920273,26.8589342 22.3872437,33.1473354 17.7498861,41.8338558 C14.1785877,48.6018809 10.3940774,56.9153605 7.08929385,66.7210031 C6.07653759,67.30721 3.89111617,68.69279 2.29202733,71.4106583 C0.479726651,74.5015674 0.479726651,77.4326019 0.533029613,78.6050157 C0.479726651,83.2946708 0.799544419,88.8902821 1.86560364,95.1253918 C2.71845103,99.9749216 3.83781321,104.238245 5.06378132,107.915361 C6.34305239,110.793103 7.72892938,112.76489 8.79498861,114.043887 C9.48792711,114.896552 10.0209567,115.429467 10.6605923,116.442006 C11.8865604,118.413793 12.2596811,120.38558 12.41959,121.77116 C12.7927107,129.178683 12.8993166,137.278997 12.5794989,145.965517 C12.2596811,154.492163 11.5667426,162.432602 10.6072893,169.733542 L233.46697,169.733542 L233.46697,169.733542 Z" id="Shape" stroke="#3498DB" stroke-width="14" fill="#2F312E"></path>
            <path d="M12.1530752,127.153605 C23.8264237,138.984326 35.0200456,145.912226 41.1498861,148.203762 C45.8938497,149.962382 51.0642369,151.081505 51.0642369,151.081505 C54.0492027,151.721003 56.7143508,152.094044 58.7931663,152.360502 C61.0318907,152.360502 65.1362187,152.626959 69.1872437,155.025078 C70.5198178,155.824451 71.585877,156.677116 72.4387244,157.476489" id="Shape" stroke="#3498DB" stroke-width="12"></path>
            <ellipse id="Oval" fill="#3498DB" cx="53.8359909" cy="40.661442" rx="5.33029613" ry="11.1912226"></ellipse>
            <ellipse id="Oval" fill="#3498DB" cx="119.398633" cy="40.661442" rx="5.33029613" ry="11.1912226"></ellipse>
            <path d="M91.5211845,112.871473 C91.0414579,112.711599 90.6150342,112.551724 90.1353075,112.39185 C88.9626424,111.858934 87.8965831,111.166144 86.9904328,110.31348 C84.6984055,107.222571 82.5129841,103.918495 80.6473804,100.561129 C77.9822323,95.8714734 75.690205,90.862069 73.8779043,85.7460815 C72.918451,79.2445141 72.3854214,72.6363636 72.1722096,66.1880878 C72.1189066,63.7366771 72.1189066,62.8840125 72.1722096,60.8056426 C72.2255125,59.1003135 72.2788155,56.4890282 72.3321185,51.5862069 C72.3321185,50.2539185 72.3854214,48.015674 72.8118451,45.137931 C72.918451,44.3918495 73.0783599,43.5924765 73.2382688,42.846395 C73.5580866,42.6332288 73.9312073,42.4200627 74.304328,42.2601881 C75.2104784,41.8871473 76.0100228,41.8338558 76.5963554,41.7805643 C79.4747153,41.6206897 82.61959,41.5141066 85.6578588,41.4075235 L101.222323,41.4075235 C102.821412,42.7398119 104.207289,44.2852665 105.379954,45.9905956 C106.446014,47.6426332 107.298861,49.4012539 107.938497,51.2664577 C108.205011,53.6645768 108.36492,56.0094044 108.418223,58.3009404 L108.418223,60.7523511 C108.418223,61.5517241 108.36492,62.2978056 108.418223,63.8965517 C108.471526,64.9090909 108.524829,65.7617555 108.578132,66.4545455 C108.684738,67.7868339 108.738041,68.5329154 108.631435,69.7586207 C108.524829,70.8244514 108.36492,71.8902821 108.098405,72.9561129 C106.339408,76.4733542 104.740319,80.0438871 103.354442,83.6144201 C102.341686,86.2789969 101.488838,88.3573668 100.742597,91.2884013 C100.316173,92.9937304 100.102961,94.0595611 99.9430524,95.0721003 C99.7831435,95.9780564 99.6232346,96.8840125 99.3034169,98.2163009 L99.1968109,98.6959248 C98.8236902,100.347962 98.1840547,103.065831 97.0646925,105.357367 C95.6255125,108.181818 93.7599089,110.68652 91.5211845,112.871473 L91.5211845,112.871473 Z" id="Shape" stroke="#3498DB" stroke-width="12" fill="#3498DB"></path>
        </g>
        <g id="keyboard" transform="translate(1136.216964, 994.812049) rotate(-13.000000) translate(-1136.216964, -994.812049) translate(989.716964, 856.312049)" fill="#3498DB">
            <g id="Group">
                <ellipse id="Oval" cx="53.289002" cy="148.902361" rx="9.13014257" ry="9.09463519"></ellipse>
                <path d="M90.7046843,157.996996 L90.7046843,157.996996 C95.7769857,157.996996 99.8348269,153.895494 99.8348269,148.902361 C99.8348269,143.849785 95.7173116,139.807725 90.7046843,139.807725 L90.7046843,139.807725 C85.6323829,139.807725 81.5745418,143.909227 81.5745418,148.902361 C81.5745418,153.954936 85.6323829,157.996996 90.7046843,157.996996 L90.7046843,157.996996 Z" id="Shape"></path>
                <ellipse id="Oval" cx="128.060692" cy="148.902361" rx="9.13014257" ry="9.09463519"></ellipse>
                <ellipse id="Oval" cx="165.476375" cy="148.902361" rx="9.13014257" ry="9.09463519"></ellipse>
                <ellipse id="Oval" cx="202.892057" cy="148.902361" rx="9.13014257" ry="9.09463519"></ellipse>
                <ellipse id="Oval" cx="240.307739" cy="148.902361" rx="9.13014257" ry="9.09463519"></ellipse>
                <ellipse id="Oval" cx="72.0266802" cy="187.5397" rx="9.13014257" ry="9.09463519"></ellipse>
                <ellipse id="Oval" cx="109.382688" cy="187.5397" rx="9.13014257" ry="9.09463519"></ellipse>
                <ellipse id="Oval" cx="146.798371" cy="187.5397" rx="9.13014257" ry="9.09463519"></ellipse>
                <ellipse id="Oval" cx="184.154379" cy="187.5397" rx="9.13014257" ry="9.09463519"></ellipse>
                <ellipse id="Oval" cx="221.570061" cy="187.5397" rx="9.13014257" ry="9.09463519"></ellipse>
                <path d="M74.2942974,226.117597 C74.2942974,230.159657 77.5763747,233.42897 81.6342159,233.42897 L212.081874,233.42897 C216.139715,233.42897 219.421792,230.159657 219.421792,226.117597 C219.421792,222.075536 216.139715,218.806223 212.081874,218.806223 L81.5745418,218.806223 C77.5167006,218.865665 74.2942974,222.075536 74.2942974,226.117597 L74.2942974,226.117597 Z" id="Shape"></path>
                <path d="M170.906721,59.382618 L213.215682,59.382618 C229.506721,59.382618 242.814053,46.1864807 242.814053,29.8993562 C242.814053,13.6122318 229.566395,0.416094421 213.215682,0.416094421 L69.699389,0.475536481 C65.6415479,0.475536481 62.4191446,3.74484979 62.4191446,7.78690987 C62.4191446,11.82897 65.701222,15.0388412 69.7590631,15.0388412 L69.7590631,15.0388412 L213.275356,14.9793991 C221.510387,14.9793991 228.253564,21.6369099 228.253564,29.8993562 C228.253564,38.1618026 221.570061,44.8193133 213.275356,44.8193133 L170.966395,44.8193133 C153.302851,44.8193133 138.921385,59.1448498 138.921385,76.7396996 L138.921385,98.5549356 L17.4845214,98.5549356 C8.17535642,98.5549356 0.596741344,105.687983 0.596741344,114.425966 L0.596741344,260.653433 C0.596741344,269.391416 8.17535642,276.524464 17.4845214,276.524464 L276.11222,276.524464 C285.421385,276.524464 293,269.391416 293,260.653433 L293,114.425966 C293,105.687983 285.421385,98.5549356 276.11222,98.5549356 L153.541548,98.5549356 L153.541548,76.7396996 C153.541548,67.1695279 161.299185,59.382618 170.906721,59.382618 L170.906721,59.382618 Z M278.379837,114.425966 L278.379837,260.653433 C278.379837,261.188412 277.484725,261.961159 276.11222,261.961159 L17.4845214,261.961159 C16.1120163,261.961159 15.2169043,261.188412 15.2169043,260.653433 L15.2169043,114.425966 C15.2169043,113.890987 16.1120163,113.11824 17.4845214,113.11824 L276.11222,113.11824 C277.544399,113.058798 278.379837,113.950429 278.379837,114.425966 L278.379837,114.425966 Z" id="Shape"></path>
            </g>
        </g>
        <g id="pizza" transform="translate(514.000000, 485.500000) rotate(-27.000000) translate(-514.000000, -485.500000) translate(384.000000, 320.000000)" fill="#3498DB">
            <g id="XMLID_91_">
                <path d="M258.703,43.654 C261.873,36 258.238,27.226 250.585,24.055 C212.047,8.093 171.452,0 129.922,0 C88.549,0 48.032,8.094 9.495,24.057 C1.842,27.227 -1.793,36.001 1.377,43.655 L116.182,320.819 C118.504,326.424 123.973,330.079 130.04,330.079 C136.107,330.079 141.576,326.424 143.898,320.819 L237.096,95.818 C237.114,95.775 237.131,95.731 237.15,95.688 L258.703,43.654 L258.703,43.654 Z M129.922,30 C162.497,30 194.443,35.507 225.098,46.389 L214.638,71.641 C158.963,56.033 101.001,56.03 45.435,71.629 L34.98,46.388 C65.615,35.507 97.485,30 129.922,30 L129.922,30 Z M130.04,275.882 L108.876,224.786 C120.861,222.94 130.04,212.581 130.04,200.079 C130.04,186.272 118.847,175.079 105.04,175.079 C99.52,175.079 94.42,176.872 90.284,179.902 L57.005,99.562 C105.032,86.729 154.943,86.733 203.068,99.576 L183.596,146.584 C180.927,145.611 178.045,145.08 175.039,145.08 C161.232,145.08 150.039,156.273 150.039,170.08 C150.039,180.111 155.951,188.758 164.478,192.74 L130.04,275.882 L130.04,275.882 Z" id="XMLID_92_"></path>
                <circle id="XMLID_104_" cx="120.04" cy="130.079" r="25"></circle>
            </g>
        </g>
        <g id="networking-cable" transform="translate(69.033724, 878.000000)" fill="#3498DB">
            <path d="M253.861381,90.7018871 L253.861381,30.0760238 L238.902338,30.0760238 L169.40935,0 L165.528573,8.97993808 L214.21879,30.0760238 L153.999054,30.0760238 L153.999054,41.2671024 C114.379026,42.1244834 58.6492596,45.8924474 45.0214139,86.6180459 C34.1913378,118.882648 71.6002256,152.230257 90.8687359,172.604337 C116.341977,199.453901 155.036937,230.139117 163.72356,267.999258 C174.734138,316.012595 43.3969025,320.660502 19.9543003,322.75883 C4.61169252,324.112589 -9.64790765,356.151564 9.82366663,354.436802 C64.2447989,349.608393 150.434154,346.381933 184.729395,294.826258 C206.818238,261.636588 185.270899,225.829649 163.475371,199.228274 C137.302687,167.27955 103.413574,140.723301 80.8057902,105.976807 C74.6913098,96.5456157 71.1264097,87.6333656 75.1651256,85.2417238 C96.8704031,72.3133204 128.75144,73.0127629 153.976492,72.742011 L153.976492,90.7244498 L253.861381,90.7244498 L253.861381,90.7018871 L253.861381,90.7018871 Z" id="Shape"></path>
        </g>
        <g id="binary-code" transform="translate(2102.462139, 648.407472) rotate(-25.000000) translate(-2102.462139, -648.407472) translate(1944.462139, 493.407472)" fill="#3498DB">
            <path d="M93.4970323,0.720464461 C91.9259883,0.766055544 90.4325723,1.41049166 89.3211356,2.52069614 L70.8382641,21.0035676 C68.404686,23.3816971 68.359095,27.2828151 70.7372244,29.7163932 C73.1153539,32.1499713 77.016472,32.1955624 79.45005,29.8174329 C79.4845514,29.7841637 79.5190527,29.7496624 79.5523219,29.715161 L87.5159751,21.7515078 L87.5159751,74.6470216 L75.1940608,74.6470216 C71.7919803,74.5989661 68.9936735,77.3184126 68.9456181,80.7204931 C68.8975626,84.1225737 71.6170091,86.9208804 75.0190896,86.9689359 C75.0770026,86.9701681 75.1349156,86.9701681 75.1928286,86.9689359 L92.6677675,86.9689359 C93.3269899,87.0773687 93.9985343,87.0773687 94.6577567,86.9689359 L105.997614,86.9689359 C109.399695,87.0169913 112.198002,84.2975448 112.246057,80.8954643 C112.294113,77.4933838 109.574666,74.695077 106.172586,74.6470216 C106.114673,74.6457894 106.05676,74.6457894 105.998847,74.6470216 L99.8378894,74.6470216 L99.8378894,6.87649285 C99.8366573,3.47318012 97.0765484,0.716767886 93.6732357,0.718000078 C93.6153227,0.718000078 93.5561775,0.719232269 93.4970323,0.720464461 L93.4970323,0.720464461 Z M161.443764,0.720464461 C159.87272,0.766055544 158.379304,1.41049166 157.267868,2.52069614 L138.784996,21.0035676 C136.330471,23.3607498 136.250378,27.2606357 138.607561,29.715161 C140.964743,32.1696864 144.864629,32.2497788 147.319154,29.8925966 C147.379531,29.8346836 147.438677,29.7755384 147.49659,29.715161 L155.462707,21.7490434 L155.462707,74.6470216 L143.140793,74.6470216 C139.738712,74.5989661 136.940406,77.3184126 136.89235,80.7204931 C136.844295,84.1225737 139.563741,86.9208804 142.965822,86.9689359 C143.023735,86.9701681 143.081648,86.9701681 143.139561,86.9689359 L160.6145,86.9689359 C161.276186,87.0773687 161.950195,87.0773687 162.611882,86.9689359 L173.944346,86.9689359 C177.346427,87.0169913 180.144734,84.2975448 180.192789,80.8954643 C180.240845,77.4933838 177.521398,74.695077 174.119318,74.6470216 C174.061405,74.6457894 174.003492,74.6457894 173.945579,74.6470216 L167.784622,74.6470216 L167.784622,6.87649285 C167.783389,3.47318012 165.023281,0.716767886 161.619968,0.718000078 C161.562055,0.718000078 161.50291,0.719232269 161.443764,0.720464461 L161.443764,0.720464461 Z M22.6509538,0.762358969 C10.8108264,0.762358969 1.08760378,10.4855816 1.08760378,22.325709 L1.08760378,65.4524091 C1.08760378,77.2925366 10.8108264,87.0157591 22.6509538,87.0157591 C34.4910813,87.0157591 44.2143039,77.2925366 44.2143039,65.4524091 L44.2143039,22.325709 C44.2143039,10.4855816 34.4910813,0.762358969 22.6509538,0.762358969 L22.6509538,0.762358969 Z M226.489918,0.762358969 C214.64979,0.762358969 204.926568,10.4855816 204.926568,22.325709 L204.926568,65.4524091 C204.926568,77.2925366 214.64979,87.0157591 226.489918,87.0157591 C238.330045,87.0157591 248.053268,77.2925366 248.053268,65.4524091 L248.053268,22.325709 C248.053268,10.4855816 238.328813,0.762358969 226.489918,0.762358969 L226.489918,0.762358969 Z M294.43665,0.762358969 C282.596522,0.762358969 272.8733,10.4855816 272.8733,22.325709 L272.8733,65.4524091 C272.8733,77.2925366 282.596522,87.0157591 294.43665,87.0157591 C306.276777,87.0157591 316,77.2925366 316,65.4524091 L316,22.325709 C316,10.4855816 306.275545,0.762358969 294.43665,0.762358969 L294.43665,0.762358969 Z M22.6509538,13.0842733 C27.8766777,13.0842733 31.8923896,17.0999852 31.8923896,22.325709 L31.8923896,65.4524091 C31.8923896,70.678133 27.8766777,74.6938448 22.6509538,74.6938448 C17.42523,74.6938448 13.4095181,70.678133 13.4095181,65.4524091 L13.4095181,22.325709 C13.4095181,17.098753 17.42523,13.0842733 22.6509538,13.0842733 L22.6509538,13.0842733 Z M226.489918,13.0842733 C231.715642,13.0842733 235.731354,17.0999852 235.731354,22.325709 L235.731354,65.4524091 C235.731354,70.678133 231.715642,74.6938448 226.489918,74.6938448 C221.264194,74.6938448 217.248482,70.678133 217.248482,65.4524091 L217.248482,22.325709 C217.248482,17.098753 221.262962,13.0842733 226.489918,13.0842733 L226.489918,13.0842733 Z M294.43665,13.0842733 C299.662374,13.0842733 303.678086,17.0999852 303.678086,22.325709 L303.678086,65.4524091 C303.678086,70.678133 299.662374,74.6938448 294.43665,74.6938448 C289.210926,74.6938448 285.195214,70.678133 285.195214,65.4524091 L285.195214,22.325709 C285.195214,17.098753 289.209694,13.0842733 294.43665,13.0842733 L294.43665,13.0842733 Z M25.5515325,111.705179 C23.9804884,111.75077 22.4870724,112.395206 21.3756357,113.505411 L2.89276423,131.988282 C0.487526554,134.395984 0.491223128,138.298334 2.89892518,140.70234 C5.30416286,143.105113 9.20158435,143.105113 11.606822,140.70234 L19.5704752,132.738687 L19.5704752,185.6342 L7.24856094,185.6342 C3.84648039,185.586145 1.04817365,188.305591 1.00011819,191.707672 C0.952062723,195.109752 3.67150921,197.908059 7.07358975,197.956115 C7.13150275,197.957347 7.18941575,197.957347 7.24732874,197.956115 L24.7222676,197.956115 C25.3839544,198.064547 26.0579631,198.064547 26.7196499,197.956115 L38.0521145,197.956115 C41.4541951,198.00417 44.2525018,195.284724 44.3005573,191.882643 C44.3486127,188.480563 41.6291662,185.682256 38.2270857,185.6342 C38.1691727,185.632968 38.1112597,185.632968 38.0533467,185.6342 L31.8923896,185.6342 L31.8923896,117.863672 C31.8923896,114.460359 29.1335129,111.702714 25.7302002,111.702714 C25.671055,111.702714 25.6106776,111.702714 25.5515325,111.705179 L25.5515325,111.705179 Z M161.443764,111.705179 C159.87272,111.75077 158.379304,112.395206 157.267868,113.505411 L138.784996,131.988282 C136.350186,134.366411 136.304595,138.266297 138.681492,140.701108 C141.059622,143.135918 144.959507,143.181509 147.394318,140.804612 C147.428819,140.771343 147.46332,140.736841 147.49659,140.70234 L155.462707,132.736222 L155.462707,185.6342 L143.140793,185.6342 C139.738712,185.586145 136.940406,188.305591 136.89235,191.707672 C136.844295,195.109752 139.563741,197.908059 142.965822,197.956115 C143.023735,197.957347 143.081648,197.957347 143.139561,197.956115 L160.6145,197.956115 C161.276186,198.064547 161.950195,198.064547 162.611882,197.956115 L173.944346,197.956115 C177.346427,198.00417 180.144734,195.284724 180.192789,191.882643 C180.240845,188.480563 177.521398,185.682256 174.119318,185.6342 C174.061405,185.632968 174.003492,185.632968 173.945579,185.6342 L167.784622,185.6342 L167.784622,117.863672 C167.784622,114.460359 165.025745,111.702714 161.622432,111.702714 C161.563287,111.702714 161.50291,111.702714 161.443764,111.705179 L161.443764,111.705179 Z M229.389264,111.705179 C227.81822,111.75077 226.324804,112.395206 225.213368,113.505411 L206.730496,131.988282 C204.295686,134.366411 204.250095,138.266297 206.626992,140.701108 C209.005121,143.135918 212.905007,143.181509 215.339818,140.804612 C215.374319,140.771343 215.40882,140.736841 215.44209,140.70234 L223.408207,132.736222 L223.408207,185.6342 L211.086293,185.6342 C207.684212,185.586145 204.885906,188.305591 204.83785,191.707672 C204.789795,195.109752 207.509241,197.908059 210.911322,197.956115 C210.969235,197.957347 211.027148,197.957347 211.085061,197.956115 L228.559999,197.956115 C229.221686,198.064547 229.895695,198.064547 230.557382,197.956115 L241.889846,197.956115 C245.291927,198.00417 248.090234,195.284724 248.138289,191.882643 C248.186345,188.480563 245.466898,185.682256 242.064818,185.6342 C242.006905,185.632968 241.948992,185.632968 241.891079,185.6342 L235.730121,185.6342 L235.730121,117.863672 C235.730121,114.460359 232.971245,111.702714 229.567932,111.702714 C229.510019,111.702714 229.449642,111.702714 229.389264,111.705179 L229.389264,111.705179 Z M90.5976859,111.745841 C78.7575584,111.745841 69.0343359,121.469064 69.0343359,133.309191 L69.0343359,176.435891 C69.0343359,188.276019 78.7575584,197.999241 90.5976859,197.999241 C102.437813,197.999241 112.161036,188.276019 112.161036,176.435891 L112.161036,133.309191 C112.161036,121.469064 102.436581,111.745841 90.5976859,111.745841 L90.5976859,111.745841 Z M294.43665,111.745841 C282.596522,111.745841 272.8733,121.469064 272.8733,133.309191 L272.8733,176.435891 C272.8733,188.276019 282.596522,197.999241 294.43665,197.999241 C306.276777,197.999241 316,188.276019 316,176.435891 L316,133.309191 C316,121.469064 306.275545,111.745841 294.43665,111.745841 L294.43665,111.745841 Z M90.5976859,124.067755 C95.8234098,124.067755 99.8391216,128.083467 99.8391216,133.309191 L99.8391216,176.435891 C99.8391216,181.661615 95.8234098,185.677327 90.5976859,185.677327 C85.371962,185.677327 81.3562502,181.661615 81.3562502,176.435891 L81.3562502,133.309191 C81.3562502,128.082235 85.3707299,124.067755 90.5976859,124.067755 L90.5976859,124.067755 Z M294.43665,124.067755 C299.662374,124.067755 303.678086,128.083467 303.678086,133.309191 L303.678086,176.435891 C303.678086,181.661615 299.662374,185.677327 294.43665,185.677327 C289.210926,185.677327 285.195214,181.661615 285.195214,176.435891 L285.195214,133.309191 C285.195214,128.082235 289.209694,124.067755 294.43665,124.067755 L294.43665,124.067755 Z M25.5515325,222.688661 C23.9804884,222.734252 22.4870724,223.378688 21.3756357,224.488893 L2.89276423,242.971764 C0.486294362,245.378234 0.486294362,249.279352 2.89276423,251.685822 C5.29923409,254.092292 9.20035216,254.092292 11.606822,251.685822 L19.5704752,243.722169 L19.5704752,296.615218 L7.24856094,296.615218 C3.84648039,296.567163 1.04817365,299.286609 1.00011819,302.68869 C0.952062723,306.09077 3.67150921,308.889077 7.07358975,308.937132 C7.13150275,308.938365 7.18941575,308.938365 7.24732874,308.937132 L24.7222676,308.937132 C25.3839544,309.045565 26.0579631,309.045565 26.7196499,308.937132 L38.0521145,308.937132 C41.4541951,308.985188 44.2525018,306.265741 44.3005573,302.863661 C44.3486127,299.46158 41.6291662,296.663274 38.2270857,296.615218 C38.1691727,296.613986 38.1112597,296.613986 38.0533467,296.615218 L31.8923896,296.615218 L31.8923896,228.844689 C31.8911574,225.441377 29.1310486,222.684964 25.7277358,222.686197 C25.6698228,222.686197 25.6106776,222.687429 25.5515325,222.688661 L25.5515325,222.688661 Z M93.4970323,222.688661 C91.9259883,222.734252 90.4325723,223.378688 89.3211356,224.488893 L70.8382641,242.971764 C68.4317943,245.378234 68.4317943,249.279352 70.8382641,251.685822 C73.244734,254.092292 77.1458521,254.092292 79.5523219,251.685822 L87.5159751,243.722169 L87.5159751,296.615218 L75.1940608,296.615218 C71.7919803,296.567163 68.9936735,299.286609 68.9456181,302.68869 C68.8975626,306.09077 71.6170091,308.889077 75.0190896,308.937132 C75.0770026,308.938365 75.1349156,308.938365 75.1928286,308.937132 L92.6677675,308.937132 C93.3269899,309.045565 93.9985343,309.045565 94.6577567,308.937132 L105.997614,308.937132 C109.399695,308.985188 112.198002,306.265741 112.246057,302.863661 C112.294113,299.46158 109.574666,296.663274 106.172586,296.615218 C106.114673,296.613986 106.05676,296.613986 105.998847,296.615218 L99.8378894,296.615218 L99.8378894,228.844689 C99.8366573,225.441377 97.0765484,222.684964 93.6732357,222.686197 C93.6153227,222.686197 93.5561775,222.687429 93.4970323,222.688661 L93.4970323,222.688661 Z M161.443764,222.688661 C159.87272,222.734252 158.379304,223.378688 157.267868,224.488893 L138.784996,242.971764 C136.350186,245.349894 136.304595,249.24978 138.681492,251.68459 C141.059622,254.1194 144.959507,254.164991 147.394318,251.788094 C147.428819,251.754825 147.46332,251.720323 147.49659,251.685822 L155.462707,243.719704 L155.462707,296.615218 L143.140793,296.615218 C139.738712,296.567163 136.940406,299.286609 136.89235,302.68869 C136.844295,306.09077 139.563741,308.889077 142.965822,308.937132 C143.023735,308.938365 143.081648,308.938365 143.139561,308.937132 L160.6145,308.937132 C161.276186,309.045565 161.950195,309.045565 162.611882,308.937132 L173.944346,308.937132 C177.346427,308.985188 180.144734,306.265741 180.192789,302.863661 C180.240845,299.46158 177.521398,296.663274 174.119318,296.615218 C174.061405,296.613986 174.003492,296.613986 173.945579,296.615218 L167.784622,296.615218 L167.784622,228.844689 C167.783389,225.441377 165.023281,222.684964 161.619968,222.686197 C161.562055,222.686197 161.50291,222.687429 161.443764,222.688661 L161.443764,222.688661 Z M229.389264,222.688661 C227.81822,222.734252 226.324804,223.378688 225.213368,224.488893 L206.730496,242.971764 C204.295686,245.349894 204.250095,249.24978 206.626992,251.68459 C209.005121,254.1194 212.905007,254.164991 215.339818,251.788094 C215.374319,251.754825 215.40882,251.720323 215.44209,251.685822 L223.408207,243.719704 L223.408207,296.615218 L211.086293,296.615218 C207.684212,296.567163 204.885906,299.286609 204.83785,302.68869 C204.789795,306.09077 207.509241,308.889077 210.911322,308.937132 C210.969235,308.938365 211.027148,308.938365 211.085061,308.937132 L228.559999,308.937132 C229.221686,309.045565 229.895695,309.045565 230.557382,308.937132 L241.889846,308.937132 C245.291927,308.985188 248.090234,306.265741 248.138289,302.863661 C248.186345,299.46158 245.466898,296.663274 242.064818,296.615218 C242.006905,296.613986 241.948992,296.613986 241.891079,296.615218 L235.730121,296.615218 L235.730121,228.844689 C235.728889,225.441377 232.96878,222.684964 229.565468,222.686197 C229.507555,222.686197 229.44841,222.687429 229.389264,222.688661 L229.389264,222.688661 Z M294.43665,222.729323 C282.596522,222.729323 272.8733,232.452546 272.8733,244.292673 L272.8733,287.419373 C272.8733,299.259501 282.596522,308.982724 294.43665,308.982724 C306.276777,308.982724 316,299.259501 316,287.419373 L316,244.292673 C316,232.453778 306.275545,222.729323 294.43665,222.729323 L294.43665,222.729323 Z M294.43665,235.051238 C299.662374,235.051238 303.678086,239.06695 303.678086,244.292673 L303.678086,287.419373 C303.678086,292.645097 299.662374,296.660809 294.43665,296.660809 C289.210926,296.660809 285.195214,292.645097 285.195214,287.419373 L285.195214,244.292673 C285.195214,239.06695 289.209694,235.051238 294.43665,235.051238 L294.43665,235.051238 Z" id="rect34754"></path>
        </g>
    </g>
</svg>