<?xml version="1.0" encoding="utf-8"?>
<!-- Generator: Adobe Illustrator 23.0.1, SVG Export Plug-In . SVG Version: 6.00 Build 0)  -->
<svg version="1.1" id="Layer_1" xmlns="http://www.w3.org/2000/svg" xmlns:xlink="http://www.w3.org/1999/xlink" x="0px" y="0px"
	 viewBox="0 0 2158 1214" style="enable-background:new 0 0 2158 1214;" xml:space="preserve">
<style type="text/css">
	.st0{fill-rule:evenodd;clip-rule:evenodd;fill:#231F20;stroke:#979797;stroke-width:2;}
	.st1{fill-rule:evenodd;clip-rule:evenodd;fill:#3498DB;}
	.st2{fill-rule:evenodd;clip-rule:evenodd;fill:#2F312E;stroke:#3498DB;stroke-width:14;}
	.st3{fill:none;stroke:#3498DB;stroke-width:12;}
	.st4{fill-rule:evenodd;clip-rule:evenodd;fill:#3498DB;stroke:#3498DB;stroke-width:12;}
</style>
<title>eventbrite</title>
<desc>Created with Sketch.</desc>
<g id="Rectangle-1">
	<rect x="1" y="1" class="st0" width="2158" height="1214"/>
</g>
<g id="RSS" transform="translate(638.500000, 973.000000) rotate(-31.000000) translate(-638.500000, -973.000000) translate(468.000000, 847.000000)">
	
		<ellipse id="Oval" transform="matrix(-1 2.441463e-06 -2.441463e-06 -1 343.3347 424.216)" class="st1" cx="171.7" cy="212.1" rx="39.7" ry="38.8"/>
	<path id="Shape" class="st1" d="M266.5,118.6c-0.6-0.6-1.2-1.1-1.8-1.7l-1.8-1.6c-0.3-0.3-0.6-0.5-1-0.8
		c-51.3-45.6-129.9-43.8-178.8,4.1l-5.7,5.6l-8,7.8c-9.7,9.5-9.6,24.9,0.1,34.4c9.7,9.5,25.5,9.5,35.2,0.1l13.7-13.4
		c31.1-30.5,81.8-30.5,112.9,0l9.9,9.4c9.6,9.4,25.2,9.4,34.9-0.1c4.7-4.5,7.2-10.6,7.2-17.1c0-6.4-2.5-12.5-7.2-17L266.5,118.6
		L266.5,118.6z"/>
	<path class="st1" d="M334.1,70.6l-8.2-8.1c0,0,0-0.1-0.1-0.1l-6.5-6.4c-1.1-1.1-2.4-2.1-3.7-2.9c-83.6-71.8-210.9-69.6-291.8,6.6
		c-0.4,0.4-0.8,0.6-1.2,1L7.6,75.3c-8.8,8.6-8.8,22.7,0.1,31.3c8.9,8.7,23.2,8.7,32,0.1l14.9-14.5c0.1-0.1,0.2-0.2,0.3-0.3
		c65.5-61.9,169.4-62.3,235.4-1.3L302,102c8.8,8.6,23.2,8.6,32.1-0.1C342.9,93.3,342.9,79.2,334.1,70.6L334.1,70.6z"/>
</g>
<g id="shapes" transform="translate(1240.708698, 608.000000) rotate(-27.000000) translate(-1240.708698, -608.000000) translate(1103.208698, 452.000000)">
	<path class="st1" d="M23,60.5c3.9,25.3,7.8,31.2,7.8,56.5c0,15.6-29.2,29.2-29.2,29.2l0,19.5c0,0,29.2,13.6,29.2,29.2
		c0,25.3-3.9,31.2-7.8,56.5c-5.8,40.9,15.6,60.4,35.1,60.4l40.9,0l0-39c0,0-35.1,3.9-35.1-19.5c0-17.5,3.9-17.5,7.8-56.5
		c1.9-17.5-9.7-31.2-21.4-40.9c11.7-9.7,23.4-21.4,21.4-39c-5.8-39-7.8-39-7.8-56.5C63.9,37.1,99,39.1,99,39.1l0-39l-40.9,0
		C36.6,0.1,17.2,19.6,23,60.5L23,60.5z"/>
	<path class="st1" d="M252.8,60.5c-3.9,25.3-7.8,31.2-7.8,56.5c0,15.6,29.2,29.2,29.2,29.2l0,19.5c0,0-29.2,13.6-29.2,29.2
		c0,25.3,3.9,31.2,7.8,56.5c5.8,40.9-15.6,60.4-35.1,60.4l-40.9,0l0-39c0,0,35.1,3.9,35.1-19.5c0-17.5-3.9-17.5-7.8-56.5
		c-1.9-17.5,9.7-31.2,21.4-40.9c-11.7-9.7-23.4-21.4-21.4-39c3.9-39,7.8-39,7.8-56.5c0-23.4-35.1-21.4-35.1-21.4l0-39l40.9,0
		C239.2,0.1,258.7,19.6,252.8,60.5L252.8,60.5z"/>
</g>
<path id="Shell-Prompt" class="st1" d="M664.4,267.9c-3.5,0.4-7.1-0.5-10.1-2.8c-5.9-4.6-7-13.2-2.4-19.2l39.3-50.3l-50.3-39.3
	c-5.9-4.6-7-13.2-2.4-19.2c4.6-5.9,13.2-7,19.1-2.4l61,47.7c2.9,2.2,4.7,5.5,5.1,9.1c0.4,3.6-0.6,7.2-2.8,10.1l-47.7,61
	C671.1,265.7,667.8,267.4,664.4,267.9L664.4,267.9z M833.8,233.3c-0.9-7.5-7.7-12.8-15.2-11.9l-79.3,9.7
	c-7.5,0.9-12.8,7.7-11.9,15.2c0.9,7.5,7.7,12.8,15.2,11.9l79.3-9.7C829.4,247.6,834.7,240.8,833.8,233.3L833.8,233.3z"/>
<path id="Cog" class="st1" d="M1498.4,182.3l-1-0.4l-4-9.6l0.4-1c12.2-27.8,11.4-28.6,9.3-30.6l-16.3-15.9c-0.7-0.7-1.8-1.1-2.8-1.1
	c-0.9,0-3.7,0-27.8,10.9l-1,0.4l-9.9-4l-0.4-1c-11.3-28.1-12.5-28.1-15.3-28.1h-23c-2.8,0-4.1,0-14.6,28.1l-0.4,1l-9.9,4l-0.9-0.4
	c-16.3-6.9-25.8-10.4-28.3-10.4c-1,0-2.2,0.5-2.8,1.1l-16.3,16c-2.1,2-2.9,2.9,9.9,30.1l0.5,1l-4,9.6l-1,0.4
	c-28.7,11.1-28.7,12.2-28.7,15.1v22.6c0,2.9,0,4.1,28.7,14.4l1,0.4l4,9.6l-0.4,1c-12.2,27.8-11.4,28.5-9.4,30.6l16.3,16
	c0.7,0.7,1.9,1.1,2.9,1.1c0.9,0,3.7,0,27.8-10.9l1-0.5l9.9,4l0.4,1c11.3,28.1,12.5,28.1,15.3,28.1h23c2.9,0,4.1,0,14.6-28.1l0.4-1
	l9.9-4l0.9,0.4c16.3,6.9,25.8,10.4,28.2,10.4c1,0,2.2-0.4,2.9-1.1l16.3-16c2.1-2.1,2.9-2.9-10-30.1l-0.5-1l4-9.6l1-0.4
	c28.7-11.2,28.7-12.3,28.7-15.1v-22.6C1527.2,193.8,1527.2,192.6,1498.4,182.3L1498.4,182.3z M1418.7,245.1
	c-20.6,0-37.3-16.4-37.3-36.6c0-20.2,16.7-36.6,37.3-36.6c20.6,0,37.3,16.4,37.3,36.6C1455.9,228.7,1439.2,245.1,1418.7,245.1
	L1418.7,245.1z"/>
<g id="Group" transform="translate(160.607452, 171.082325) rotate(16.000000) translate(-160.607452, -171.082325) translate(-5.892548, 20.582325)">
	<path class="st1" d="M322,0.7l-310.6,0C5.6,0.7,0.9,5.4,0.9,11.2l0,204.9c0,5.8,4.7,10.5,10.5,10.5l310.6,0
		c5.8,0,10.5-4.7,10.5-10.5l0-204.9C332.5,5.4,327.8,0.7,322,0.7L322,0.7z M306.2,210.9l-26.3,0v-10.5l26.3,0V210.9L306.2,210.9z
		 M306.2,189.8l-279,0l0-162.9l279,0L306.2,189.8L306.2,189.8z"/>
	<polygon class="st1" points="85.1,284.4 85.1,300.2 258.8,300.2 258.8,284.4 227.2,263.4 116.7,263.4 	"/>
	
		<rect id="Rectangle-path" x="164.1" y="189.7" transform="matrix(2.105099e-06 1 -1 2.105099e-06 416.9713 73.0422)" class="st1" width="15.8" height="110.6"/>
	<polygon class="st1" points="94.1,37.5 37.7,76.8 37.7,95 120.1,37.5 	"/>
	<polygon class="st1" points="295.7,37.5 143.6,37.5 37.7,111.3 37.7,179.3 295.7,179.3 	"/>
</g>
<g id="Coffee" transform="translate(1676.284282, 466.206469) rotate(15.000000) translate(-1676.284282, -466.206469) translate(1520.284282, 287.706469)">
	<path class="st1" d="M211.6,78L11.7,78c-6.1,0-11.1,5-11.1,11.1l0,244.7c0,12.3,9.9,22.2,22.2,22.2l177.7,0
		c12.3,0,22.2-10,22.2-22.2l0-244.7C222.7,82.9,217.7,78,211.6,78L211.6,78z"/>
	<path class="st1" d="M111.6,55.7c6.1,0,11.1-5,11.1-11.1V11.2c0-6.1-5-11.1-11.1-11.1c-6.1,0-11.1,5-11.1,11.1l0,33.4
		C100.5,50.7,105.5,55.7,111.6,55.7L111.6,55.7z"/>
	<path class="st1" d="M156.1,55.7c6.1,0,11.1-5,11.1-11.1V33.5c0-6.1-5-11.1-11.1-11.1c-6.1,0-11.1,5-11.1,11.1v11.1
		C145,50.7,149.9,55.7,156.1,55.7L156.1,55.7z"/>
	<path class="st1" d="M67.2,55.7c6.1,0,11.1-5,11.1-11.1V33.5c0-6.1-5-11.1-11.1-11.1c-6.1,0-11.1,5-11.1,11.1l0,11.1
		C56.1,50.7,61.1,55.7,67.2,55.7L67.2,55.7z"/>
	<path class="st1" d="M244.9,122.5l0,44.5c12.2,0,22.2,10,22.2,22.2v44.5c0,12.3-10,22.2-22.2,22.2l0,44.5
		c36.7,0,66.6-29.9,66.6-66.8v-44.5C311.6,152.4,281.7,122.5,244.9,122.5L244.9,122.5z"/>
</g>
<g id="animal" transform="translate(1083.000000, 167.500000) rotate(17.000000) translate(-1083.000000, -167.500000) translate(885.000000, 18.000000)">
	<path class="st1" d="M388.6,55.5l-18.3-4.4c-24.2-3.2-26.7-15.9-26.7-15.9c-4.4-19.5-21.5-34-42.6-34c-28.7,0-80.1,25.6-67,118
		c0,0,4.3,19.1-3.4,16.4c-12.5-2.3-25.6-3.5-39.4-3.2c-20.5,0.5-39.7,4.2-56.7,10.2c-28.6,10.1-79.4,27.9-121,10.2
		c-3.7-1.5-7.7-0.5-10.2,2.7c-2.5,3.1-2.7,7.7-0.7,11.2c18.6,32.4,51.6,75.6,93.8,104.2c24.6,16.7,59.4,28.7,98.9,27.7
		c61.4-1.5,109.5-31.8,123.1-69c8.1-22.3,16.3-59.3-17.4-105c-7.8-10.6-4.8-25.8,22.6-40.8c8.5-4.7,20.8-11.5,64.9-15.9
		C394.7,67.5,401.7,60.2,388.6,55.5L388.6,55.5z"/>
</g>
<g id="c64_mouse" transform="translate(734.781016, 425.562527)">
	<path class="st1" d="M177.6,148.1c-0.4-0.5-12.5-15.2,1.3-27.6l15.4-13.8c0,0,15.9-11,27.2,1.7l14.3-12.8l-6.1-6.8
		c-25.1-27.9-68.1-30.2-96.1-5.2l-26.1,23.4l51.6,57.4L177.6,148.1L177.6,148.1z"/>
	<path class="st1" d="M28,178.3c-28,25.1-38.5,75.4-13.4,103.3l19.5,21.7c25.1,27.9,76.3,22.9,104.3-2.2l73.9-66.2L101.8,112.1
		L28,178.3L28,178.3z"/>
	<path class="st1" d="M226.7,143.8l-14.5,13c0,0-15.7,12.4-27.9-1.1v0.1l-18.4,16.5l51.9,57.7l26.2-23.5c28-25.1,30.3-68,5.2-95.9
		l-6.1-6.7l-14.5,13C228.6,116.8,240.2,131.6,226.7,143.8L226.7,143.8z"/>
	<path class="st1" d="M290.7,6.2c-19.9-9.1-37.9-8.1-48.2,2.8c-10.6,11.1-7.1,26.3,9,39.5c20.2,16.7,16.5,26.6,13,31.7
		c0,0-4.5,8.2-19.3,12.8c-1.9,0.4-9,1.1-9.6,3l7.4,7.9c1-0.3,18.3-7.8,28.2-22.2c8.5-12.4,4.3-25.3-13.2-39.6
		c-15.7-12.9-16.1-25.7-11.4-30.6c4.3-4.4,17.9-7.8,38.1,1.5c1.3,0.6,3.7-0.4,5.3-2.3C291.7,8.7,292,6.7,290.7,6.2L290.7,6.2z"/>
	<path class="st1" d="M203.5,115.8l-15.1,13.5c-4.6,4.1-5,11.1-0.8,15.7c4.1,4.6,11.2,4.9,15.7,0.9l15.1-13.5
		c4.6-4.1,4.9-11.1,0.8-15.7C215.1,112.1,208.1,111.7,203.5,115.8L203.5,115.8z"/>
</g>
<g id="database" transform="translate(189.858569, 634.138631) rotate(14.000000) translate(-189.858569, -634.138631) translate(53.349795, 469.504933)">
	<g transform="translate(1.371947, 0.000000)">
		<path class="st1" d="M135.8,0c72.2,0,133.3,29.8,135.4,65.6c-2.1,35.7-63.2,65.6-135.4,65.6c-72.2,0-133.3-29.9-135.4-65.6
			C2.5,29.8,63.6,0,135.8,0L135.8,0z"/>
		<path class="st1" d="M271.4,260.8c0,36.6-62.1,67.4-135.6,67.4S0.2,297.3,0.2,260.8l0-32.2c23.2,27.9,74.6,46.9,135.6,46.9
			s112.4-19,135.6-46.9V260.8L271.4,260.8z"/>
		<path class="st1" d="M271.4,194.6c0,36.6-62.1,67.4-135.6,67.4S0.2,231.2,0.2,194.6l0-33.6c23.2,27.9,74.6,46.9,135.6,46.9
			s112.4-19,135.6-46.9V194.6L271.4,194.6z"/>
		<path class="st1" d="M271.4,127.1c0,36.6-62.1,67.4-135.6,67.4S0.2,163.7,0.2,127.1l0-29.5c23.2,27.9,74.6,46.9,135.6,46.9
			s112.4-19,135.6-46.9V127.1L271.4,127.1z"/>
	</g>
</g>
<g transform="translate(2050.258820, 190.271496) rotate(-12.000000) translate(-2050.258820, -190.271496) translate(1874.758820, 39.271496)">
	<path class="st1" d="M325.9,0.2l-300.8,0C11.2,0.2,0,11.4,0,25.3l0,250.8c0,13.8,11.2,25.1,25.1,25.1l300.8,0
		c13.8,0,25.1-11.2,25.1-25.1l0-250.8C351,11.4,339.7,0.2,325.9,0.2L325.9,0.2z M119.9,19c6.9,0,12.5,5.6,12.5,12.6
		c0,6.9-5.6,12.5-12.5,12.5c-6.9,0-12.5-5.6-12.5-12.5C107.3,24.6,113,19,119.9,19L119.9,19z M81.5,19C88.4,19,94,24.6,94,31.6
		c0,6.9-5.6,12.5-12.6,12.5c-6.9,0-12.5-5.6-12.5-12.5C68.9,24.6,74.6,19,81.5,19L81.5,19z M43.8,19c6.9,0,12.5,5.6,12.5,12.6
		c0,6.9-5.6,12.5-12.5,12.5c-6.9,0-12.5-5.6-12.5-12.5C31.4,24.6,37,19,43.8,19L43.8,19z M325.9,276.1l-300.8,0l0-212.9l300.8,0
		L325.9,276.1L325.9,276.1z"/>
	
		<rect x="13" y="62" transform="matrix(-1 2.304947e-06 -2.304947e-06 -1 345.0002 342.9995)" class="st1" width="319" height="219"/>
</g>
<g id="technology-2" transform="translate(1653.606262, 973.281263) rotate(-35.000000) translate(-1653.606262, -973.281263) translate(1504.606262, 803.281263)">
	<path id="Android" class="st1" d="M276.5,106.7c-11.7,0-21.2,9.5-21.2,21.2l0,84.8c0,11.7,9.5,21.2,21.2,21.2
		c11.7,0,21.2-9.5,21.2-21.2l0-84.8C297.7,116.2,288.1,106.7,276.5,106.7L276.5,106.7z M21.9,106.7c-11.7,0-21.2,9.5-21.2,21.2
		l0,84.8c0,11.7,9.5,21.2,21.2,21.2s21.2-9.5,21.2-21.2l0-84.8C43.1,116.2,33.6,106.7,21.9,106.7L21.9,106.7z M53.7,244.6
		c0,17.6,14.2,31.8,31.8,31.8h10.6l0,42.4c0,11.7,9.5,21.2,21.2,21.2c11.7,0,21.2-9.5,21.2-21.2l0-42.4h21.2l0,42.4
		c0,11.7,9.5,21.2,21.2,21.2c11.7,0,21.2-9.5,21.2-21.2l0-42.4l10.6,0c17.6,0,31.8-14.2,31.8-31.8l0-116.6l-190.9,0L53.7,244.6
		L53.7,244.6z M188.5,30.3l13.4-25.8c0.7-1.3,0.2-2.9-1.1-3.6c-1.3-0.7-2.9-0.2-3.6,1.1l-13.6,26.2c-10.7-4.1-22.3-6.4-34.4-6.4
		c-12.1,0-23.7,2.3-34.4,6.4L101.2,2.1c-0.7-1.3-2.3-1.8-3.6-1.1c-1.3,0.7-1.8,2.3-1.1,3.6l13.4,25.8c-30,13.6-51.8,42.3-55.6,76.4
		l189.7,0C240.3,72.6,218.6,43.9,188.5,30.3L188.5,30.3z M106.8,90.3c-8.5,0-15.4-6.9-15.4-15.4s6.9-15.4,15.4-15.4
		s15.4,6.9,15.4,15.4C122.1,83.4,115.3,90.3,106.8,90.3L106.8,90.3z M191.6,90.3c-8.5,0-15.4-6.9-15.4-15.4s6.9-15.4,15.4-15.4
		c8.5,0,15.4,6.9,15.4,15.4S200.1,90.3,191.6,90.3L191.6,90.3z"/>
</g>
<g id="parrot" transform="translate(1914.000000, 1037.000000)">
	<path class="st2" d="M233.5,169.7c-1.4-1.5-3.4-3.8-6-6.4c-14.4-14.4-27.9-22-34.5-26c-10.1-6.1-24.1-15.6-40.5-30.5
		c0.7-3.9,1.2-8.3,1.4-13.2c0.3-8.4-0.5-15.7-1.6-21.6c-0.7-2.5-2.1-6.4-5.2-10.3c-3.9-5.1-8.5-7.7-11-8.9c-0.2-1.2-0.5-2.3-0.7-3.6
		c-1.2-5.8-2.4-11.5-3.7-17c-2.8-4.9-11.9-19.6-30.8-27.4C97.8,3.6,76.6-4.8,54,4.5C42.3,9.4,35,17,32,20.2
		c-6.3,6.7-9.6,12.9-14.2,21.6c-3.6,6.8-7.4,15.1-10.7,24.9c-1,0.6-3.2,2-4.8,4.7c-1.8,3.1-1.8,6-1.8,7.2
		c-0.1,4.7,0.3,10.3,1.3,16.5c0.9,4.8,2,9.1,3.2,12.8c1.3,2.9,2.7,4.8,3.7,6.1c0.7,0.9,1.2,1.4,1.9,2.4c1.2,2,1.6,3.9,1.8,5.3
		c0.4,7.4,0.5,15.5,0.2,24.2c-0.3,8.5-1,16.5-2,23.8H233.5L233.5,169.7z"/>
	<path class="st3" d="M12.2,127.2c11.7,11.8,22.9,18.8,29,21.1c4.7,1.8,9.9,2.9,9.9,2.9c3,0.6,5.7,1,7.7,1.3c2.2,0,6.3,0.3,10.4,2.7
		c1.3,0.8,2.4,1.7,3.3,2.5"/>
	<ellipse class="st1" cx="53.8" cy="40.7" rx="5.3" ry="11.2"/>
	<ellipse class="st1" cx="119.4" cy="40.7" rx="5.3" ry="11.2"/>
	<path class="st4" d="M91.5,112.9c-0.5-0.2-0.9-0.3-1.4-0.5c-1.2-0.5-2.2-1.2-3.1-2.1c-2.3-3.1-4.5-6.4-6.3-9.8
		c-2.7-4.7-5-9.7-6.8-14.8c-1-6.5-1.5-13.1-1.7-19.6c-0.1-2.5-0.1-3.3,0-5.4c0.1-1.7,0.1-4.3,0.2-9.2c0-1.3,0.1-3.6,0.5-6.4
		c0.1-0.7,0.3-1.5,0.4-2.3c0.3-0.2,0.7-0.4,1.1-0.6c0.9-0.4,1.7-0.4,2.3-0.5c2.9-0.2,6-0.3,9.1-0.4h15.6c1.6,1.3,3,2.9,4.2,4.6
		c1.1,1.7,1.9,3.4,2.6,5.3c0.3,2.4,0.4,4.7,0.5,7v2.5c0,0.8-0.1,1.5,0,3.1c0.1,1,0.1,1.9,0.2,2.6c0.1,1.3,0.2,2.1,0.1,3.3
		c-0.1,1.1-0.3,2.1-0.5,3.2c-1.8,3.5-3.4,7.1-4.7,10.7c-1,2.7-1.9,4.7-2.6,7.7c-0.4,1.7-0.6,2.8-0.8,3.8c-0.2,0.9-0.3,1.8-0.6,3.1
		l-0.1,0.5c-0.4,1.7-1,4.4-2.1,6.7C95.6,108.2,93.8,110.7,91.5,112.9L91.5,112.9z"/>
</g>
<g id="keyboard" transform="translate(1136.216964, 994.812049) rotate(-13.000000) translate(-1136.216964, -994.812049) translate(989.716964, 856.312049)">
	<g>
		
			<ellipse transform="matrix(-1 2.578268e-06 -2.578268e-06 -1 106.5784 297.8046)" class="st1" cx="53.3" cy="148.9" rx="9.1" ry="9.1"/>
		<path class="st1" d="M90.7,158L90.7,158c5.1,0,9.1-4.1,9.1-9.1c0-5.1-4.1-9.1-9.1-9.1l0,0c-5.1,0-9.1,4.1-9.1,9.1
			C81.6,154,85.6,158,90.7,158L90.7,158z"/>
		
			<ellipse transform="matrix(-1 2.578268e-06 -2.578268e-06 -1 256.1218 297.8044)" class="st1" cx="128.1" cy="148.9" rx="9.1" ry="9.1"/>
		
			<ellipse transform="matrix(-1 2.578292e-06 -2.578292e-06 -1 330.9532 297.8043)" class="st1" cx="165.5" cy="148.9" rx="9.1" ry="9.1"/>
		
			<ellipse transform="matrix(-1 2.578268e-06 -2.578268e-06 -1 405.7845 297.8042)" class="st1" cx="202.9" cy="148.9" rx="9.1" ry="9.1"/>
		
			<ellipse transform="matrix(-1 2.578289e-06 -2.578289e-06 -1 480.6159 297.8041)" class="st1" cx="240.3" cy="148.9" rx="9.1" ry="9.1"/>
		
			<ellipse transform="matrix(-1 2.578265e-06 -2.578265e-06 -1 144.0539 375.0793)" class="st1" cx="72" cy="187.5" rx="9.1" ry="9.1"/>
		
			<ellipse transform="matrix(-1 2.578273e-06 -2.578273e-06 -1 218.7659 375.0791)" class="st1" cx="109.4" cy="187.5" rx="9.1" ry="9.1"/>
		
			<ellipse transform="matrix(-1 2.578284e-06 -2.578284e-06 -1 293.5973 375.079)" class="st1" cx="146.8" cy="187.5" rx="9.1" ry="9.1"/>
		
			<ellipse transform="matrix(-1 2.578255e-06 -2.578255e-06 -1 368.3093 375.0789)" class="st1" cx="184.2" cy="187.5" rx="9.1" ry="9.1"/>
		
			<ellipse transform="matrix(-1 2.578273e-06 -2.578273e-06 -1 443.1407 375.0788)" class="st1" cx="221.6" cy="187.5" rx="9.1" ry="9.1"/>
		<path class="st1" d="M74.3,226.1c0,4,3.3,7.3,7.3,7.3l130.4,0c4.1,0,7.3-3.3,7.3-7.3c0-4-3.3-7.3-7.3-7.3l-130.5,0
			C77.5,218.9,74.3,222.1,74.3,226.1L74.3,226.1z"/>
		<path class="st1" d="M170.9,59.4l42.3,0c16.3,0,29.6-13.2,29.6-29.5S229.6,0.4,213.2,0.4L69.7,0.5c-4.1,0-7.3,3.3-7.3,7.3
			s3.3,7.3,7.3,7.3l0,0L213.3,15c8.2,0,15,6.7,15,14.9s-6.7,14.9-15,14.9l-42.3,0c-17.7,0-32,14.3-32,31.9v21.8l-121.4,0
			c-9.3,0-16.9,7.1-16.9,15.9l0,146.2c0,8.7,7.6,15.9,16.9,15.9l258.6,0c9.3,0,16.9-7.1,16.9-15.9V114.4c0-8.7-7.6-15.9-16.9-15.9
			l-122.6,0V76.7C153.5,67.2,161.3,59.4,170.9,59.4L170.9,59.4z M278.4,114.4v146.2c0,0.5-0.9,1.3-2.3,1.3l-258.6,0
			c-1.4,0-2.3-0.8-2.3-1.3l0-146.2c0-0.5,0.9-1.3,2.3-1.3l258.6,0C277.5,113.1,278.4,114,278.4,114.4L278.4,114.4z"/>
	</g>
</g>
<g id="pizza" transform="translate(514.000000, 485.500000) rotate(-27.000000) translate(-514.000000, -485.500000) translate(384.000000, 320.000000)">
	<g id="XMLID_91_">
		<path id="XMLID_92_" class="st1" d="M258.7,43.7c3.2-7.7-0.5-16.4-8.1-19.6C212,8.1,171.5,0,129.9,0C88.5,0,48,8.1,9.5,24.1
			C1.8,27.2-1.8,36,1.4,43.7l114.8,277.2c2.3,5.6,7.8,9.3,13.9,9.3c6.1,0,11.5-3.7,13.9-9.3l93.2-225c0,0,0-0.1,0.1-0.1L258.7,43.7
			L258.7,43.7z M129.9,30c32.6,0,64.5,5.5,95.2,16.4l-10.5,25.3C159,56,101,56,45.4,71.6L35,46.4C65.6,35.5,97.5,30,129.9,30
			L129.9,30z M130,275.9l-21.2-51.1c12-1.8,21.2-12.2,21.2-24.7c0-13.8-11.2-25-25-25c-5.5,0-10.6,1.8-14.8,4.8L57,99.6
			c48-12.8,97.9-12.8,146.1,0l-19.5,47c-2.7-1-5.6-1.5-8.6-1.5c-13.8,0-25,11.2-25,25c0,10,5.9,18.7,14.4,22.7L130,275.9L130,275.9z
			"/>
		<circle id="XMLID_104_" class="st1" cx="120" cy="130.1" r="25"/>
	</g>
</g>
<g id="networking-cable" transform="translate(69.033724, 878.000000)">
	<path class="st1" d="M253.9,90.7V30.1h-15L169.4,0l-3.9,9l48.7,21.1H154v11.2c-39.6,0.9-95.3,4.6-109,45.4
		c-10.8,32.3,26.6,65.6,45.8,86c25.5,26.8,64.2,57.5,72.9,95.4c11,48-120.3,52.7-143.8,54.8c-15.3,1.4-29.6,33.4-10.1,31.7
		c54.4-4.8,140.6-8.1,174.9-59.6c22.1-33.2,0.5-69-21.3-95.6c-26.2-31.9-60.1-58.5-82.7-93.3c-6.1-9.4-9.7-18.3-5.6-20.7
		C96.9,72.3,128.8,73,154,72.7v18L253.9,90.7L253.9,90.7L253.9,90.7z"/>
</g>
<g id="binary-code" transform="translate(2102.462139, 648.407472) rotate(-25.000000) translate(-2102.462139, -648.407472) translate(1944.462139, 493.407472)">
	<path id="rect34754" class="st1" d="M93.5,0.7c-1.6,0-3.1,0.7-4.2,1.8L70.8,21c-2.4,2.4-2.5,6.3-0.1,8.7c2.4,2.4,6.3,2.5,8.7,0.1
		c0,0,0.1-0.1,0.1-0.1l8-8l0,52.9H75.2c-3.4,0-6.2,2.7-6.2,6.1c0,3.4,2.7,6.2,6.1,6.2c0.1,0,0.1,0,0.2,0l17.5,0c0.7,0.1,1.3,0.1,2,0
		H106c3.4,0,6.2-2.7,6.2-6.1c0-3.4-2.7-6.2-6.1-6.2c-0.1,0-0.1,0-0.2,0h-6.2l0-67.8c0-3.4-2.8-6.2-6.2-6.2
		C93.6,0.7,93.6,0.7,93.5,0.7L93.5,0.7z M161.4,0.7c-1.6,0-3.1,0.7-4.2,1.8L138.8,21c-2.5,2.4-2.5,6.3-0.2,8.7s6.3,2.5,8.7,0.2
		c0.1-0.1,0.1-0.1,0.2-0.2l8-8l0,52.9h-12.3c-3.4,0-6.2,2.7-6.2,6.1c0,3.4,2.7,6.2,6.1,6.2c0.1,0,0.1,0,0.2,0h17.5
		c0.7,0.1,1.3,0.1,2,0h11.3c3.4,0,6.2-2.7,6.2-6.1c0-3.4-2.7-6.2-6.1-6.2c-0.1,0-0.1,0-0.2,0h-6.2l0-67.8c0-3.4-2.8-6.2-6.2-6.2
		C161.6,0.7,161.5,0.7,161.4,0.7L161.4,0.7z M22.7,0.8c-11.8,0-21.6,9.7-21.6,21.6l0,43.1C1.1,77.3,10.8,87,22.7,87
		c11.8,0,21.6-9.7,21.6-21.6l0-43.1C44.2,10.5,34.5,0.8,22.7,0.8L22.7,0.8z M226.5,0.8c-11.8,0-21.6,9.7-21.6,21.6l0,43.1
		c0,11.8,9.7,21.6,21.6,21.6c11.8,0,21.6-9.7,21.6-21.6l0-43.1C248.1,10.5,238.3,0.8,226.5,0.8L226.5,0.8z M294.4,0.8
		c-11.8,0-21.6,9.7-21.6,21.6v43.1c0,11.8,9.7,21.6,21.6,21.6c11.8,0,21.6-9.7,21.6-21.6V22.3C316,10.5,306.3,0.8,294.4,0.8
		L294.4,0.8z M22.7,13.1c5.2,0,9.2,4,9.2,9.2l0,43.1c0,5.2-4,9.2-9.2,9.2c-5.2,0-9.2-4-9.2-9.2l0-43.1
		C13.4,17.1,17.4,13.1,22.7,13.1L22.7,13.1z M226.5,13.1c5.2,0,9.2,4,9.2,9.2l0,43.1c0,5.2-4,9.2-9.2,9.2s-9.2-4-9.2-9.2l0-43.1
		C217.2,17.1,221.3,13.1,226.5,13.1L226.5,13.1z M294.4,13.1c5.2,0,9.2,4,9.2,9.2v43.1c0,5.2-4,9.2-9.2,9.2c-5.2,0-9.2-4-9.2-9.2
		V22.3C285.2,17.1,289.2,13.1,294.4,13.1L294.4,13.1z M25.6,111.7c-1.6,0-3.1,0.7-4.2,1.8L2.9,132c-2.4,2.4-2.4,6.3,0,8.7
		c2.4,2.4,6.3,2.4,8.7,0l8-8l0,52.9H7.2c-3.4,0-6.2,2.7-6.2,6.1c0,3.4,2.7,6.2,6.1,6.2c0.1,0,0.1,0,0.2,0h17.5c0.7,0.1,1.3,0.1,2,0
		l11.3,0c3.4,0,6.2-2.7,6.2-6.1c0-3.4-2.7-6.2-6.1-6.2c-0.1,0-0.1,0-0.2,0h-6.2l0-67.8c0-3.4-2.8-6.2-6.2-6.2
		C25.7,111.7,25.6,111.7,25.6,111.7L25.6,111.7z M161.4,111.7c-1.6,0-3.1,0.7-4.2,1.8L138.8,132c-2.4,2.4-2.5,6.3-0.1,8.7
		c2.4,2.4,6.3,2.5,8.7,0.1c0,0,0.1-0.1,0.1-0.1l8-8l0,52.9h-12.3c-3.4,0-6.2,2.7-6.2,6.1s2.7,6.2,6.1,6.2c0.1,0,0.1,0,0.2,0h17.5
		c0.7,0.1,1.3,0.1,2,0h11.3c3.4,0,6.2-2.7,6.2-6.1c0-3.4-2.7-6.2-6.1-6.2c-0.1,0-0.1,0-0.2,0h-6.2l0-67.8c0-3.4-2.8-6.2-6.2-6.2
		C161.6,111.7,161.5,111.7,161.4,111.7L161.4,111.7z M229.4,111.7c-1.6,0-3.1,0.7-4.2,1.8L206.7,132c-2.4,2.4-2.5,6.3-0.1,8.7
		c2.4,2.4,6.3,2.5,8.7,0.1c0,0,0.1-0.1,0.1-0.1l8-8l0,52.9h-12.3c-3.4,0-6.2,2.7-6.2,6.1c0,3.4,2.7,6.2,6.1,6.2c0.1,0,0.1,0,0.2,0
		l17.5,0c0.7,0.1,1.3,0.1,2,0h11.3c3.4,0,6.2-2.7,6.2-6.1s-2.7-6.2-6.1-6.2c-0.1,0-0.1,0-0.2,0h-6.2l0-67.8c0-3.4-2.8-6.2-6.2-6.2
		C229.5,111.7,229.4,111.7,229.4,111.7L229.4,111.7z M90.6,111.7c-11.8,0-21.6,9.7-21.6,21.6l0,43.1c0,11.8,9.7,21.6,21.6,21.6
		c11.8,0,21.6-9.7,21.6-21.6l0-43.1C112.2,121.5,102.4,111.7,90.6,111.7L90.6,111.7z M294.4,111.7c-11.8,0-21.6,9.7-21.6,21.6v43.1
		c0,11.8,9.7,21.6,21.6,21.6s21.6-9.7,21.6-21.6v-43.1C316,121.5,306.3,111.7,294.4,111.7L294.4,111.7z M90.6,124.1
		c5.2,0,9.2,4,9.2,9.2l0,43.1c0,5.2-4,9.2-9.2,9.2c-5.2,0-9.2-4-9.2-9.2l0-43.1C81.4,128.1,85.4,124.1,90.6,124.1L90.6,124.1z
		 M294.4,124.1c5.2,0,9.2,4,9.2,9.2v43.1c0,5.2-4,9.2-9.2,9.2c-5.2,0-9.2-4-9.2-9.2v-43.1C285.2,128.1,289.2,124.1,294.4,124.1
		L294.4,124.1z M25.6,222.7c-1.6,0-3.1,0.7-4.2,1.8L2.9,243c-2.4,2.4-2.4,6.3,0,8.7s6.3,2.4,8.7,0l8-8l0,52.9H7.2
		c-3.4,0-6.2,2.7-6.2,6.1c0,3.4,2.7,6.2,6.1,6.2c0.1,0,0.1,0,0.2,0h17.5c0.7,0.1,1.3,0.1,2,0h11.3c3.4,0,6.2-2.7,6.2-6.1
		c0-3.4-2.7-6.2-6.1-6.2c-0.1,0-0.1,0-0.2,0h-6.2l0-67.8c0-3.4-2.8-6.2-6.2-6.2C25.7,222.7,25.6,222.7,25.6,222.7L25.6,222.7z
		 M93.5,222.7c-1.6,0-3.1,0.7-4.2,1.8L70.8,243c-2.4,2.4-2.4,6.3,0,8.7s6.3,2.4,8.7,0l8-8l0,52.9H75.2c-3.4,0-6.2,2.7-6.2,6.1
		c0,3.4,2.7,6.2,6.1,6.2c0.1,0,0.1,0,0.2,0l17.5,0c0.7,0.1,1.3,0.1,2,0H106c3.4,0,6.2-2.7,6.2-6.1c0-3.4-2.7-6.2-6.1-6.2
		c-0.1,0-0.1,0-0.2,0h-6.2l0-67.8c0-3.4-2.8-6.2-6.2-6.2C93.6,222.7,93.6,222.7,93.5,222.7L93.5,222.7z M161.4,222.7
		c-1.6,0-3.1,0.7-4.2,1.8L138.8,243c-2.4,2.4-2.5,6.3-0.1,8.7c2.4,2.4,6.3,2.5,8.7,0.1c0,0,0.1-0.1,0.1-0.1l8-8l0,52.9h-12.3
		c-3.4,0-6.2,2.7-6.2,6.1s2.7,6.2,6.1,6.2c0.1,0,0.1,0,0.2,0h17.5c0.7,0.1,1.3,0.1,2,0h11.3c3.4,0,6.2-2.7,6.2-6.1
		c0-3.4-2.7-6.2-6.1-6.2c-0.1,0-0.1,0-0.2,0h-6.2l0-67.8c0-3.4-2.8-6.2-6.2-6.2C161.6,222.7,161.5,222.7,161.4,222.7L161.4,222.7z
		 M229.4,222.7c-1.6,0-3.1,0.7-4.2,1.8L206.7,243c-2.4,2.4-2.5,6.3-0.1,8.7c2.4,2.4,6.3,2.5,8.7,0.1c0,0,0.1-0.1,0.1-0.1l8-8l0,52.9
		h-12.3c-3.4,0-6.2,2.7-6.2,6.1c0,3.4,2.7,6.2,6.1,6.2c0.1,0,0.1,0,0.2,0h17.5c0.7,0.1,1.3,0.1,2,0h11.3c3.4,0,6.2-2.7,6.2-6.1
		c0-3.4-2.7-6.2-6.1-6.2c-0.1,0-0.1,0-0.2,0h-6.2l0-67.8c0-3.4-2.8-6.2-6.2-6.2C229.5,222.7,229.4,222.7,229.4,222.7L229.4,222.7z
		 M294.4,222.7c-11.8,0-21.6,9.7-21.6,21.6l0,43.1c0,11.8,9.7,21.6,21.6,21.6s21.6-9.7,21.6-21.6l0-43.1
		C316,232.5,306.3,222.7,294.4,222.7L294.4,222.7z M294.4,235.1c5.2,0,9.2,4,9.2,9.2l0,43.1c0,5.2-4,9.2-9.2,9.2
		c-5.2,0-9.2-4-9.2-9.2l0-43.1C285.2,239.1,289.2,235.1,294.4,235.1L294.4,235.1z"/>
</g>
</svg>
