<svg xmlns="http://www.w3.org/2000/svg" width="1061.521" height="257.572" viewBox="0 0 1061.521 257.572"><title>UQCS_Logo_Landscape_Mono_Dark</title><g id="Layer_2" data-name="Layer 2"><g id="Layer_1-2" data-name="Layer 1"><path d="M194.044,7.5H91.109A32.14,32.14,0,0,0,63.274,23.571L11.806,112.715a32.145,32.145,0,0,0,0,32.142L63.274,234a32.14,32.14,0,0,0,27.835,16.071H194.044A32.143,32.143,0,0,0,221.88,234l51.467-89.144a32.14,32.14,0,0,0,0-32.142L221.88,23.571A32.143,32.143,0,0,0,194.044,7.5Z" fill="none" stroke="#fff" stroke-miterlimit="10" stroke-width="15"/><path d="M164.179,208.427V197.3c11.045-.139,17.371-7.781,17.371-21.015V156.393c0-13.867,4.092-21.449,13.269-24.586a3.639,3.639,0,0,0,2.5-3.472,3.69,3.69,0,0,0-2.478-3.492c-8.941-3.12-13.287-11.021-13.287-24.153v-20c0-20.418-12.978-20.418-17.242-20.418h-.129V49.145h2.711c19.178,0,30.178,10.96,30.178,30.07V100.8c0,12.591,3.36,20.619,19.612,21.346v12.936c-16.252.831-19.612,8.777-19.612,21.2v22.275c0,26.958-21.1,29.868-30.178,29.868Z" fill="#fff" stroke="#fff" stroke-miterlimit="10" stroke-width="2.5"/><path d="M164.179,208.427V197.3c11.045-.139,17.371-7.781,17.371-21.015V156.393c0-13.867,4.092-21.449,13.269-24.586a3.639,3.639,0,0,0,2.5-3.472,3.69,3.69,0,0,0-2.478-3.492c-8.941-3.12-13.287-11.021-13.287-24.153v-20c0-20.418-12.978-20.418-17.242-20.418h-.129V49.145h2.711c19.178,0,30.178,10.96,30.178,30.07V100.8c0,12.591,3.36,20.619,19.612,21.346v12.936c-16.252.831-19.612,8.777-19.612,21.2v22.275c0,26.958-21.1,29.868-30.178,29.868Z" fill="#fff" stroke="#fff" stroke-miterlimit="10" stroke-width="2.5"/><path d="M120.975,208.427V197.3c-11.045-.139-17.371-7.781-17.371-21.015V156.393c0-13.867-4.093-21.449-13.27-24.586a3.639,3.639,0,0,1-2.5-3.472,3.69,3.69,0,0,1,2.479-3.492c8.94-3.12,13.287-11.021,13.287-24.153v-20c0-20.418,12.977-20.418,17.242-20.418h.129V49.145h-2.711c-19.179,0-30.179,10.96-30.179,30.07V100.8c0,12.591-3.359,20.619-19.611,21.346v12.936c16.252.831,19.611,8.777,19.611,21.2v22.275c0,26.958,21.105,29.868,30.179,29.868Z" fill="#fff" stroke="#fff" stroke-miterlimit="10" stroke-width="2.5"/><path d="M120.975,208.427V197.3c-11.045-.139-17.371-7.781-17.371-21.015V156.393c0-13.867-4.093-21.449-13.27-24.586a3.639,3.639,0,0,1-2.5-3.472,3.69,3.69,0,0,1,2.479-3.492c8.94-3.12,13.287-11.021,13.287-24.153v-20c0-20.418,12.977-20.418,17.242-20.418h.129V49.145h-2.711c-19.179,0-30.179,10.96-30.179,30.07V100.8c0,12.591-3.359,20.619-19.611,21.346v12.936c16.252.831,19.611,8.777,19.611,21.2v22.275c0,26.958,21.105,29.868,30.179,29.868Z" fill="#fff" stroke="#fff" stroke-miterlimit="10" stroke-width="2.5"/><path d="M324.106,65.2v28.73c0,10.873,4.826,15.482,11.306,15.482,7.2,0,11.809-4.753,11.809-15.482V65.2h6.337V93.5c0,14.905-7.849,21.025-18.362,21.025-9.937,0-17.426-5.688-17.426-20.737V65.2Z" fill="#fff"/><path d="M364.209,88.318c0-3.6-.071-6.553-.288-9.433h5.617l.359,5.76h.145a12.817,12.817,0,0,1,11.52-6.553c4.826,0,12.314,2.881,12.314,14.834v20.81h-6.337V93.646c0-5.616-2.088-10.3-8.064-10.3a9,9,0,0,0-8.5,6.481,9.112,9.112,0,0,0-.431,2.952v20.954h-6.337Z" fill="#fff"/><path d="M411.226,69.092a3.925,3.925,0,0,1-7.849,0,3.861,3.861,0,0,1,3.96-3.96A3.762,3.762,0,0,1,411.226,69.092Zm-7.057,44.644V78.885h6.336v34.851Z" fill="#fff"/><path d="M423.465,78.885l6.841,19.585a89.96,89.96,0,0,1,2.807,8.929h.216c.793-2.88,1.8-5.76,2.953-8.929l6.769-19.585h6.624l-13.681,34.851h-6.049L416.7,78.885Z" fill="#fff"/><path d="M458.456,97.463c.145,8.568,5.617,12.1,11.953,12.1a22.922,22.922,0,0,0,9.65-1.8l1.08,4.537a28.237,28.237,0,0,1-11.594,2.16c-10.729,0-17.137-7.057-17.137-17.57s6.193-18.794,16.345-18.794c11.377,0,14.4,10.01,14.4,16.418a23.735,23.735,0,0,1-.216,2.953Zm18.578-4.537c.072-4.032-1.656-10.3-8.785-10.3-6.408,0-9.217,5.9-9.721,10.3Z" fill="#fff"/><path d="M491,89.757c0-4.1-.071-7.631-.288-10.872h5.545l.216,6.84h.288c1.584-4.679,5.4-7.633,9.649-7.633a6.851,6.851,0,0,1,1.8.217v5.977a9.463,9.463,0,0,0-2.16-.217c-4.465,0-7.633,3.385-8.5,8.137a17.846,17.846,0,0,0-.288,2.953v18.577H491Z" fill="#fff"/><path d="M513.68,107.256a16.612,16.612,0,0,0,8.352,2.52c4.609,0,6.769-2.3,6.769-5.185,0-3.024-1.8-4.68-6.481-6.409-6.264-2.231-9.217-5.688-9.217-9.864,0-5.617,4.537-10.226,12.025-10.226a17.386,17.386,0,0,1,8.569,2.162l-1.584,4.608a13.562,13.562,0,0,0-7.129-2.017c-3.744,0-5.833,2.161-5.833,4.752,0,2.881,2.089,4.177,6.625,5.906,6.049,2.3,9.145,5.328,9.145,10.512,0,6.12-4.752,10.441-13.033,10.441a19.874,19.874,0,0,1-9.793-2.376Z" fill="#fff"/><path d="M550.111,69.092a3.924,3.924,0,0,1-7.848,0,3.861,3.861,0,0,1,3.961-3.96A3.76,3.76,0,0,1,550.111,69.092Zm-7.056,44.644V78.885h6.337v34.851Z" fill="#fff"/><path d="M567.535,68.876V78.885h9.073V83.71h-9.073V102.5c0,4.32,1.225,6.768,4.753,6.768a14.148,14.148,0,0,0,3.672-.431l.288,4.752a15.51,15.51,0,0,1-5.616.864,8.783,8.783,0,0,1-6.841-2.664c-1.8-1.872-2.448-4.969-2.448-9.073V83.71h-5.4V78.885h5.4V70.532Z" fill="#fff"/><path d="M586.685,78.885l7.633,20.594c.792,2.3,1.657,5.04,2.232,7.128h.144c.649-2.088,1.368-4.752,2.233-7.272l6.912-20.45h6.7l-9.5,24.842c-4.537,11.953-7.633,18.073-11.953,21.818a17.17,17.17,0,0,1-7.777,4.1l-1.584-5.328a16.75,16.75,0,0,0,5.545-3.1,19.232,19.232,0,0,0,5.328-7.056,4.548,4.548,0,0,0,.5-1.512,5.524,5.524,0,0,0-.432-1.656l-12.89-32.115Z" fill="#fff"/><path d="M665.1,96.022c0,12.89-8.929,18.506-17.354,18.506-9.432,0-16.705-6.912-16.705-17.93,0-11.665,7.633-18.506,17.281-18.506C658.326,78.092,665.1,85.366,665.1,96.022Zm-27.651.36c0,7.633,4.393,13.394,10.585,13.394,6.049,0,10.585-5.688,10.585-13.537,0-5.905-2.952-13.394-10.441-13.394S637.444,89.757,637.444,96.382Z" fill="#fff"/><path d="M673.732,113.736V83.71h-4.9V78.885h4.9V77.229c0-4.9,1.08-9.361,4.033-12.169a12.125,12.125,0,0,1,8.5-3.24,14.7,14.7,0,0,1,5.4,1.008l-.864,4.9a9.469,9.469,0,0,0-4.032-.792c-5.4,0-6.769,4.752-6.769,10.08v1.873h8.425V83.71H680v30.026Z" fill="#fff"/><path d="M749.622,120.865c-6.553-1.729-12.961-3.673-18.578-5.617a9.3,9.3,0,0,0-2.952-.72c-11.521-.432-21.386-8.929-21.386-24.554,0-15.553,9.5-25.562,22.61-25.562,13.177,0,21.746,10.224,21.746,24.554,0,12.457-5.76,20.45-13.825,23.258v.288c4.824,1.224,10.08,2.376,14.185,3.1Zm-5.185-31.611c0-9.721-5.04-19.73-15.336-19.73-10.585,0-15.77,9.793-15.7,20.306-.071,10.3,5.617,19.586,15.41,19.586C738.821,109.416,744.437,100.342,744.437,89.254Z" fill="#fff"/><path d="M788.356,104.231c0,3.6.073,6.769.288,9.505h-5.616l-.36-5.688h-.144A13.113,13.113,0,0,1,771,114.528c-5.473,0-12.026-3.024-12.026-15.266V78.885h6.337v19.3c0,6.625,2.016,11.089,7.777,11.089a9.16,9.16,0,0,0,8.353-5.76,9.266,9.266,0,0,0,.575-3.24V78.885h6.337Z" fill="#fff"/><path d="M802.394,97.463c.144,8.568,5.617,12.1,11.953,12.1a22.914,22.914,0,0,0,9.649-1.8l1.08,4.537a28.231,28.231,0,0,1-11.593,2.16c-10.729,0-17.137-7.057-17.137-17.57s6.192-18.794,16.345-18.794c11.377,0,14.4,10.01,14.4,16.418a23.934,23.934,0,0,1-.216,2.953Zm18.578-4.537c.072-4.032-1.657-10.3-8.786-10.3-6.408,0-9.216,5.9-9.72,10.3Z" fill="#fff"/><path d="M838.466,97.463c.143,8.568,5.616,12.1,11.953,12.1a22.912,22.912,0,0,0,9.648-1.8l1.08,4.537a28.225,28.225,0,0,1-11.592,2.16c-10.73,0-17.138-7.057-17.138-17.57s6.192-18.794,16.346-18.794c11.377,0,14.4,10.01,14.4,16.418a23.934,23.934,0,0,1-.216,2.953Zm18.577-4.537c.072-4.032-1.656-10.3-8.785-10.3-6.408,0-9.217,5.9-9.721,10.3Z" fill="#fff"/><path d="M871.009,88.318c0-3.6-.073-6.553-.288-9.433h5.616l.36,5.76h.144a12.818,12.818,0,0,1,11.521-6.553c4.824,0,12.313,2.881,12.313,14.834v20.81h-6.336V93.646c0-5.616-2.089-10.3-8.066-10.3a9,9,0,0,0-8.5,6.481,9.11,9.11,0,0,0-.432,2.952v20.954h-6.336Z" fill="#fff"/><path d="M910.1,107.256a16.619,16.619,0,0,0,8.353,2.52c4.608,0,6.769-2.3,6.769-5.185,0-3.024-1.8-4.68-6.481-6.409-6.265-2.231-9.217-5.688-9.217-9.864,0-5.617,4.536-10.226,12.026-10.226a17.382,17.382,0,0,1,8.568,2.162l-1.584,4.608a13.565,13.565,0,0,0-7.129-2.017c-3.744,0-5.832,2.161-5.832,4.752,0,2.881,2.088,4.177,6.624,5.906,6.049,2.3,9.145,5.328,9.145,10.512,0,6.12-4.752,10.441-13.033,10.441a19.88,19.88,0,0,1-9.793-2.376Z" fill="#fff"/><path d="M939.48,62.612h6.336v51.124H939.48Z" fill="#fff"/><path d="M975.768,113.736l-.5-4.393h-.216a12.981,12.981,0,0,1-10.657,5.185c-7.057,0-10.657-4.969-10.657-10.009,0-8.425,7.489-13.033,20.953-12.961v-.72c0-2.88-.792-8.065-7.92-8.065a17.367,17.367,0,0,0-9.073,2.593l-1.44-4.177a21.631,21.631,0,0,1,11.449-3.1c10.657,0,13.249,7.274,13.249,14.258v13.033a49.174,49.174,0,0,0,.576,8.353Zm-.935-17.785c-6.913-.145-14.762,1.08-14.762,7.848,0,4.1,2.737,6.048,5.977,6.048a8.671,8.671,0,0,0,8.425-5.832,6.643,6.643,0,0,0,.36-2.016Z" fill="#fff"/><path d="M991.176,88.318c0-3.6-.073-6.553-.288-9.433H996.5l.36,5.76h.144a12.818,12.818,0,0,1,11.521-6.553c4.824,0,12.313,2.881,12.313,14.834v20.81h-6.336V93.646c0-5.616-2.089-10.3-8.066-10.3a9,9,0,0,0-8.5,6.481,9.11,9.11,0,0,0-.432,2.952v20.954h-6.336Z" fill="#fff"/><path d="M1061.233,62.612v42.123c0,3.1.072,6.625.288,9h-5.688l-.288-6.049h-.145c-1.944,3.889-6.192,6.841-11.881,6.841-8.424,0-14.9-7.129-14.9-17.714-.072-11.593,7.129-18.722,15.625-18.722,5.329,0,8.929,2.521,10.513,5.33h.144V62.612ZM1054.9,93.07a11.184,11.184,0,0,0-.288-2.664,9.319,9.319,0,0,0-9.144-7.345c-6.553,0-10.442,5.761-10.442,13.465,0,7.057,3.457,12.89,10.3,12.89a9.526,9.526,0,0,0,9.289-7.561,11.006,11.006,0,0,0,.288-2.736Z" fill="#fff"/><path d="M352.262,184.66c-2.089,1.08-6.7,2.16-12.53,2.16-15.409,0-24.77-9.648-24.77-24.41,0-15.986,11.089-25.634,25.923-25.634,5.832,0,10.008,1.224,11.808,2.16l-1.944,7.057a23.583,23.583,0,0,0-9.5-1.872c-9.864,0-16.993,6.192-16.993,17.857,0,10.657,6.265,17.5,16.922,17.5a24.776,24.776,0,0,0,9.648-1.8Z" fill="#fff"/><path d="M391.645,168.243c0,12.889-9.072,18.649-18,18.649-9.937,0-17.57-6.841-17.57-18.073,0-11.521,7.562-18.578,18.147-18.578C384.661,150.241,391.645,157.586,391.645,168.243Zm-26.425.36c0,6.769,3.312,11.881,8.713,11.881,5.04,0,8.568-4.969,8.568-12.025,0-5.473-2.448-11.738-8.5-11.738C367.739,156.721,365.22,162.77,365.22,168.6Z" fill="#fff"/><path d="M398.914,161.474c0-4.032-.072-7.417-.288-10.441h7.633l.36,5.184h.216a12.13,12.13,0,0,1,10.8-5.976,10.109,10.109,0,0,1,9.72,6.48h.145a13.28,13.28,0,0,1,4.32-4.391,11.712,11.712,0,0,1,7.057-2.089c5.832,0,11.737,3.961,11.737,15.193V186.1h-8.641V166.73c0-5.832-2.016-9.288-6.265-9.288a6.754,6.754,0,0,0-6.192,4.68,12.683,12.683,0,0,0-.432,2.953V186.1h-8.641V165.8c0-4.9-1.944-8.353-6.049-8.353-3.312,0-5.544,2.592-6.336,5.04a7.58,7.58,0,0,0-.5,2.881V186.1h-8.641Z" fill="#fff"/><path d="M459.97,162.7c0-4.608-.144-8.353-.288-11.665h7.777l.432,5.4h.143c2.593-3.96,6.7-6.192,12.025-6.192,8.065,0,14.762,6.913,14.762,17.857,0,12.674-7.993,18.794-15.985,18.794-4.393,0-8.066-1.872-9.865-4.68h-.144v18.145H459.97Zm8.857,8.713a9.124,9.124,0,0,0,.287,2.448,8.009,8.009,0,0,0,7.778,6.192c5.616,0,8.928-4.679,8.928-11.592,0-6.193-3.024-11.233-8.713-11.233a8.255,8.255,0,0,0-7.921,6.552,8.076,8.076,0,0,0-.359,2.232Z" fill="#fff"/><path d="M533.483,175.588c0,4.175.145,7.632.288,10.512H526l-.432-5.328h-.144a12.68,12.68,0,0,1-11.233,6.12c-6.409,0-12.241-3.816-12.241-15.265V151.033H510.8v19.082c0,5.832,1.872,9.577,6.552,9.577a7.464,7.464,0,0,0,6.769-4.753,8.044,8.044,0,0,0,.5-2.736v-21.17h8.856Z" fill="#fff"/><path d="M553.209,141.024v10.009h8.425v6.625h-8.425v15.481c0,4.248,1.152,6.481,4.536,6.481a13.035,13.035,0,0,0,3.456-.433l.145,6.77a19.472,19.472,0,0,1-6.41.863,10.249,10.249,0,0,1-7.631-2.88c-1.873-2.016-2.737-5.184-2.737-9.793V157.658h-5.041v-6.625h5.041v-7.92Z" fill="#fff"/><path d="M577.761,141.24a4.971,4.971,0,1,1-4.969-4.824A4.694,4.694,0,0,1,577.761,141.24Zm-9.433,44.86V151.033h8.929V186.1Z" fill="#fff"/><path d="M586.76,161.474c0-4.032-.073-7.417-.288-10.441h7.776l.433,5.257h.215a12.643,12.643,0,0,1,11.162-6.049c6.12,0,12.457,3.961,12.457,15.05V186.1h-8.858V166.3c0-5.041-1.872-8.857-6.7-8.857a7.433,7.433,0,0,0-6.913,5.185,9.052,9.052,0,0,0-.36,2.88V186.1H586.76Z" fill="#fff"/><path d="M659.985,151.033c-.143,2.377-.288,5.257-.288,10.081v19.874c0,7.345-1.512,12.6-5.184,15.913-3.672,3.24-8.713,4.248-13.537,4.248-4.464,0-9.217-.935-12.242-2.808l1.945-6.7a21.171,21.171,0,0,0,10.224,2.664c5.761,0,10.081-3.024,10.081-10.585V180.7h-.143a11.84,11.84,0,0,1-10.226,5.184c-8.712,0-14.9-7.2-14.9-17.137,0-11.521,7.489-18.506,15.914-18.506,5.328,0,8.5,2.593,10.152,5.473h.145l.359-4.681Zm-9.144,14.042a8.644,8.644,0,0,0-.288-2.377,7.357,7.357,0,0,0-7.2-5.689c-4.967,0-8.64,4.321-8.64,11.45,0,5.976,3.024,10.8,8.569,10.8a7.561,7.561,0,0,0,7.2-5.328,15.253,15.253,0,0,0,.361-3.168Z" fill="#fff"/><path d="M684.245,176.452a24.54,24.54,0,0,0,11.737,3.1c5.689,0,8.857-2.665,8.857-6.624,0-3.673-2.447-5.833-8.641-8.066-7.992-2.88-13.105-7.128-13.105-14.113,0-7.92,6.625-13.969,17.137-13.969a25.63,25.63,0,0,1,11.665,2.448l-2.16,7.129a20.542,20.542,0,0,0-9.648-2.3c-5.616,0-8.065,3.024-8.065,5.833,0,3.744,2.808,5.471,9.288,7.992,8.425,3.168,12.53,7.417,12.53,14.4,0,7.776-5.905,14.545-18.434,14.545-5.112,0-10.44-1.439-13.1-3.023Z" fill="#fff"/><path d="M755.239,168.243c0,12.889-9.072,18.649-18,18.649-9.936,0-17.569-6.841-17.569-18.073,0-11.521,7.56-18.578,18.145-18.578C748.255,150.241,755.239,157.586,755.239,168.243Zm-26.426.36c0,6.769,3.313,11.881,8.713,11.881,5.04,0,8.569-4.969,8.569-12.025,0-5.473-2.449-11.738-8.5-11.738C731.334,156.721,728.813,162.77,728.813,168.6Z" fill="#fff"/><path d="M788.286,185.02a25.635,25.635,0,0,1-9.936,1.8c-10.946,0-18.074-6.984-18.074-17.857,0-10.513,7.2-18.722,19.514-18.722a22.112,22.112,0,0,1,8.568,1.656l-1.584,6.625a15.6,15.6,0,0,0-6.7-1.368c-6.769,0-10.8,4.968-10.729,11.377,0,7.2,4.68,11.305,10.729,11.305a17.318,17.318,0,0,0,6.984-1.369Z" fill="#fff"/><path d="M804.268,141.24a4.971,4.971,0,1,1-4.968-4.824A4.694,4.694,0,0,1,804.268,141.24Zm-9.433,44.86V151.033h8.93V186.1Z" fill="#fff"/><path d="M819.531,171.051c.217,6.336,5.185,9.073,10.8,9.073a26.364,26.364,0,0,0,9.721-1.584l1.3,6.12a33.035,33.035,0,0,1-12.242,2.16c-11.377,0-18.073-6.984-18.073-17.713,0-9.721,5.9-18.866,17.137-18.866,11.378,0,15.122,9.361,15.122,17.065a21.911,21.911,0,0,1-.288,3.745Zm15.41-6.193c.072-3.24-1.368-8.568-7.273-8.568-5.472,0-7.776,4.968-8.137,8.568Z" fill="#fff"/><path d="M860.571,141.024v10.009H869v6.625h-8.425v15.481c0,4.248,1.153,6.481,4.536,6.481a13.044,13.044,0,0,0,3.457-.433l.144,6.77a19.467,19.467,0,0,1-6.408.863,10.254,10.254,0,0,1-7.633-2.88c-1.872-2.016-2.736-5.184-2.736-9.793V157.658H846.89v-6.625h5.041v-7.92Z" fill="#fff"/><path d="M881.737,151.033l6.337,18.794c.72,2.16,1.44,4.824,1.943,6.841h.217c.576-2.017,1.224-4.609,1.872-6.913l5.473-18.722h9.5L898.3,174.939c-4.824,13.106-8.065,18.938-12.241,22.538a17.809,17.809,0,0,1-9.29,4.536l-2.015-7.488a15.169,15.169,0,0,0,5.184-2.448,15.443,15.443,0,0,0,4.825-5.545,3.552,3.552,0,0,0,.576-1.584,3.758,3.758,0,0,0-.5-1.728l-12.817-32.187Z" fill="#fff"/></g></g></svg>