<svg xmlns="http://www.w3.org/2000/svg" width="1067.606" height="257.572" viewBox="0 0 1067.606 257.572"><title>UQCS_Logo_Landscape_Dark</title><g id="Layer_2" data-name="Layer 2"><g id="Layer_1-2" data-name="Layer 1"><path d="M330.191,65.2v28.73c0,10.873,4.825,15.482,11.305,15.482,7.2,0,11.809-4.753,11.809-15.482V65.2h6.336V93.5c0,14.906-7.848,21.026-18.361,21.026-9.937,0-17.426-5.689-17.426-20.737V65.2Z" fill="#fff"/><path d="M370.293,88.318c0-3.6-.072-6.553-.288-9.433h5.616l.361,5.76h.143a12.82,12.82,0,0,1,11.522-6.553c4.824,0,12.312,2.881,12.312,14.834v20.81h-6.336V93.646c0-5.616-2.088-10.3-8.064-10.3a9,9,0,0,0-8.5,6.481,9.109,9.109,0,0,0-.433,2.952v20.954h-6.336Z" fill="#fff"/><path d="M417.309,69.092a3.924,3.924,0,0,1-7.848,0,3.862,3.862,0,0,1,3.96-3.961A3.762,3.762,0,0,1,417.309,69.092Zm-7.057,44.644V78.885h6.337v34.851Z" fill="#fff"/><path d="M429.549,78.885l6.84,19.585A89.994,89.994,0,0,1,439.2,107.4h.215c.792-2.88,1.8-5.76,2.952-8.929l6.77-19.585h6.624l-13.681,34.851H436.03L422.78,78.885Z" fill="#fff"/><path d="M464.54,97.462c.144,8.569,5.617,12.1,11.953,12.1a22.922,22.922,0,0,0,9.65-1.8l1.08,4.536a28.216,28.216,0,0,1-11.594,2.161c-10.728,0-17.137-7.057-17.137-17.57s6.192-18.794,16.345-18.794c11.377,0,14.4,10.01,14.4,16.418a24.1,24.1,0,0,1-.216,2.952Zm18.577-4.536c.073-4.032-1.656-10.3-8.784-10.3-6.409,0-9.217,5.905-9.72,10.3Z" fill="#fff"/><path d="M497.083,89.757c0-4.1-.071-7.632-.288-10.872h5.545l.216,6.84h.288c1.584-4.68,5.4-7.633,9.648-7.633a6.854,6.854,0,0,1,1.8.217v5.977a9.463,9.463,0,0,0-2.16-.217c-4.465,0-7.633,3.385-8.5,8.137a17.846,17.846,0,0,0-.288,2.953v18.577h-6.265Z" fill="#fff"/><path d="M519.764,107.255a16.6,16.6,0,0,0,8.351,2.521c4.61,0,6.77-2.3,6.77-5.185,0-3.024-1.8-4.68-6.48-6.409-6.266-2.231-9.217-5.688-9.217-9.864,0-5.617,4.535-10.226,12.024-10.226a17.407,17.407,0,0,1,8.57,2.161L538.2,84.862a13.572,13.572,0,0,0-7.129-2.017c-3.745,0-5.833,2.16-5.833,4.752,0,2.881,2.088,4.177,6.624,5.905,6.048,2.3,9.145,5.329,9.145,10.513,0,6.12-4.753,10.441-13.033,10.441a19.877,19.877,0,0,1-9.793-2.376Z" fill="#fff"/><path d="M556.2,69.092a3.925,3.925,0,0,1-7.849,0,3.862,3.862,0,0,1,3.96-3.961A3.762,3.762,0,0,1,556.2,69.092Zm-7.057,44.644V78.885h6.336v34.851Z" fill="#fff"/><path d="M573.619,68.875v10.01h9.073v4.824h-9.073V102.5c0,4.321,1.225,6.769,4.752,6.769a14.1,14.1,0,0,0,3.673-.432l.288,4.753a15.512,15.512,0,0,1-5.617.864,8.779,8.779,0,0,1-6.84-2.665c-1.8-1.872-2.448-4.968-2.448-9.072V83.709h-5.4V78.885h5.4V70.532Z" fill="#fff"/><path d="M592.77,78.885,600.4,99.479c.791,2.3,1.656,5.04,2.231,7.128h.144c.648-2.088,1.369-4.752,2.232-7.273l6.913-20.449h6.7l-9.5,24.842c-4.537,11.953-7.632,18.073-11.953,21.817a17.165,17.165,0,0,1-7.777,4.105l-1.584-5.328a16.759,16.759,0,0,0,5.545-3.1,19.206,19.206,0,0,0,5.328-7.057,4.537,4.537,0,0,0,.5-1.511,5.542,5.542,0,0,0-.432-1.656L585.857,78.885Z" fill="#fff"/><path d="M671.179,96.022c0,12.89-8.929,18.506-17.354,18.506-9.432,0-16.706-6.912-16.706-17.93,0-11.665,7.633-18.506,17.282-18.506C664.41,78.092,671.179,85.366,671.179,96.022Zm-27.65.36c0,7.633,4.391,13.394,10.585,13.394,6.048,0,10.584-5.689,10.584-13.537,0-5.906-2.952-13.394-10.441-13.394S643.529,89.757,643.529,96.382Z" fill="#fff"/><path d="M679.817,113.736V83.709h-4.9V78.885h4.9V77.229c0-4.9,1.08-9.361,4.032-12.169a12.12,12.12,0,0,1,8.5-3.24,14.692,14.692,0,0,1,5.4,1.008l-.864,4.9a9.446,9.446,0,0,0-4.032-.792c-5.4,0-6.77,4.752-6.77,10.08v1.873h8.426v4.824H686.08v30.027Z" fill="#fff"/><path d="M755.705,120.865c-6.551-1.729-12.961-3.673-18.577-5.617a9.3,9.3,0,0,0-2.952-.72c-11.521-.432-21.386-8.929-21.386-24.554,0-15.554,9.5-25.562,22.611-25.562,13.176,0,21.746,10.224,21.746,24.553,0,12.457-5.762,20.451-13.826,23.259v.288c4.824,1.224,10.081,2.376,14.185,3.1Zm-5.183-31.612c0-9.72-5.041-19.729-15.338-19.729-10.584,0-15.77,9.793-15.7,20.306-.073,10.3,5.617,19.586,15.41,19.586C744.905,109.416,750.522,100.342,750.522,89.253Z" fill="#fff"/><path d="M794.44,104.231c0,3.6.072,6.769.289,9.505h-5.617l-.36-5.689h-.144a13.112,13.112,0,0,1-11.522,6.481c-5.472,0-12.024-3.025-12.024-15.266V78.885H771.4v19.3c0,6.625,2.015,11.089,7.775,11.089a9.162,9.162,0,0,0,8.354-5.76,9.293,9.293,0,0,0,.576-3.24V78.885h6.336Z" fill="#fff"/><path d="M808.479,97.462c.142,8.569,5.615,12.1,11.951,12.1a22.922,22.922,0,0,0,9.65-1.8l1.08,4.536a28.207,28.207,0,0,1-11.593,2.161c-10.729,0-17.137-7.057-17.137-17.57s6.191-18.794,16.346-18.794c11.377,0,14.4,10.01,14.4,16.418a23.658,23.658,0,0,1-.217,2.952Zm18.576-4.536c.072-4.032-1.656-10.3-8.785-10.3-6.408,0-9.217,5.905-9.721,10.3Z" fill="#fff"/><path d="M844.549,97.462c.145,8.569,5.617,12.1,11.953,12.1a22.91,22.91,0,0,0,9.649-1.8l1.08,4.536a28.213,28.213,0,0,1-11.592,2.161c-10.731,0-17.139-7.057-17.139-17.57s6.194-18.794,16.346-18.794c11.377,0,14.4,10.01,14.4,16.418a23.982,23.982,0,0,1-.214,2.952Zm18.578-4.536c.072-4.032-1.656-10.3-8.785-10.3-6.408,0-9.217,5.905-9.721,10.3Z" fill="#fff"/><path d="M877.092,88.318c0-3.6-.072-6.553-.287-9.433h5.615l.362,5.76h.142a12.82,12.82,0,0,1,11.522-6.553c4.824,0,12.312,2.881,12.312,14.834v20.81h-6.336V93.646c0-5.616-2.088-10.3-8.064-10.3a9.3,9.3,0,0,0-8.93,9.433v20.954h-6.336Z" fill="#fff"/><path d="M916.188,107.255a16.612,16.612,0,0,0,8.353,2.521c4.608,0,6.768-2.3,6.768-5.185,0-3.024-1.8-4.68-6.481-6.409-6.263-2.231-9.216-5.688-9.216-9.864,0-5.617,4.537-10.226,12.025-10.226a17.387,17.387,0,0,1,8.568,2.161l-1.584,4.609a13.559,13.559,0,0,0-7.129-2.017c-3.744,0-5.832,2.16-5.832,4.752,0,2.881,2.088,4.177,6.625,5.905,6.049,2.3,9.145,5.329,9.145,10.513,0,6.12-4.752,10.441-13.033,10.441a19.877,19.877,0,0,1-9.793-2.376Z" fill="#fff"/><path d="M945.565,62.612H951.9v51.124h-6.336Z" fill="#fff"/><path d="M981.852,113.736l-.5-4.393h-.215a12.982,12.982,0,0,1-10.658,5.185c-7.057,0-10.656-4.969-10.656-10.009,0-8.425,7.488-13.033,20.953-12.961v-.721c0-2.879-.791-8.064-7.92-8.064a17.361,17.361,0,0,0-9.072,2.593l-1.442-4.177a21.634,21.634,0,0,1,11.449-3.1c10.659,0,13.25,7.274,13.25,14.258v13.033a49.064,49.064,0,0,0,.577,8.353Zm-.936-17.785c-6.912-.145-14.761,1.08-14.761,7.848,0,4.1,2.736,6.048,5.976,6.048a8.672,8.672,0,0,0,8.426-5.832,6.642,6.642,0,0,0,.359-2.016Z" fill="#fff"/><path d="M997.26,88.318c0-3.6-.072-6.553-.289-9.433h5.617l.36,5.76h.144a12.818,12.818,0,0,1,11.522-6.553c4.824,0,12.312,2.881,12.312,14.834v20.81h-6.336V93.646c0-5.616-2.09-10.3-8.066-10.3a9,9,0,0,0-8.5,6.481,9.11,9.11,0,0,0-.432,2.952v20.954H997.26Z" fill="#fff"/><path d="M1067.317,62.612v42.123c0,3.1.072,6.625.289,9h-5.69l-.287-6.049h-.144c-1.946,3.889-6.194,6.841-11.881,6.841-8.426,0-14.906-7.129-14.906-17.714-.073-11.593,7.128-18.722,15.625-18.722,5.33,0,8.929,2.521,10.513,5.329h.145V62.612Zm-6.336,30.458a11.186,11.186,0,0,0-.289-2.664,9.32,9.32,0,0,0-9.145-7.345c-6.553,0-10.441,5.761-10.441,13.465,0,7.057,3.457,12.89,10.3,12.89a9.526,9.526,0,0,0,9.289-7.561,11.01,11.01,0,0,0,.289-2.736Z" fill="#fff"/><path d="M358.345,184.661c-2.088,1.08-6.7,2.16-12.529,2.16-15.409,0-24.77-9.649-24.77-24.41,0-15.986,11.089-25.634,25.922-25.634,5.833,0,10.009,1.223,11.809,2.16l-1.944,7.057a23.579,23.579,0,0,0-9.505-1.872c-9.865,0-16.994,6.192-16.994,17.857,0,10.657,6.265,17.5,16.922,17.5a24.792,24.792,0,0,0,9.649-1.8Z" fill="#fff"/><path d="M397.73,168.244c0,12.888-9.073,18.649-18,18.649-9.937,0-17.57-6.841-17.57-18.073,0-11.522,7.561-18.578,18.146-18.578C390.744,150.242,397.73,157.586,397.73,168.244Zm-26.427.36c0,6.769,3.312,11.881,8.713,11.881,5.04,0,8.568-4.969,8.568-12.026,0-5.472-2.448-11.737-8.5-11.737C373.824,156.722,371.3,162.771,371.3,168.6Z" fill="#fff"/><path d="M405,161.475c0-4.032-.072-7.417-.288-10.441h7.633l.359,5.184h.216a12.133,12.133,0,0,1,10.8-5.976,10.111,10.111,0,0,1,9.721,6.48h.143a13.273,13.273,0,0,1,4.321-4.391,11.7,11.7,0,0,1,7.056-2.089c5.833,0,11.738,3.961,11.738,15.193V186.1h-8.641v-19.37c0-5.832-2.017-9.288-6.265-9.288a6.753,6.753,0,0,0-6.192,4.68,12.682,12.682,0,0,0-.433,2.953V186.1h-8.64V165.8c0-4.9-1.945-8.352-6.048-8.352-3.313,0-5.545,2.592-6.337,5.04a7.56,7.56,0,0,0-.5,2.881V186.1H405Z" fill="#fff"/><path d="M466.054,162.7c0-4.609-.145-8.353-.288-11.665h7.776l.432,5.4h.144c2.592-3.96,6.7-6.192,12.026-6.192,8.064,0,14.761,6.913,14.761,17.857,0,12.674-7.993,18.794-15.986,18.794-4.392,0-8.064-1.872-9.864-4.681h-.145v18.146h-8.856Zm8.856,8.713a9.125,9.125,0,0,0,.289,2.448,8.008,8.008,0,0,0,7.776,6.192c5.617,0,8.929-4.679,8.929-11.593,0-6.192-3.024-11.232-8.713-11.232a8.253,8.253,0,0,0-7.92,6.552,8.036,8.036,0,0,0-.361,2.232Z" fill="#fff"/><path d="M539.568,175.588c0,4.176.143,7.633.288,10.513h-7.777l-.432-5.328H531.5a12.683,12.683,0,0,1-11.233,6.12c-6.408,0-12.241-3.816-12.241-15.266V151.034h8.857v19.082c0,5.832,1.872,9.577,6.552,9.577a7.463,7.463,0,0,0,6.768-4.753,8.048,8.048,0,0,0,.5-2.736v-21.17h8.857Z" fill="#fff"/><path d="M559.292,141.025v10.009h8.425v6.625h-8.425V173.14c0,4.248,1.153,6.481,4.537,6.481a13.035,13.035,0,0,0,3.456-.433l.144,6.77a19.49,19.49,0,0,1-6.408.863,10.255,10.255,0,0,1-7.633-2.88c-1.872-2.017-2.736-5.185-2.736-9.793V157.659h-5.04v-6.625h5.04v-7.92Z" fill="#fff"/><path d="M583.844,141.241a4.971,4.971,0,1,1-4.968-4.825A4.693,4.693,0,0,1,583.844,141.241Zm-9.433,44.86V151.034h8.929V186.1Z" fill="#fff"/><path d="M592.843,161.475c0-4.032-.072-7.417-.288-10.441h7.777l.432,5.257h.216a12.642,12.642,0,0,1,11.161-6.049c6.12,0,12.457,3.961,12.457,15.049V186.1h-8.857V166.3c0-5.04-1.872-8.856-6.7-8.856a7.431,7.431,0,0,0-6.912,5.184,9.027,9.027,0,0,0-.36,2.88V186.1h-8.929Z" fill="#fff"/><path d="M666.07,151.034c-.145,2.377-.288,5.257-.288,10.081v19.874c0,7.344-1.513,12.6-5.185,15.913-3.673,3.24-8.713,4.248-13.537,4.248-4.465,0-9.217-.936-12.241-2.808l1.944-6.7a21.172,21.172,0,0,0,10.225,2.664c5.76,0,10.081-3.024,10.081-10.585V180.7h-.145a11.839,11.839,0,0,1-10.225,5.184c-8.712,0-14.9-7.2-14.9-17.137,0-11.521,7.488-18.506,15.913-18.506,5.329,0,8.5,2.592,10.154,5.472H658l.361-4.68Zm-9.146,14.042a8.564,8.564,0,0,0-.288-2.377,7.354,7.354,0,0,0-7.2-5.689c-4.969,0-8.641,4.321-8.641,11.449,0,5.977,3.025,10.8,8.569,10.8a7.564,7.564,0,0,0,7.2-5.328,15.253,15.253,0,0,0,.359-3.168Z" fill="#fff"/><path d="M690.329,176.453a24.537,24.537,0,0,0,11.737,3.095c5.688,0,8.856-2.664,8.856-6.624,0-3.673-2.447-5.833-8.64-8.065-7.993-2.88-13.105-7.128-13.105-14.113,0-7.92,6.624-13.969,17.137-13.969a25.633,25.633,0,0,1,11.665,2.448l-2.16,7.129a20.536,20.536,0,0,0-9.649-2.305c-5.616,0-8.064,3.025-8.064,5.833,0,3.744,2.807,5.472,9.288,7.993,8.425,3.167,12.529,7.416,12.529,14.4,0,7.776-5.9,14.545-18.433,14.545-5.113,0-10.441-1.44-13.105-3.024Z" fill="#fff"/><path d="M761.323,168.244c0,12.888-9.073,18.649-18,18.649-9.937,0-17.57-6.841-17.57-18.073,0-11.522,7.561-18.578,18.146-18.578C754.338,150.242,761.323,157.586,761.323,168.244Zm-26.426.36c0,6.769,3.312,11.881,8.713,11.881,5.04,0,8.568-4.969,8.568-12.026,0-5.472-2.448-11.737-8.5-11.737C737.417,156.722,734.9,162.771,734.9,168.6Z" fill="#fff"/><path d="M794.369,185.021a25.635,25.635,0,0,1-9.936,1.8c-10.945,0-18.073-6.985-18.073-17.858,0-10.512,7.2-18.721,19.513-18.721a22.1,22.1,0,0,1,8.569,1.656l-1.584,6.625a15.611,15.611,0,0,0-6.7-1.368c-6.768,0-10.8,4.968-10.729,11.377,0,7.2,4.681,11.3,10.729,11.3a17.33,17.33,0,0,0,6.985-1.368Z" fill="#fff"/><path d="M810.352,141.241a4.971,4.971,0,1,1-4.969-4.825A4.694,4.694,0,0,1,810.352,141.241Zm-9.434,44.86V151.034h8.93V186.1Z" fill="#fff"/><path d="M825.615,171.052c.216,6.336,5.184,9.073,10.8,9.073a26.381,26.381,0,0,0,9.721-1.584l1.3,6.12a33.029,33.029,0,0,1-12.241,2.16c-11.377,0-18.074-6.985-18.074-17.713,0-9.721,5.9-18.866,17.137-18.866,11.378,0,15.122,9.361,15.122,17.065a21.817,21.817,0,0,1-.288,3.745Zm15.41-6.193c.071-3.24-1.368-8.568-7.274-8.568-5.471,0-7.776,4.968-8.136,8.568Z" fill="#fff"/><path d="M866.655,141.025v10.009h8.424v6.625h-8.424V173.14c0,4.248,1.152,6.481,4.536,6.481a13.05,13.05,0,0,0,3.457-.433l.143,6.77a19.49,19.49,0,0,1-6.408.863,10.257,10.257,0,0,1-7.633-2.88c-1.872-2.017-2.736-5.185-2.736-9.793V157.659h-5.041v-6.625h5.041v-7.92Z" fill="#fff"/><path d="M887.821,151.034l6.336,18.794c.72,2.16,1.44,4.824,1.944,6.84h.217c.576-2.016,1.223-4.608,1.872-6.913l5.472-18.721h9.5l-8.785,23.906c-4.824,13.1-8.064,18.937-12.241,22.538a17.807,17.807,0,0,1-9.289,4.536l-2.016-7.488a15.182,15.182,0,0,0,5.185-2.448,15.451,15.451,0,0,0,4.824-5.545,3.556,3.556,0,0,0,.576-1.584,3.752,3.752,0,0,0-.5-1.728L878.1,151.034Z" fill="#fff"/><path d="M194.044,7.5H91.109A32.14,32.14,0,0,0,63.274,23.571L11.806,112.715a32.145,32.145,0,0,0,0,32.142L63.274,234a32.14,32.14,0,0,0,27.835,16.071H194.044A32.143,32.143,0,0,0,221.88,234l51.467-89.144a32.14,32.14,0,0,0,0-32.142L221.88,23.571A32.143,32.143,0,0,0,194.044,7.5Z" fill="#5397d1" stroke="#fff" stroke-miterlimit="10" stroke-width="15"/><path d="M164.179,208.427V197.3c11.045-.139,17.371-7.781,17.371-21.015V156.393c0-13.867,4.092-21.449,13.269-24.586a3.639,3.639,0,0,0,2.5-3.472,3.69,3.69,0,0,0-2.478-3.492c-8.941-3.12-13.287-11.021-13.287-24.153v-20c0-20.418-12.978-20.418-17.242-20.418h-.129V49.145h2.711c19.178,0,30.178,10.96,30.178,30.07V100.8c0,12.591,3.36,20.619,19.612,21.346v12.936c-16.252.831-19.612,8.777-19.612,21.2v22.275c0,26.958-21.1,29.868-30.178,29.868Z" fill="#fff" stroke="#fff" stroke-miterlimit="10" stroke-width="2.5"/><path d="M164.179,208.427V197.3c11.045-.139,17.371-7.781,17.371-21.015V156.393c0-13.867,4.092-21.449,13.269-24.586a3.639,3.639,0,0,0,2.5-3.472,3.69,3.69,0,0,0-2.478-3.492c-8.941-3.12-13.287-11.021-13.287-24.153v-20c0-20.418-12.978-20.418-17.242-20.418h-.129V49.145h2.711c19.178,0,30.178,10.96,30.178,30.07V100.8c0,12.591,3.36,20.619,19.612,21.346v12.936c-16.252.831-19.612,8.777-19.612,21.2v22.275c0,26.958-21.1,29.868-30.178,29.868Z" fill="#fff" stroke="#fff" stroke-miterlimit="10" stroke-width="2.5"/><path d="M120.975,208.427V197.3c-11.045-.139-17.371-7.781-17.371-21.015V156.393c0-13.867-4.093-21.449-13.27-24.586a3.639,3.639,0,0,1-2.5-3.472,3.69,3.69,0,0,1,2.479-3.492c8.94-3.12,13.287-11.021,13.287-24.153v-20c0-20.418,12.977-20.418,17.242-20.418h.129V49.145h-2.711c-19.179,0-30.179,10.96-30.179,30.07V100.8c0,12.591-3.359,20.619-19.611,21.346v12.936c16.252.831,19.611,8.777,19.611,21.2v22.275c0,26.958,21.105,29.868,30.179,29.868Z" fill="#fff" stroke="#fff" stroke-miterlimit="10" stroke-width="2.5"/><path d="M120.975,208.427V197.3c-11.045-.139-17.371-7.781-17.371-21.015V156.393c0-13.867-4.093-21.449-13.27-24.586a3.639,3.639,0,0,1-2.5-3.472,3.69,3.69,0,0,1,2.479-3.492c8.94-3.12,13.287-11.021,13.287-24.153v-20c0-20.418,12.977-20.418,17.242-20.418h.129V49.145h-2.711c-19.179,0-30.179,10.96-30.179,30.07V100.8c0,12.591-3.359,20.619-19.611,21.346v12.936c16.252.831,19.611,8.777,19.611,21.2v22.275c0,26.958,21.105,29.868,30.179,29.868Z" fill="#fff" stroke="#fff" stroke-miterlimit="10" stroke-width="2.5"/></g></g></svg>