<?xml version="1.0" encoding="UTF-8" standalone="no"?>
<svg width="2679px" height="676px" viewBox="0 0 2679 676" version="1.1" xmlns="http://www.w3.org/2000/svg" xmlns:xlink="http://www.w3.org/1999/xlink">
    <!-- Generator: Sketch 39.1 (31720) - http://www.bohemiancoding.com/sketch -->
    <title>Slice 1</title>
    <desc>Created with Sketch.</desc>
    <defs></defs>
    <g id="Page-1" stroke="none" stroke-width="1" fill="none" fill-rule="evenodd">
        <g id="logo">
            <g id="Page-1">
                <g id="Logo-Light">
                    <g id="hexagon1-+-{-+-}" transform="translate(110.000000, 0.000000)">
                        <g id="hexagon1" fill="#3498DB">
                            <path d="M485.913634,197.335437 L385.614618,23.1618007 C377.492341,9.06473435 362.509826,0.39323073 346.289719,0.39323073 L145.700853,0.39323073 C129.481764,0.39323073 114.503324,9.06473435 106.374936,23.1618007 L6.08203099,197.335437 C-2.02700413,211.431482 -2.02700413,228.778574 6.08203099,242.876662 L106.374936,417.065619 C114.503324,431.162685 129.481764,439.83521 145.700853,439.83521 L346.2887,439.83521 C362.509826,439.83521 377.492341,431.162685 385.613599,417.065619 L485.913634,242.876662 C494.021651,228.778574 494.021651,211.431482 485.913634,197.335437 L485.913634,197.335437 L485.913634,197.335437 Z" id="Shape"></path>
                        </g>
                        <g id="{" transform="translate(107.000000, 82.000000)" fill="#FFFFFF">
                            <path d="M105.784244,265.814916 L95.2047307,265.814916 C76.8096294,265.814916 63.1326478,261.502139 54.1733756,252.876457 C45.2141035,244.250775 40.7345346,231.16948 40.7345346,213.632182 L40.7345346,164.451742 C40.7345346,159.781483 40.2103297,155.611672 39.1619042,151.942183 C38.1134788,148.272694 36.2787617,145.175119 33.6576981,142.649367 C31.0366344,140.123615 27.5578203,138.193588 23.2211513,136.859228 C18.8844823,135.524868 13.4279862,134.857699 6.85149918,134.857699 L0.703944235,134.857699 L0.703944235,114.98537 L6.85149918,114.98537 C13.8092318,114.98537 19.4801754,114.41351 23.8645001,113.269773 C28.2488247,112.126036 31.6799839,110.386629 34.1580804,108.0515 C36.636177,105.71637 38.3517566,102.737934 39.3048706,99.1161001 C40.2579847,95.4942667 40.7345346,91.2053177 40.7345346,86.2491246 L40.7345346,52.3660893 C40.7345346,44.3599312 41.6876343,37.1402005 43.5938624,30.7066806 C45.5000906,24.2731607 48.6214923,18.792837 52.9581613,14.2655452 C57.2948302,9.73825346 62.9181188,6.25943932 69.8281958,3.82899847 C76.7382727,1.39855762 85.1970331,0.183355426 95.2047307,0.183355426 L105.784244,0.183355426 L105.784244,20.1986506 L97.3492266,20.1986506 C75.2369804,20.1986506 64.1810232,30.9210229 64.1810232,52.3660893 L64.1810232,85.6772591 C64.1810232,108.933242 54.1258207,122.038364 34.015114,124.993017 C54.3164435,126.994557 64.466956,140.052024 64.466956,164.165809 L64.466956,213.060316 C64.466956,234.886628 75.4276032,245.79962 97.3492266,245.79962 L105.784244,245.79962 L105.784244,265.814916 Z"></path>
                        </g>
                        <g id="}" transform="translate(279.000000, 82.000000)" fill="#FFFFFF">
                            <path d="M0.239304236,0.183355426 L10.8188174,0.183355426 C29.2139187,0.183355426 42.8909003,4.49613185 51.8501725,13.1218141 C60.8094446,21.7474963 65.2890135,34.8287906 65.2890135,52.3660893 L65.2890135,85.3913263 C65.2890135,90.0615852 65.8132184,94.2313966 66.8616439,97.9008858 C67.9100693,101.570375 69.7447864,104.667949 72.36585,107.193701 C74.9869137,109.719454 78.4895553,111.649481 82.87388,112.98384 C87.2582047,114.3182 92.7385283,114.98537 99.3150153,114.98537 L105.46257,114.98537 L105.46257,134.857699 L99.3150153,134.857699 C92.3572827,134.857699 86.6625116,135.429558 82.2305312,136.573295 C77.7985508,137.717032 74.3435642,139.456439 71.8654677,141.791569 C69.3873711,144.126698 67.6717915,147.105135 66.7186775,150.726968 C65.7655634,154.348802 65.2890135,158.637751 65.2890135,163.593944 L65.2890135,213.632182 C65.2890135,221.63834 64.3359138,228.858071 62.4296856,235.29159 C60.5234575,241.72511 57.4258833,247.205434 53.13687,251.732726 C48.8478568,256.260018 43.2245682,259.738832 36.2668355,262.169273 C29.3091029,264.599713 20.826515,265.814916 10.8188174,265.814916 L0.239304236,265.814916 L0.239304236,245.79962 L8.81728788,245.79962 C30.8342226,245.79962 41.8425249,235.077248 41.8425249,213.632182 L41.8425249,164.165809 C41.8425249,140.909826 51.8977274,127.85236 72.008434,124.993017 C51.7071046,122.800855 41.5565921,109.695733 41.5565921,85.6772591 L41.5565921,52.9379548 C41.5565921,31.1116429 30.6435998,20.1986506 8.81728788,20.1986506 L0.239304236,20.1986506 L0.239304236,0.183355426 Z"></path>
                        </g>
                    </g>
                    <g id="UQ-Computing-Society" transform="translate(0.000000, 505.000000)" fill="#3498DB">
                        <path d="M0.125,1.647507 L9.90625,1.647507 L9.90625,29.960007 C9.90625,33.1266895 10.2812462,35.4391664 11.03125,36.897507 C12.1979225,39.4808533 14.7395638,40.772507 18.65625,40.772507 C22.5521028,40.772507 25.0833275,39.4808533 26.25,36.897507 C27.0000038,35.4391664 27.375,33.1266895 27.375,29.960007 L27.375,1.647507 L37.15625,1.647507 L37.15625,29.960007 C37.15625,34.8558648 36.3958409,38.6683267 34.875,41.397507 C32.0416525,46.397532 26.6354566,48.897507 18.65625,48.897507 C10.6770434,48.897507 5.26043094,46.397532 2.40625,41.397507 C0.885409062,38.6683267 0.125,34.8558648 0.125,29.960007 L0.125,1.647507 Z M69.8125,40.428757 C70.3750028,40.2829229 71.0937456,40.0225089 71.96875,39.647507 L67.3125,35.210007 L72.28125,30.022507 L76.9375,34.460007 C77.6666703,32.9599995 78.1770819,31.6475126 78.46875,30.522507 C78.9270856,28.8349986 79.15625,26.8662683 79.15625,24.616257 C79.15625,19.4495645 78.0989689,15.4548128 75.984375,12.631882 C73.8697811,9.80895122 70.7812703,8.397507 66.71875,8.397507 C62.9062309,8.397507 59.8645947,9.75166013 57.59375,12.460007 C55.3229053,15.1683539 54.1875,19.2203967 54.1875,24.616257 C54.1875,30.9287886 55.8124837,35.4495767 59.0625,38.178757 C61.1666772,39.9495992 63.6874853,40.835007 66.625,40.835007 C67.7291722,40.835007 68.7916616,40.6995917 69.8125,40.428757 L69.8125,40.428757 Z M87.28125,34.241257 C86.4687459,36.8871036 85.2708413,39.0849983 83.6875,40.835007 L89,45.803757 L83.96875,51.053757 L78.40625,45.803757 C76.7187416,46.8245954 75.2604228,47.5433383 74.03125,47.960007 C71.9687397,48.6475104 69.5000144,48.991257 66.625,48.991257 C60.62497,48.991257 55.6666862,47.1996083 51.75,43.616257 C46.9999763,39.3037354 44.625,32.9704654 44.625,24.616257 C44.625,16.1995483 47.0624756,9.83502856 51.9375,5.522507 C55.9166866,2.00165606 60.8645537,0.241257 66.78125,0.241257 C72.7396131,0.241257 77.7395631,2.10582169 81.78125,5.835007 C86.44794,10.1475286 88.78125,16.1787183 88.78125,23.928757 C88.78125,28.0329442 88.281255,31.4704098 87.28125,34.241257 L87.28125,34.241257 Z M118.375,6.460007 C122.125019,2.66832138 126.895804,0.772507 132.6875,0.772507 C140.437539,0.772507 146.104149,3.31414825 149.6875,8.397507 C151.666677,11.2516879 152.729166,14.1162426 152.875,16.991257 L143.25,16.991257 C142.624997,14.7829126 141.822922,13.1162626 140.84375,11.991257 C139.093741,9.991247 136.500017,8.991257 133.0625,8.991257 C129.562482,8.991257 126.802093,10.4027012 124.78125,13.225632 C122.760407,16.0485628 121.75,20.0433145 121.75,25.210007 C121.75,30.3766995 122.817698,34.2464525 124.953125,36.819382 C127.088552,39.3923115 129.802067,40.678757 133.09375,40.678757 C136.468767,40.678757 139.041658,39.5746014 140.8125,37.366257 C141.791672,36.1787511 142.604163,34.3975189 143.25,32.022507 L152.78125,32.022507 C151.947913,37.0433654 149.817725,41.1266579 146.390625,44.272507 C142.963525,47.4183561 138.572943,48.991257 133.21875,48.991257 C126.593717,48.991257 121.385436,46.8662783 117.59375,42.616257 C113.802064,38.3454023 111.90625,32.4912942 111.90625,25.053757 C111.90625,17.0120501 114.062478,10.8141954 118.375,6.460007 L118.375,6.460007 Z M180.6875,38.647507 C182.08334,36.7933311 182.78125,34.1579408 182.78125,30.741257 C182.78125,27.3245733 182.08334,24.6943912 180.6875,22.850632 C179.29166,21.0068728 177.29168,20.085007 174.6875,20.085007 C172.08332,20.085007 170.078132,21.0068728 168.671875,22.850632 C167.265618,24.6943912 166.5625,27.3245733 166.5625,30.741257 C166.5625,34.1579408 167.265618,36.7933311 168.671875,38.647507 C170.078132,40.5016829 172.08332,41.428757 174.6875,41.428757 C177.29168,41.428757 179.29166,40.5016829 180.6875,38.647507 L180.6875,38.647507 Z M187.8125,43.569382 C184.937486,47.1214831 180.572946,48.897507 174.71875,48.897507 C168.864554,48.897507 164.500014,47.1214831 161.625,43.569382 C158.749986,40.0172809 157.3125,35.741282 157.3125,30.741257 C157.3125,25.8245658 158.749986,21.5641917 161.625,17.960007 C164.500014,14.3558223 168.864554,12.553757 174.71875,12.553757 C180.572946,12.553757 184.937486,14.3558223 187.8125,17.960007 C190.687514,21.5641917 192.125,25.8245658 192.125,30.741257 C192.125,35.741282 190.687514,40.0172809 187.8125,43.569382 L187.8125,43.569382 Z M241,13.772507 C242.458341,14.3558433 243.781244,15.3766664 244.96875,16.835007 C245.927088,18.0225129 246.572915,19.4808317 246.90625,21.210007 C247.114584,22.3558461 247.21875,24.0329126 247.21875,26.241257 L247.15625,47.710007 L238.03125,47.710007 L238.03125,26.022507 C238.03125,24.7308339 237.822919,23.6683445 237.40625,22.835007 C236.614579,21.2516658 235.156261,20.460007 233.03125,20.460007 C230.572904,20.460007 228.875005,21.4808301 227.9375,23.522507 C227.458331,24.6058458 227.21875,25.9079161 227.21875,27.428757 L227.21875,47.710007 L218.25,47.710007 L218.25,27.428757 C218.25,25.4079136 218.041669,23.9391783 217.625,23.022507 C216.874996,21.3766654 215.406261,20.553757 213.21875,20.553757 C210.677071,20.553757 208.968754,21.3766654 208.09375,23.022507 C207.614581,23.9600117 207.375,25.3558311 207.375,27.210007 L207.375,47.710007 L198.34375,47.710007 L198.34375,13.710007 L207,13.710007 L207,18.678757 C208.104172,16.9079148 209.145828,15.6475108 210.125,14.897507 C211.854175,13.564167 214.093736,12.897507 216.84375,12.897507 C219.44793,12.897507 221.552075,13.4704179 223.15625,14.616257 C224.447923,15.6787623 225.42708,17.043332 226.09375,18.710007 C227.260423,16.709997 228.708325,15.2412617 230.4375,14.303757 C232.270843,13.3662523 234.312489,12.897507 236.5625,12.897507 C238.062507,12.897507 239.541659,13.1891708 241,13.772507 L241,13.772507 Z M277.078125,23.710007 C275.880202,21.6891636 273.937513,20.678757 271.25,20.678757 C268.020817,20.678757 265.802089,22.2099917 264.59375,25.272507 C263.968747,26.8975151 263.65625,28.9599945 263.65625,31.460007 C263.65625,35.4183601 264.708323,38.1995823 266.8125,39.803757 C268.062506,40.7412617 269.541658,41.210007 271.25,41.210007 C273.729179,41.210007 275.619785,40.2516833 276.921875,38.335007 C278.223965,36.4183308 278.875,33.8662729 278.875,30.678757 C278.875,28.0537439 278.276048,25.7308504 277.078125,23.710007 L277.078125,23.710007 Z M283.921875,17.303757 C286.682305,20.2412717 288.0625,24.5537286 288.0625,30.241257 C288.0625,36.241287 286.713555,40.8141579 284.015625,43.960007 C281.317695,47.1058561 277.843771,48.678757 273.59375,48.678757 C270.885403,48.678757 268.635426,48.0016804 266.84375,46.647507 C265.864578,45.8975033 264.906255,44.8037642 263.96875,43.366257 L263.96875,61.116257 L255.15625,61.116257 L255.15625,13.647507 L263.6875,13.647507 L263.6875,18.678757 C264.645838,17.1995829 265.666661,16.0329279 266.75,15.178757 C268.729177,13.6579161 271.08332,12.897507 273.8125,12.897507 C277.791687,12.897507 281.161445,14.3662423 283.921875,17.303757 L283.921875,17.303757 Z M303.375,13.647507 L303.375,34.178757 C303.375,36.1162667 303.604164,37.5745854 304.0625,38.553757 C304.875004,40.2829323 306.468738,41.147507 308.84375,41.147507 C311.885432,41.147507 313.968744,39.9183526 315.09375,37.460007 C315.677086,36.126667 315.96875,34.3662679 315.96875,32.178757 L315.96875,13.647507 L325,13.647507 L325,47.710007 L316.34375,47.710007 L316.34375,42.897507 C316.260416,43.0016742 316.052085,43.3141711 315.71875,43.835007 C315.385415,44.3558429 314.989586,44.8141717 314.53125,45.210007 C313.13541,46.4600133 311.786465,47.3141714 310.484375,47.772507 C309.182285,48.2308426 307.656259,48.460007 305.90625,48.460007 C300.864558,48.460007 297.468759,46.6475251 295.71875,43.022507 C294.739578,41.022497 294.25,38.0746098 294.25,34.178757 L294.25,13.647507 L303.375,13.647507 Z M330.09375,20.303757 L330.09375,13.960007 L334.84375,13.960007 L334.84375,4.460007 L343.65625,4.460007 L343.65625,13.960007 L349.1875,13.960007 L349.1875,20.303757 L343.65625,20.303757 L343.65625,38.303757 C343.65625,39.6995973 343.833332,40.5693803 344.1875,40.913132 C344.541668,41.2568837 345.624991,41.428757 347.4375,41.428757 C347.708335,41.428757 347.99479,41.4235487 348.296875,41.413132 C348.59896,41.4027153 348.895832,41.3870904 349.1875,41.366257 L349.1875,48.022507 L344.96875,48.178757 C340.760396,48.3245911 337.885424,47.5954317 336.34375,45.991257 C335.343745,44.9704186 334.84375,43.3975176 334.84375,41.272507 L334.84375,20.303757 L330.09375,20.303757 Z M364.0625,9.585007 L355.03125,9.585007 L355.03125,1.366257 L364.0625,1.366257 L364.0625,9.585007 Z M355.03125,13.647507 L364.0625,13.647507 L364.0625,47.710007 L355.03125,47.710007 L355.03125,13.647507 Z M400.203125,15.600632 C402.44272,17.4443912 403.5625,20.5016523 403.5625,24.772507 L403.5625,47.710007 L394.4375,47.710007 L394.4375,26.991257 C394.4375,25.1995814 394.197919,23.8245951 393.71875,22.866257 C392.843746,21.1162483 391.177096,20.241257 388.71875,20.241257 C385.697902,20.241257 383.625006,21.5224942 382.5,24.085007 C381.916664,25.4391804 381.625,27.1683298 381.625,29.272507 L381.625,47.710007 L372.75,47.710007 L372.75,13.710007 L381.34375,13.710007 L381.34375,18.678757 C382.489589,16.9287483 383.572912,15.6683442 384.59375,14.897507 C386.427092,13.5225001 388.749986,12.835007 391.5625,12.835007 C395.083351,12.835007 397.96353,13.7568728 400.203125,15.600632 L400.203125,15.600632 Z M431.6875,38.038132 C433.125007,36.4652075 433.84375,33.9600242 433.84375,30.522507 C433.84375,27.2933242 433.161465,24.8350154 431.796875,23.147507 C430.432285,21.4599986 428.604178,20.616257 426.3125,20.616257 C423.187484,20.616257 421.031256,22.0849923 419.84375,25.022507 C419.218747,26.5850148 418.90625,28.5120789 418.90625,30.803757 C418.90625,32.7829336 419.23958,34.5433326 419.90625,36.085007 C421.114589,38.9600214 423.281234,40.397507 426.40625,40.397507 C428.489594,40.397507 430.249993,39.6110565 431.6875,38.038132 L431.6875,38.038132 Z M428.65625,13.616257 C430.822927,14.5120948 432.57291,16.1579117 433.90625,18.553757 L433.90625,13.647507 L442.5625,13.647507 L442.5625,45.960007 C442.5625,50.3558623 441.822924,53.6683292 440.34375,55.897507 C437.802071,59.7308595 432.927119,61.647507 425.71875,61.647507 C421.364562,61.647507 417.812514,60.7933489 415.0625,59.085007 C412.312486,57.3766651 410.791668,54.8246073 410.5,51.428757 L420.1875,51.428757 C420.437501,52.4704289 420.843747,53.2204214 421.40625,53.678757 C422.364588,54.4912611 423.979155,54.897507 426.25,54.897507 C429.458349,54.897507 431.604161,53.8246011 432.6875,51.678757 C433.395837,50.3037501 433.75,47.9912733 433.75,44.741257 L433.75,42.553757 C432.895829,44.0120976 431.979172,45.1058367 431,45.835007 C429.229158,47.1891804 426.927098,47.866257 424.09375,47.866257 C419.718728,47.866257 416.223971,46.329814 413.609375,43.256882 C410.994779,40.18395 409.6875,36.0225333 409.6875,30.772507 C409.6875,25.7099817 410.947904,21.4548159 413.46875,18.006882 C415.989596,14.5589481 419.562477,12.835007 424.1875,12.835007 C425.895842,12.835007 427.38541,13.0954211 428.65625,13.616257 L428.65625,13.616257 Z M476.34375,33.491257 C476.635418,35.5954342 477.208329,37.1683351 478.0625,38.210007 C479.625008,40.1058498 482.302064,41.053757 486.09375,41.053757 C488.364595,41.053757 490.208326,40.8037595 491.625,40.303757 C494.312513,39.3454189 495.65625,37.5641867 495.65625,34.960007 C495.65625,33.4391661 494.98959,32.2620945 493.65625,31.428757 C492.32291,30.6162529 490.229181,29.8975101 487.375,29.272507 L482.5,28.178757 C477.708309,27.0954183 474.395842,25.9183467 472.5625,24.647507 C469.458318,22.5224964 467.90625,19.1996129 467.90625,14.678757 C467.90625,10.5537364 469.406235,7.12668731 472.40625,4.397507 C475.406265,1.66832669 479.812471,0.303757 485.625,0.303757 C490.479191,0.303757 494.619775,1.59020247 498.046875,4.163132 C501.473975,6.73606153 503.270832,10.4703992 503.4375,15.366257 L494.1875,15.366257 C494.020832,12.5954098 492.812511,10.6266795 490.5625,9.460007 C489.062492,8.68916981 487.197928,8.303757 484.96875,8.303757 C482.489571,8.303757 480.510424,8.803752 479.03125,9.803757 C477.552076,10.803762 476.8125,12.1995814 476.8125,13.991257 C476.8125,15.6370986 477.541659,16.8662529 479,17.678757 C479.937505,18.2204264 481.937485,18.8558367 485,19.585007 L492.9375,21.491257 C496.416684,22.3245945 499.041658,23.4391667 500.8125,24.835007 C503.562514,27.0016845 504.9375,30.1370698 504.9375,34.241257 C504.9375,38.4496114 503.328141,41.9443681 500.109375,44.725632 C496.890609,47.5068959 492.343779,48.897507 486.46875,48.897507 C480.46872,48.897507 475.750017,47.527729 472.3125,44.788132 C468.874983,42.048535 467.15625,38.2829476 467.15625,33.491257 L476.34375,33.491257 Z M532.625,38.647507 C534.02084,36.7933311 534.71875,34.1579408 534.71875,30.741257 C534.71875,27.3245733 534.02084,24.6943912 532.625,22.850632 C531.22916,21.0068728 529.22918,20.085007 526.625,20.085007 C524.02082,20.085007 522.015632,21.0068728 520.609375,22.850632 C519.203118,24.6943912 518.5,27.3245733 518.5,30.741257 C518.5,34.1579408 519.203118,36.7933311 520.609375,38.647507 C522.015632,40.5016829 524.02082,41.428757 526.625,41.428757 C529.22918,41.428757 531.22916,40.5016829 532.625,38.647507 L532.625,38.647507 Z M539.75,43.569382 C536.874986,47.1214831 532.510446,48.897507 526.65625,48.897507 C520.802054,48.897507 516.437514,47.1214831 513.5625,43.569382 C510.687486,40.0172809 509.25,35.741282 509.25,30.741257 C509.25,25.8245658 510.687486,21.5641917 513.5625,17.960007 C516.437514,14.3558223 520.802054,12.553757 526.65625,12.553757 C532.510446,12.553757 536.874986,14.3558223 539.75,17.960007 C542.625014,21.5641917 544.0625,25.8245658 544.0625,30.741257 C544.0625,35.741282 542.625014,40.0172809 539.75,43.569382 L539.75,43.569382 Z M570.78125,25.866257 C570.614582,24.5954173 570.187503,23.4495954 569.5,22.428757 C568.499995,21.0537501 566.947927,20.366257 564.84375,20.366257 C561.843735,20.366257 559.791672,21.8558254 558.6875,24.835007 C558.104164,26.4183483 557.8125,28.5224939 557.8125,31.147507 C557.8125,33.6475195 558.104164,35.6579161 558.6875,37.178757 C559.750005,40.0121045 561.749985,41.428757 564.6875,41.428757 C566.770844,41.428757 568.249996,40.8662626 569.125,39.741257 C570.000004,38.6162514 570.531249,37.1579326 570.71875,35.366257 L579.8125,35.366257 C579.604166,38.0746039 578.625009,40.6370783 576.875,43.053757 C574.083319,46.9496098 569.947944,48.897507 564.46875,48.897507 C558.989556,48.897507 554.958346,47.2725233 552.375,44.022507 C549.791654,40.7724908 548.5,36.5537829 548.5,31.366257 C548.5,25.5120611 549.927069,20.9600233 552.78125,17.710007 C555.635431,14.4599908 559.572892,12.835007 564.59375,12.835007 C568.864605,12.835007 572.359361,13.7933308 575.078125,15.710007 C577.796889,17.6266833 579.406248,21.0120661 579.90625,25.866257 L570.78125,25.866257 Z M595.1875,9.585007 L586.15625,9.585007 L586.15625,1.366257 L595.1875,1.366257 L595.1875,9.585007 Z M586.15625,13.647507 L595.1875,13.647507 L595.1875,47.710007 L586.15625,47.710007 L586.15625,13.647507 Z M612.453125,22.022507 C611.317703,23.3141801 610.604168,25.0641626 610.3125,27.272507 L624.15625,27.272507 C624.010416,24.9183286 623.296881,23.1318881 622.015625,21.913132 C620.734369,20.6943759 619.145843,20.085007 617.25,20.085007 C615.18749,20.085007 613.588547,20.7308339 612.453125,22.022507 L612.453125,22.022507 Z M624.90625,14.335007 C627.177095,15.3975123 629.052076,17.0745789 630.53125,19.366257 C631.86459,21.3871004 632.729165,23.730827 633.125,26.397507 C633.354168,27.9600148 633.447917,30.2099923 633.40625,33.147507 L610.09375,33.147507 C610.218751,36.5641908 611.291657,38.9600001 613.3125,40.335007 C614.541673,41.1891779 616.020825,41.616257 617.75,41.616257 C619.583343,41.616257 621.072911,41.0954289 622.21875,40.053757 C622.843753,39.4912542 623.395831,38.710012 623.875,37.710007 L632.96875,37.710007 C632.739582,39.7308504 631.687509,41.7829133 629.8125,43.866257 C626.895819,47.1787736 622.812526,48.835007 617.5625,48.835007 C613.229145,48.835007 609.406267,47.4391876 606.09375,44.647507 C602.781233,41.8558264 601.125,37.3142051 601.125,31.022507 C601.125,25.1266442 602.619777,20.6058561 605.609375,17.460007 C608.598973,14.3141579 612.479143,12.741257 617.25,12.741257 C620.083348,12.741257 622.635405,13.2725017 624.90625,14.335007 L624.90625,14.335007 Z M635.90625,20.303757 L635.90625,13.960007 L640.65625,13.960007 L640.65625,4.460007 L649.46875,4.460007 L649.46875,13.960007 L655,13.960007 L655,20.303757 L649.46875,20.303757 L649.46875,38.303757 C649.46875,39.6995973 649.645832,40.5693803 650,40.913132 C650.354168,41.2568837 651.437491,41.428757 653.25,41.428757 C653.520835,41.428757 653.80729,41.4235487 654.109375,41.413132 C654.41146,41.4027153 654.708332,41.3870904 655,41.366257 L655,48.022507 L650.78125,48.178757 C646.572896,48.3245911 643.697924,47.5954317 642.15625,45.991257 C641.156245,44.9704186 640.65625,43.3975176 640.65625,41.272507 L640.65625,20.303757 L635.90625,20.303757 Z M662.09375,54.241257 L663.21875,54.303757 C664.093754,54.3454239 664.927079,54.3141742 665.71875,54.210007 C666.510421,54.1058398 667.177081,53.8662589 667.71875,53.491257 C668.239586,53.1370886 668.723956,52.3975126 669.171875,51.272507 C669.619794,50.1475014 669.802084,49.4600083 669.71875,49.210007 L657.21875,13.647507 L667.125,13.647507 L674.5625,38.772507 L681.59375,13.647507 L691.0625,13.647507 L679.375,47.147507 C677.124989,53.6058726 675.343757,57.6110409 674.03125,59.163132 C672.718743,60.7152231 670.09377,61.491257 666.15625,61.491257 C665.364579,61.491257 664.729169,61.4860487 664.25,61.475632 C663.770831,61.4652153 663.052088,61.4287573 662.09375,61.366257 L662.09375,54.241257 Z"></path>
                    </g>
                </g>
                <g id="Group" transform="translate(823.000000, 10.000000)">
                    <g id="hexagon1-copy" transform="translate(102.000000, 0.375000)" fill="#3498DB">
                        <path d="M477.043,193.205 L378.575,22.677 C370.601,8.875 355.892,0.385 339.968,0.385 L143.041,0.385 C127.118,0.385 112.413,8.875 104.433,22.677 L5.971,193.205 C-1.99,207.006 -1.99,223.99 5.971,237.793 L104.433,408.336 C112.413,422.138 127.118,430.629 143.041,430.629 L339.967,430.629 C355.892,430.629 370.601,422.138 378.574,408.336 L477.043,237.793 C485.003,223.99 485.003,207.006 477.043,193.205 L477.043,193.205 L477.043,193.205 Z" id="Shape"></path>
                    </g>
                    <g id="{-copy" transform="translate(207.000000, 81.000000)" fill="#2F312E">
                        <path d="M104.140625,262.03125 L93.734375,262.03125 C75.6405345,262.03125 62.1875441,257.789105 53.375,249.304688 C44.5624559,240.82027 40.15625,227.953211 40.15625,210.703125 L40.15625,162.328125 C40.15625,157.734352 39.6406302,153.632831 38.609375,150.023438 C37.5781198,146.414044 35.7734504,143.3672 33.1953125,140.882812 C30.6171746,138.398425 27.1953338,136.500007 22.9296875,135.1875 C18.6640412,133.874993 13.2969073,133.21875 6.828125,133.21875 L0.78125,133.21875 L0.78125,113.671875 L6.828125,113.671875 C13.6719092,113.671875 19.2499784,113.109381 23.5625,111.984375 C27.8750216,110.859369 31.2499878,109.148449 33.6875,106.851562 C36.1250122,104.554676 37.8124953,101.625018 38.75,98.0625 C39.6875047,94.4999822 40.15625,90.2812744 40.15625,85.40625 L40.15625,52.078125 C40.15625,44.2030856 41.0937406,37.1015941 42.96875,30.7734375 C44.8437594,24.4452809 47.9140412,19.0547098 52.1796875,14.6015625 C56.4453338,10.1484152 61.9765285,6.72657445 68.7734375,4.3359375 C75.5703465,1.94530055 83.8905758,0.75 93.734375,0.75 L104.140625,0.75 L104.140625,20.4375 L95.84375,20.4375 C74.0936413,20.4375 63.21875,30.9842695 63.21875,52.078125 L63.21875,84.84375 C63.21875,107.718864 53.3282239,120.60936 33.546875,123.515625 C53.5157248,125.484385 63.5,138.328006 63.5,162.046875 L63.5,210.140625 C63.5,231.609482 74.2811422,242.34375 95.84375,242.34375 L104.140625,242.34375 L104.140625,262.03125 Z" id="{"></path>
                    </g>
                    <g id="}" transform="translate(376.000000, 81.000000)" fill="#2F312E">
                        <path d="M0.203125,0.75 L10.609375,0.75 C28.7032155,0.75 42.1562059,4.99214508 50.96875,13.4765625 C59.7812941,21.9609799 64.1875,34.8280388 64.1875,52.078125 L64.1875,84.5625 C64.1875,89.156273 64.7031198,93.2577945 65.734375,96.8671875 C66.7656302,100.476581 68.5702996,103.523425 71.1484375,106.007812 C73.7265754,108.4922 77.1718534,110.390618 81.484375,111.703125 C85.7968966,113.015632 91.1874677,113.671875 97.65625,113.671875 L103.703125,113.671875 L103.703125,133.21875 L97.65625,133.21875 C90.8124658,133.21875 85.2109593,133.781244 80.8515625,134.90625 C76.4921657,136.031256 73.0937622,137.742176 70.65625,140.039062 C68.2187378,142.335949 66.5312547,145.265607 65.59375,148.828125 C64.6562453,152.390643 64.1875,156.609351 64.1875,161.484375 L64.1875,210.703125 C64.1875,218.578164 63.2500094,225.679656 61.375,232.007812 C59.4999906,238.335969 56.4531461,243.72654 52.234375,248.179688 C48.0156039,252.632835 42.4844092,256.054676 35.640625,258.445312 C28.7968408,260.835949 20.4531742,262.03125 10.609375,262.03125 L0.203125,262.03125 L0.203125,242.34375 L8.640625,242.34375 C30.2969833,242.34375 41.125,231.79698 41.125,210.703125 L41.125,162.046875 C41.125,139.171761 51.0155261,126.328139 70.796875,123.515625 C50.8280252,121.359364 40.84375,108.468868 40.84375,84.84375 L40.84375,52.640625 C40.84375,31.1717677 30.1094823,20.4375 8.640625,20.4375 L0.203125,20.4375 L0.203125,0.75 Z"></path>
                    </g>
                    <g id="UQ-Computing-Society-Copy" transform="translate(0.000000, 496.000000)" fill="#3498DB">
                        <path d="M0.375,1.9375 L10.15625,1.9375 L10.15625,30.25 C10.15625,33.4166825 10.5312462,35.7291594 11.28125,37.1875 C12.4479225,39.7708462 14.9895638,41.0625 18.90625,41.0625 C22.8021028,41.0625 25.3333275,39.7708462 26.5,37.1875 C27.2500038,35.7291594 27.625,33.4166825 27.625,30.25 L27.625,1.9375 L37.40625,1.9375 L37.40625,30.25 C37.40625,35.1458578 36.6458409,38.9583197 35.125,41.6875 C32.2916525,46.687525 26.8854566,49.1875 18.90625,49.1875 C10.9270434,49.1875 5.51043094,46.687525 2.65625,41.6875 C1.13540906,38.9583197 0.375,35.1458578 0.375,30.25 L0.375,1.9375 Z M70.0625,40.71875 C70.6250028,40.5729159 71.3437456,40.3125019 72.21875,39.9375 L67.5625,35.5 L72.53125,30.3125 L77.1875,34.75 C77.9166703,33.2499925 78.4270819,31.9375056 78.71875,30.8125 C79.1770856,29.1249916 79.40625,27.1562613 79.40625,24.90625 C79.40625,19.7395575 78.3489689,15.7448058 76.234375,12.921875 C74.1197811,10.0989442 71.0312703,8.6875 66.96875,8.6875 C63.1562309,8.6875 60.1145947,10.0416531 57.84375,12.75 C55.5729053,15.4583469 54.4375,19.5103897 54.4375,24.90625 C54.4375,31.2187816 56.0624837,35.7395697 59.3125,38.46875 C61.4166772,40.2395922 63.9374853,41.125 66.875,41.125 C67.9791722,41.125 69.0416616,40.9895847 70.0625,40.71875 L70.0625,40.71875 Z M87.53125,34.53125 C86.7187459,37.1770966 85.5208413,39.3749913 83.9375,41.125 L89.25,46.09375 L84.21875,51.34375 L78.65625,46.09375 C76.9687416,47.1145884 75.5104228,47.8333313 74.28125,48.25 C72.2187397,48.9375034 69.7500144,49.28125 66.875,49.28125 C60.87497,49.28125 55.9166862,47.4896012 52,43.90625 C47.2499763,39.5937284 44.875,33.2604584 44.875,24.90625 C44.875,16.4895412 47.3124756,10.1250216 52.1875,5.8125 C56.1666866,2.29164906 61.1145537,0.53125 67.03125,0.53125 C72.9896131,0.53125 77.9895631,2.39581469 82.03125,6.125 C86.69794,10.4375216 89.03125,16.4687112 89.03125,24.21875 C89.03125,28.3229372 88.531255,31.7604028 87.53125,34.53125 L87.53125,34.53125 Z M118.625,6.75 C122.375019,2.95831438 127.145804,1.0625 132.9375,1.0625 C140.687539,1.0625 146.354149,3.60414125 149.9375,8.6875 C151.916677,11.5416809 152.979166,14.4062356 153.125,17.28125 L143.5,17.28125 C142.874997,15.0729056 142.072922,13.4062556 141.09375,12.28125 C139.343741,10.28124 136.750017,9.28125 133.3125,9.28125 C129.812482,9.28125 127.052093,10.6926942 125.03125,13.515625 C123.010407,16.3385558 122,20.3333075 122,25.5 C122,30.6666925 123.067698,34.5364455 125.203125,37.109375 C127.338552,39.6823045 130.052067,40.96875 133.34375,40.96875 C136.718767,40.96875 139.291658,39.8645944 141.0625,37.65625 C142.041672,36.4687441 142.854163,34.6875119 143.5,32.3125 L153.03125,32.3125 C152.197913,37.3333584 150.067725,41.4166509 146.640625,44.5625 C143.213525,47.7083491 138.822943,49.28125 133.46875,49.28125 C126.843717,49.28125 121.635436,47.1562713 117.84375,42.90625 C114.052064,38.6353953 112.15625,32.7812872 112.15625,25.34375 C112.15625,17.3020431 114.312478,11.1041884 118.625,6.75 L118.625,6.75 Z M180.9375,38.9375 C182.33334,37.0833241 183.03125,34.4479338 183.03125,31.03125 C183.03125,27.6145662 182.33334,24.9843842 180.9375,23.140625 C179.54166,21.2968658 177.54168,20.375 174.9375,20.375 C172.33332,20.375 170.328132,21.2968658 168.921875,23.140625 C167.515618,24.9843842 166.8125,27.6145662 166.8125,31.03125 C166.8125,34.4479338 167.515618,37.0833241 168.921875,38.9375 C170.328132,40.7916759 172.33332,41.71875 174.9375,41.71875 C177.54168,41.71875 179.54166,40.7916759 180.9375,38.9375 L180.9375,38.9375 Z M188.0625,43.859375 C185.187486,47.4114761 180.822946,49.1875 174.96875,49.1875 C169.114554,49.1875 164.750014,47.4114761 161.875,43.859375 C158.999986,40.3072739 157.5625,36.031275 157.5625,31.03125 C157.5625,26.1145588 158.999986,21.8541847 161.875,18.25 C164.750014,14.6458153 169.114554,12.84375 174.96875,12.84375 C180.822946,12.84375 185.187486,14.6458153 188.0625,18.25 C190.937514,21.8541847 192.375,26.1145588 192.375,31.03125 C192.375,36.031275 190.937514,40.3072739 188.0625,43.859375 L188.0625,43.859375 Z M241.25,14.0625 C242.708341,14.6458363 244.031244,15.6666594 245.21875,17.125 C246.177088,18.3125059 246.822915,19.7708247 247.15625,21.5 C247.364584,22.6458391 247.46875,24.3229056 247.46875,26.53125 L247.40625,48 L238.28125,48 L238.28125,26.3125 C238.28125,25.0208269 238.072919,23.9583375 237.65625,23.125 C236.864579,21.5416587 235.406261,20.75 233.28125,20.75 C230.822904,20.75 229.125005,21.7708231 228.1875,23.8125 C227.708331,24.8958387 227.46875,26.1979091 227.46875,27.71875 L227.46875,48 L218.5,48 L218.5,27.71875 C218.5,25.6979066 218.291669,24.2291713 217.875,23.3125 C217.124996,21.6666584 215.656261,20.84375 213.46875,20.84375 C210.927071,20.84375 209.218754,21.6666584 208.34375,23.3125 C207.864581,24.2500047 207.625,25.6458241 207.625,27.5 L207.625,48 L198.59375,48 L198.59375,14 L207.25,14 L207.25,18.96875 C208.354172,17.1979078 209.395828,15.9375037 210.375,15.1875 C212.104175,13.85416 214.343736,13.1875 217.09375,13.1875 C219.69793,13.1875 221.802075,13.7604109 223.40625,14.90625 C224.697923,15.9687553 225.67708,17.333325 226.34375,19 C227.510423,16.99999 228.958325,15.5312547 230.6875,14.59375 C232.520843,13.6562453 234.562489,13.1875 236.8125,13.1875 C238.312507,13.1875 239.791659,13.4791637 241.25,14.0625 L241.25,14.0625 Z M277.328125,24 C276.130202,21.9791566 274.187513,20.96875 271.5,20.96875 C268.270817,20.96875 266.052089,22.4999847 264.84375,25.5625 C264.218747,27.1875081 263.90625,29.2499875 263.90625,31.75 C263.90625,35.7083531 264.958323,38.4895753 267.0625,40.09375 C268.312506,41.0312547 269.791658,41.5 271.5,41.5 C273.979179,41.5 275.869785,40.5416763 277.171875,38.625 C278.473965,36.7083238 279.125,34.1562659 279.125,30.96875 C279.125,28.3437369 278.526048,26.0208434 277.328125,24 L277.328125,24 Z M284.171875,17.59375 C286.932305,20.5312647 288.3125,24.8437216 288.3125,30.53125 C288.3125,36.53128 286.963555,41.1041509 284.265625,44.25 C281.567695,47.3958491 278.093771,48.96875 273.84375,48.96875 C271.135403,48.96875 268.885426,48.2916734 267.09375,46.9375 C266.114578,46.1874962 265.156255,45.0937572 264.21875,43.65625 L264.21875,61.40625 L255.40625,61.40625 L255.40625,13.9375 L263.9375,13.9375 L263.9375,18.96875 C264.895838,17.4895759 265.916661,16.3229209 267,15.46875 C268.979177,13.9479091 271.33332,13.1875 274.0625,13.1875 C278.041687,13.1875 281.411445,14.6562353 284.171875,17.59375 L284.171875,17.59375 Z M303.625,13.9375 L303.625,34.46875 C303.625,36.4062597 303.854164,37.8645784 304.3125,38.84375 C305.125004,40.5729253 306.718738,41.4375 309.09375,41.4375 C312.135432,41.4375 314.218744,40.2083456 315.34375,37.75 C315.927086,36.41666 316.21875,34.6562609 316.21875,32.46875 L316.21875,13.9375 L325.25,13.9375 L325.25,48 L316.59375,48 L316.59375,43.1875 C316.510416,43.2916672 316.302085,43.6041641 315.96875,44.125 C315.635415,44.6458359 315.239586,45.1041647 314.78125,45.5 C313.38541,46.7500062 312.036465,47.6041644 310.734375,48.0625 C309.432285,48.5208356 307.906259,48.75 306.15625,48.75 C301.114558,48.75 297.718759,46.9375181 295.96875,43.3125 C294.989578,41.31249 294.5,38.3646028 294.5,34.46875 L294.5,13.9375 L303.625,13.9375 Z M330.34375,20.59375 L330.34375,14.25 L335.09375,14.25 L335.09375,4.75 L343.90625,4.75 L343.90625,14.25 L349.4375,14.25 L349.4375,20.59375 L343.90625,20.59375 L343.90625,38.59375 C343.90625,39.9895903 344.083332,40.8593733 344.4375,41.203125 C344.791668,41.5468767 345.874991,41.71875 347.6875,41.71875 C347.958335,41.71875 348.24479,41.7135417 348.546875,41.703125 C348.84896,41.6927083 349.145832,41.6770834 349.4375,41.65625 L349.4375,48.3125 L345.21875,48.46875 C341.010396,48.6145841 338.135424,47.8854247 336.59375,46.28125 C335.593745,45.2604116 335.09375,43.6875106 335.09375,41.5625 L335.09375,20.59375 L330.34375,20.59375 Z M364.3125,9.875 L355.28125,9.875 L355.28125,1.65625 L364.3125,1.65625 L364.3125,9.875 Z M355.28125,13.9375 L364.3125,13.9375 L364.3125,48 L355.28125,48 L355.28125,13.9375 Z M400.453125,15.890625 C402.69272,17.7343842 403.8125,20.7916453 403.8125,25.0625 L403.8125,48 L394.6875,48 L394.6875,27.28125 C394.6875,25.4895744 394.447919,24.1145881 393.96875,23.15625 C393.093746,21.4062413 391.427096,20.53125 388.96875,20.53125 C385.947902,20.53125 383.875006,21.8124872 382.75,24.375 C382.166664,25.7291734 381.875,27.4583228 381.875,29.5625 L381.875,48 L373,48 L373,14 L381.59375,14 L381.59375,18.96875 C382.739589,17.2187413 383.822912,15.9583372 384.84375,15.1875 C386.677092,13.8124931 388.999986,13.125 391.8125,13.125 C395.333351,13.125 398.21353,14.0468658 400.453125,15.890625 L400.453125,15.890625 Z M431.9375,38.328125 C433.375007,36.7552005 434.09375,34.2500172 434.09375,30.8125 C434.09375,27.5833172 433.411465,25.1250084 432.046875,23.4375 C430.682285,21.7499916 428.854178,20.90625 426.5625,20.90625 C423.437484,20.90625 421.281256,22.3749853 420.09375,25.3125 C419.468747,26.8750078 419.15625,28.8020719 419.15625,31.09375 C419.15625,33.0729266 419.48958,34.8333256 420.15625,36.375 C421.364589,39.2500144 423.531234,40.6875 426.65625,40.6875 C428.739594,40.6875 430.499993,39.9010495 431.9375,38.328125 L431.9375,38.328125 Z M428.90625,13.90625 C431.072927,14.8020878 432.82291,16.4479047 434.15625,18.84375 L434.15625,13.9375 L442.8125,13.9375 L442.8125,46.25 C442.8125,50.6458553 442.072924,53.9583222 440.59375,56.1875 C438.052071,60.0208525 433.177119,61.9375 425.96875,61.9375 C421.614562,61.9375 418.062514,61.0833419 415.3125,59.375 C412.562486,57.6666581 411.041668,55.1146003 410.75,51.71875 L420.4375,51.71875 C420.687501,52.7604219 421.093747,53.5104144 421.65625,53.96875 C422.614588,54.7812541 424.229155,55.1875 426.5,55.1875 C429.708349,55.1875 431.854161,54.1145941 432.9375,51.96875 C433.645837,50.5937431 434,48.2812663 434,45.03125 L434,42.84375 C433.145829,44.3020906 432.229172,45.3958297 431.25,46.125 C429.479158,47.4791734 427.177098,48.15625 424.34375,48.15625 C419.968728,48.15625 416.473971,46.619807 413.859375,43.546875 C411.244779,40.473943 409.9375,36.3125262 409.9375,31.0625 C409.9375,25.9999747 411.197904,21.7448089 413.71875,18.296875 C416.239596,14.8489411 419.812477,13.125 424.4375,13.125 C426.145842,13.125 427.63541,13.3854141 428.90625,13.90625 L428.90625,13.90625 Z M476.59375,33.78125 C476.885418,35.8854272 477.458329,37.4583281 478.3125,38.5 C479.875008,40.3958428 482.552064,41.34375 486.34375,41.34375 C488.614595,41.34375 490.458326,41.0937525 491.875,40.59375 C494.562513,39.6354119 495.90625,37.8541797 495.90625,35.25 C495.90625,33.7291591 495.23959,32.5520875 493.90625,31.71875 C492.57291,30.9062459 490.479181,30.1875031 487.625,29.5625 L482.75,28.46875 C477.958309,27.3854113 474.645842,26.2083397 472.8125,24.9375 C469.708318,22.8124894 468.15625,19.4896059 468.15625,14.96875 C468.15625,10.8437294 469.656235,7.41668031 472.65625,4.6875 C475.656265,1.95831969 480.062471,0.59375 485.875,0.59375 C490.729191,0.59375 494.869775,1.88019547 498.296875,4.453125 C501.723975,7.02605453 503.520832,10.7603922 503.6875,15.65625 L494.4375,15.65625 C494.270832,12.8854028 493.062511,10.9166725 490.8125,9.75 C489.312492,8.97916281 487.447928,8.59375 485.21875,8.59375 C482.739571,8.59375 480.760424,9.093745 479.28125,10.09375 C477.802076,11.093755 477.0625,12.4895744 477.0625,14.28125 C477.0625,15.9270916 477.791659,17.1562459 479.25,17.96875 C480.187505,18.5104194 482.187485,19.1458297 485.25,19.875 L493.1875,21.78125 C496.666684,22.6145875 499.291658,23.7291597 501.0625,25.125 C503.812514,27.2916775 505.1875,30.4270628 505.1875,34.53125 C505.1875,38.7396044 503.578141,42.2343611 500.359375,45.015625 C497.140609,47.7968889 492.593779,49.1875 486.71875,49.1875 C480.71872,49.1875 476.000017,47.817722 472.5625,45.078125 C469.124983,42.338528 467.40625,38.5729406 467.40625,33.78125 L476.59375,33.78125 Z M532.875,38.9375 C534.27084,37.0833241 534.96875,34.4479338 534.96875,31.03125 C534.96875,27.6145662 534.27084,24.9843842 532.875,23.140625 C531.47916,21.2968658 529.47918,20.375 526.875,20.375 C524.27082,20.375 522.265632,21.2968658 520.859375,23.140625 C519.453118,24.9843842 518.75,27.6145662 518.75,31.03125 C518.75,34.4479338 519.453118,37.0833241 520.859375,38.9375 C522.265632,40.7916759 524.27082,41.71875 526.875,41.71875 C529.47918,41.71875 531.47916,40.7916759 532.875,38.9375 L532.875,38.9375 Z M540,43.859375 C537.124986,47.4114761 532.760446,49.1875 526.90625,49.1875 C521.052054,49.1875 516.687514,47.4114761 513.8125,43.859375 C510.937486,40.3072739 509.5,36.031275 509.5,31.03125 C509.5,26.1145588 510.937486,21.8541847 513.8125,18.25 C516.687514,14.6458153 521.052054,12.84375 526.90625,12.84375 C532.760446,12.84375 537.124986,14.6458153 540,18.25 C542.875014,21.8541847 544.3125,26.1145588 544.3125,31.03125 C544.3125,36.031275 542.875014,40.3072739 540,43.859375 L540,43.859375 Z M571.03125,26.15625 C570.864582,24.8854103 570.437503,23.7395884 569.75,22.71875 C568.749995,21.3437431 567.197927,20.65625 565.09375,20.65625 C562.093735,20.65625 560.041672,22.1458184 558.9375,25.125 C558.354164,26.7083413 558.0625,28.8124869 558.0625,31.4375 C558.0625,33.9375125 558.354164,35.9479091 558.9375,37.46875 C560.000005,40.3020975 561.999985,41.71875 564.9375,41.71875 C567.020844,41.71875 568.499996,41.1562556 569.375,40.03125 C570.250004,38.9062444 570.781249,37.4479256 570.96875,35.65625 L580.0625,35.65625 C579.854166,38.3645969 578.875009,40.9270712 577.125,43.34375 C574.333319,47.2396028 570.197944,49.1875 564.71875,49.1875 C559.239556,49.1875 555.208346,47.5625163 552.625,44.3125 C550.041654,41.0624837 548.75,36.8437759 548.75,31.65625 C548.75,25.8020541 550.177069,21.2500163 553.03125,18 C555.885431,14.7499837 559.822892,13.125 564.84375,13.125 C569.114605,13.125 572.609361,14.0833237 575.328125,16 C578.046889,17.9166763 579.656248,21.3020591 580.15625,26.15625 L571.03125,26.15625 Z M595.4375,9.875 L586.40625,9.875 L586.40625,1.65625 L595.4375,1.65625 L595.4375,9.875 Z M586.40625,13.9375 L595.4375,13.9375 L595.4375,48 L586.40625,48 L586.40625,13.9375 Z M612.703125,22.3125 C611.567703,23.6041731 610.854168,25.3541556 610.5625,27.5625 L624.40625,27.5625 C624.260416,25.2083216 623.546881,23.4218811 622.265625,22.203125 C620.984369,20.9843689 619.395843,20.375 617.5,20.375 C615.43749,20.375 613.838547,21.0208269 612.703125,22.3125 L612.703125,22.3125 Z M625.15625,14.625 C627.427095,15.6875053 629.302076,17.3645719 630.78125,19.65625 C632.11459,21.6770934 632.979165,24.02082 633.375,26.6875 C633.604168,28.2500078 633.697917,30.4999853 633.65625,33.4375 L610.34375,33.4375 C610.468751,36.8541837 611.541657,39.2499931 613.5625,40.625 C614.791673,41.4791709 616.270825,41.90625 618,41.90625 C619.833343,41.90625 621.322911,41.3854219 622.46875,40.34375 C623.093753,39.7812472 623.645831,39.000005 624.125,38 L633.21875,38 C632.989582,40.0208434 631.937509,42.0729063 630.0625,44.15625 C627.145819,47.4687666 623.062526,49.125 617.8125,49.125 C613.479145,49.125 609.656267,47.7291806 606.34375,44.9375 C603.031233,42.1458194 601.375,37.6041981 601.375,31.3125 C601.375,25.4166372 602.869777,20.8958491 605.859375,17.75 C608.848973,14.6041509 612.729143,13.03125 617.5,13.03125 C620.333348,13.03125 622.885405,13.5624947 625.15625,14.625 L625.15625,14.625 Z M636.15625,20.59375 L636.15625,14.25 L640.90625,14.25 L640.90625,4.75 L649.71875,4.75 L649.71875,14.25 L655.25,14.25 L655.25,20.59375 L649.71875,20.59375 L649.71875,38.59375 C649.71875,39.9895903 649.895832,40.8593733 650.25,41.203125 C650.604168,41.5468767 651.687491,41.71875 653.5,41.71875 C653.770835,41.71875 654.05729,41.7135417 654.359375,41.703125 C654.66146,41.6927083 654.958332,41.6770834 655.25,41.65625 L655.25,48.3125 L651.03125,48.46875 C646.822896,48.6145841 643.947924,47.8854247 642.40625,46.28125 C641.406245,45.2604116 640.90625,43.6875106 640.90625,41.5625 L640.90625,20.59375 L636.15625,20.59375 Z M662.34375,54.53125 L663.46875,54.59375 C664.343754,54.6354169 665.177079,54.6041672 665.96875,54.5 C666.760421,54.3958328 667.427081,54.1562519 667.96875,53.78125 C668.489586,53.4270816 668.973956,52.6875056 669.421875,51.5625 C669.869794,50.4374944 670.052084,49.7500012 669.96875,49.5 L657.46875,13.9375 L667.375,13.9375 L674.8125,39.0625 L681.84375,13.9375 L691.3125,13.9375 L679.625,47.4375 C677.374989,53.8958656 675.593757,57.9010339 674.28125,59.453125 C672.968743,61.0052161 670.34377,61.78125 666.40625,61.78125 C665.614579,61.78125 664.979169,61.7760417 664.5,61.765625 C664.020831,61.7552083 663.302088,61.7187503 662.34375,61.65625 L662.34375,54.53125 Z" id="UQ-Computing-Society"></path>
                    </g>
                </g>
                <g id="Logo-Dark" transform="translate(1850.000000, 10.000000)">
                    <g id="hexagon1-copy-2-+-{-copy-2-+-}-copy-2" transform="translate(102.000000, 0.000000)">
                        <g id="hexagon1-copy-2" fill="#2F312E">
                            <path d="M497.741147,201.722158 L395.000775,23.6766821 C386.680795,9.2662413 371.333595,0.401972158 354.718678,0.401972158 L149.247324,0.401972158 C132.63345,0.401972158 117.290424,9.2662413 108.964184,23.6766821 L6.23007231,201.722158 C-2.07634298,216.131555 -2.07634298,233.864269 6.23007231,248.275754 L108.964184,426.336891 C117.290424,440.747332 132.63345,449.612645 149.247324,449.612645 L354.717634,449.612645 C371.333595,449.612645 386.680795,440.747332 394.999731,426.336891 L497.741147,248.275754 C506.046519,233.864269 506.046519,216.131555 497.741147,201.722158 L497.741147,201.722158 L497.741147,201.722158 Z" id="Shape"></path>
                        </g>
                        <g id="{-copy-2" transform="translate(110.000000, 84.000000)" fill="#3498DB">
                            <path d="M108.214908,273.287794 L97.3571476,273.287794 C78.4782438,273.287794 64.4415492,268.861589 55.2466427,260.009046 C46.0517361,251.156503 41.4543518,237.731163 41.4543518,219.732622 L41.4543518,169.258707 C41.4543518,164.465618 40.9163601,160.186137 39.8403604,156.420139 C38.7643607,152.65414 36.8813894,149.475097 34.1913902,146.882916 C31.5013909,144.290735 27.9310819,142.309947 23.4803558,140.940493 C19.0296298,139.571039 13.4296245,138.886322 6.6801718,138.886322 L0.370932384,138.886322 L0.370932384,118.491339 L6.6801718,118.491339 C13.8208971,118.491339 19.64099,117.904439 24.1406251,116.730621 C28.6402602,115.556803 32.1616609,113.771648 34.7049329,111.375104 C37.2482049,108.978559 39.0089053,105.921787 39.9870869,102.204697 C40.9652684,98.4876076 41.4543518,94.0858567 41.4543518,88.9993127 L41.4543518,54.2251326 C41.4543518,46.0084076 42.4325187,38.5987936 44.3888818,31.9960682 C46.3452449,25.3933427 49.5487414,19.7688832 53.9994674,15.1225209 C58.4501934,10.4761585 64.221378,6.90584947 71.3131942,4.41148653 C78.4050104,1.91712359 87.0862414,0.669960828 97.3571476,0.669960828 L108.214908,0.669960828 L108.214908,21.2116706 L99.5580451,21.2116706 C76.8642332,21.2116706 65.5174975,32.2160479 65.5174975,54.2251326 L65.5174975,88.4124067 C65.5174975,112.280036 55.197837,125.729831 34.5582064,128.762194 C55.3934733,130.816375 65.8109505,144.217261 65.8109505,168.965254 L65.8109505,219.145716 C65.8109505,241.546074 77.0598695,252.746084 99.5580451,252.746084 L108.214908,252.746084 L108.214908,273.287794 Z" id="{"></path>
                        </g>
                        <g id="}-copy-2" transform="translate(286.000000, 84.000000)" fill="#3498DB">
                            <path d="M0.100368053,0.669960828 L10.9581289,0.669960828 C29.8370327,0.669960828 43.8737273,5.09616592 53.0686338,13.9487089 C62.2635404,22.8012519 66.8609247,36.2265922 66.8609247,54.2251326 L66.8609247,88.1189537 C66.8609247,92.9120432 67.3989164,97.1915233 68.4749161,100.957522 C69.5509158,104.723521 71.4338871,107.902564 74.1238863,110.494745 C76.8138856,113.086926 80.4086488,115.067714 84.9082839,116.437168 C89.407919,117.806622 95.0323785,118.491339 101.781831,118.491339 L108.091071,118.491339 L108.091071,138.886322 L101.781831,138.886322 C94.6411059,138.886322 88.7965589,139.473222 84.2480147,140.64704 C79.6994705,141.820858 76.1536156,143.606012 73.6103436,146.002557 C71.0670716,148.399102 69.3063712,151.455873 68.3281896,155.172963 C67.3500081,158.890053 66.8609247,163.291804 66.8609247,168.378348 L66.8609247,219.732622 C66.8609247,227.949347 65.8827578,235.358961 63.9263947,241.961687 C61.9700316,248.564412 58.7909893,254.188872 54.3891723,258.835234 C49.9873554,263.481596 44.2161708,267.051906 37.0754456,269.546268 C29.9347203,272.040631 21.2290351,273.287794 10.9581289,273.287794 L0.100368053,273.287794 L0.100368053,252.746084 L8.90395794,252.746084 C31.4999516,252.746084 42.797779,241.741707 42.797779,219.732622 L42.797779,168.965254 C42.797779,145.097624 53.1174395,131.696738 73.7570701,128.762194 C52.9218032,126.512376 42.504326,113.062582 42.504326,88.4124067 L42.504326,54.8120386 C42.504326,32.4116812 31.3043153,21.2116706 8.90395794,21.2116706 L0.100368053,21.2116706 L0.100368053,0.669960828 Z" id="}"></path>
                        </g>
                    </g>
                    <g id="UQ-Computing-Society" transform="translate(0.000000, 514.000000)" fill="#3498DB">
                        <path d="M0.875,2.151641 L10.65625,2.151641 L10.65625,30.464141 C10.65625,33.6308235 11.0312462,35.9433004 11.78125,37.401641 C12.9479225,39.9849873 15.4895638,41.276641 19.40625,41.276641 C23.3021028,41.276641 25.8333275,39.9849873 27,37.401641 C27.7500038,35.9433004 28.125,33.6308235 28.125,30.464141 L28.125,2.151641 L37.90625,2.151641 L37.90625,30.464141 C37.90625,35.3599988 37.1458409,39.1724607 35.625,41.901641 C32.7916525,46.901666 27.3854566,49.401641 19.40625,49.401641 C11.4270434,49.401641 6.01043094,46.901666 3.15625,41.901641 C1.63540906,39.1724607 0.875,35.3599988 0.875,30.464141 L0.875,2.151641 Z M70.5625,40.932891 C71.1250028,40.7870569 71.8437456,40.5266429 72.71875,40.151641 L68.0625,35.714141 L73.03125,30.526641 L77.6875,34.964141 C78.4166703,33.4641335 78.9270819,32.1516466 79.21875,31.026641 C79.6770856,29.3391326 79.90625,27.3704023 79.90625,25.120391 C79.90625,19.9536985 78.8489689,15.9589468 76.734375,13.136016 C74.6197811,10.3130852 71.5312703,8.901641 67.46875,8.901641 C63.6562309,8.901641 60.6145947,10.2557941 58.34375,12.964141 C56.0729053,15.6724879 54.9375,19.7245307 54.9375,25.120391 C54.9375,31.4329226 56.5624837,35.9537107 59.8125,38.682891 C61.9166772,40.4537332 64.4374853,41.339141 67.375,41.339141 C68.4791722,41.339141 69.5416616,41.2037257 70.5625,40.932891 L70.5625,40.932891 Z M88.03125,34.745391 C87.2187459,37.3912376 86.0208413,39.5891323 84.4375,41.339141 L89.75,46.307891 L84.71875,51.557891 L79.15625,46.307891 C77.4687416,47.3287294 76.0104228,48.0474723 74.78125,48.464141 C72.7187397,49.1516444 70.2500144,49.495391 67.375,49.495391 C61.37497,49.495391 56.4166862,47.7037423 52.5,44.120391 C47.7499763,39.8078694 45.375,33.4745994 45.375,25.120391 C45.375,16.7036823 47.8124756,10.3391626 52.6875,6.026641 C56.6666866,2.50579006 61.6145537,0.745391 67.53125,0.745391 C73.4896131,0.745391 78.4895631,2.60995569 82.53125,6.339141 C87.19794,10.6516626 89.53125,16.6828523 89.53125,24.432891 C89.53125,28.5370782 89.031255,31.9745438 88.03125,34.745391 L88.03125,34.745391 Z M119.125,6.964141 C122.875019,3.17245538 127.645804,1.276641 133.4375,1.276641 C141.187539,1.276641 146.854149,3.81828225 150.4375,8.901641 C152.416677,11.7558219 153.479166,14.6203766 153.625,17.495391 L144,17.495391 C143.374997,15.2870466 142.572922,13.6203966 141.59375,12.495391 C139.843741,10.495381 137.250017,9.495391 133.8125,9.495391 C130.312482,9.495391 127.552093,10.9068352 125.53125,13.729766 C123.510407,16.5526968 122.5,20.5474485 122.5,25.714141 C122.5,30.8808335 123.567698,34.7505865 125.703125,37.323516 C127.838552,39.8964455 130.552067,41.182891 133.84375,41.182891 C137.218767,41.182891 139.791658,40.0787354 141.5625,37.870391 C142.541672,36.6828851 143.354163,34.9016529 144,32.526641 L153.53125,32.526641 C152.697913,37.5474994 150.567725,41.6307919 147.140625,44.776641 C143.713525,47.9224901 139.322943,49.495391 133.96875,49.495391 C127.343717,49.495391 122.135436,47.3704123 118.34375,43.120391 C114.552064,38.8495363 112.65625,32.9954282 112.65625,25.557891 C112.65625,17.5161841 114.812478,11.3183294 119.125,6.964141 L119.125,6.964141 Z M181.4375,39.151641 C182.83334,37.2974651 183.53125,34.6620748 183.53125,31.245391 C183.53125,27.8287073 182.83334,25.1985252 181.4375,23.354766 C180.04166,21.5110068 178.04168,20.589141 175.4375,20.589141 C172.83332,20.589141 170.828132,21.5110068 169.421875,23.354766 C168.015618,25.1985252 167.3125,27.8287073 167.3125,31.245391 C167.3125,34.6620748 168.015618,37.2974651 169.421875,39.151641 C170.828132,41.0058169 172.83332,41.932891 175.4375,41.932891 C178.04168,41.932891 180.04166,41.0058169 181.4375,39.151641 L181.4375,39.151641 Z M188.5625,44.073516 C185.687486,47.6256171 181.322946,49.401641 175.46875,49.401641 C169.614554,49.401641 165.250014,47.6256171 162.375,44.073516 C159.499986,40.5214149 158.0625,36.245416 158.0625,31.245391 C158.0625,26.3286998 159.499986,22.0683257 162.375,18.464141 C165.250014,14.8599563 169.614554,13.057891 175.46875,13.057891 C181.322946,13.057891 185.687486,14.8599563 188.5625,18.464141 C191.437514,22.0683257 192.875,26.3286998 192.875,31.245391 C192.875,36.245416 191.437514,40.5214149 188.5625,44.073516 L188.5625,44.073516 Z M241.75,14.276641 C243.208341,14.8599773 244.531244,15.8808004 245.71875,17.339141 C246.677088,18.5266469 247.322915,19.9849657 247.65625,21.714141 C247.864584,22.8599801 247.96875,24.5370466 247.96875,26.745391 L247.90625,48.214141 L238.78125,48.214141 L238.78125,26.526641 C238.78125,25.2349679 238.572919,24.1724785 238.15625,23.339141 C237.364579,21.7557998 235.906261,20.964141 233.78125,20.964141 C231.322904,20.964141 229.625005,21.9849641 228.6875,24.026641 C228.208331,25.1099798 227.96875,26.4120501 227.96875,27.932891 L227.96875,48.214141 L219,48.214141 L219,27.932891 C219,25.9120476 218.791669,24.4433123 218.375,23.526641 C217.624996,21.8807994 216.156261,21.057891 213.96875,21.057891 C211.427071,21.057891 209.718754,21.8807994 208.84375,23.526641 C208.364581,24.4641457 208.125,25.8599651 208.125,27.714141 L208.125,48.214141 L199.09375,48.214141 L199.09375,14.214141 L207.75,14.214141 L207.75,19.182891 C208.854172,17.4120488 209.895828,16.1516448 210.875,15.401641 C212.604175,14.068301 214.843736,13.401641 217.59375,13.401641 C220.19793,13.401641 222.302075,13.9745519 223.90625,15.120391 C225.197923,16.1828963 226.17708,17.547466 226.84375,19.214141 C228.010423,17.214131 229.458325,15.7453957 231.1875,14.807891 C233.020843,13.8703863 235.062489,13.401641 237.3125,13.401641 C238.812507,13.401641 240.291659,13.6933048 241.75,14.276641 L241.75,14.276641 Z M277.828125,24.214141 C276.630202,22.1932976 274.687513,21.182891 272,21.182891 C268.770817,21.182891 266.552089,22.7141257 265.34375,25.776641 C264.718747,27.4016491 264.40625,29.4641285 264.40625,31.964141 C264.40625,35.9224941 265.458323,38.7037163 267.5625,40.307891 C268.812506,41.2453957 270.291658,41.714141 272,41.714141 C274.479179,41.714141 276.369785,40.7558173 277.671875,38.839141 C278.973965,36.9224648 279.625,34.3704069 279.625,31.182891 C279.625,28.5578779 279.026048,26.2349844 277.828125,24.214141 L277.828125,24.214141 Z M284.671875,17.807891 C287.432305,20.7454057 288.8125,25.0578626 288.8125,30.745391 C288.8125,36.745421 287.463555,41.3182919 284.765625,44.464141 C282.067695,47.6099901 278.593771,49.182891 274.34375,49.182891 C271.635403,49.182891 269.385426,48.5058144 267.59375,47.151641 C266.614578,46.4016373 265.656255,45.3078982 264.71875,43.870391 L264.71875,61.620391 L255.90625,61.620391 L255.90625,14.151641 L264.4375,14.151641 L264.4375,19.182891 C265.395838,17.7037169 266.416661,16.5370619 267.5,15.682891 C269.479177,14.1620501 271.83332,13.401641 274.5625,13.401641 C278.541687,13.401641 281.911445,14.8703763 284.671875,17.807891 L284.671875,17.807891 Z M304.125,14.151641 L304.125,34.682891 C304.125,36.6204007 304.354164,38.0787194 304.8125,39.057891 C305.625004,40.7870663 307.218738,41.651641 309.59375,41.651641 C312.635432,41.651641 314.718744,40.4224866 315.84375,37.964141 C316.427086,36.630801 316.71875,34.8704019 316.71875,32.682891 L316.71875,14.151641 L325.75,14.151641 L325.75,48.214141 L317.09375,48.214141 L317.09375,43.401641 C317.010416,43.5058082 316.802085,43.8183051 316.46875,44.339141 C316.135415,44.8599769 315.739586,45.3183057 315.28125,45.714141 C313.88541,46.9641473 312.536465,47.8183054 311.234375,48.276641 C309.932285,48.7349766 308.406259,48.964141 306.65625,48.964141 C301.614558,48.964141 298.218759,47.1516591 296.46875,43.526641 C295.489578,41.526631 295,38.5787438 295,34.682891 L295,14.151641 L304.125,14.151641 Z M330.84375,20.807891 L330.84375,14.464141 L335.59375,14.464141 L335.59375,4.964141 L344.40625,4.964141 L344.40625,14.464141 L349.9375,14.464141 L349.9375,20.807891 L344.40625,20.807891 L344.40625,38.807891 C344.40625,40.2037313 344.583332,41.0735143 344.9375,41.417266 C345.291668,41.7610177 346.374991,41.932891 348.1875,41.932891 C348.458335,41.932891 348.74479,41.9276827 349.046875,41.917266 C349.34896,41.9068493 349.645832,41.8912244 349.9375,41.870391 L349.9375,48.526641 L345.71875,48.682891 C341.510396,48.8287251 338.635424,48.0995657 337.09375,46.495391 C336.093745,45.4745526 335.59375,43.9016516 335.59375,41.776641 L335.59375,20.807891 L330.84375,20.807891 Z M364.8125,10.089141 L355.78125,10.089141 L355.78125,1.870391 L364.8125,1.870391 L364.8125,10.089141 Z M355.78125,14.151641 L364.8125,14.151641 L364.8125,48.214141 L355.78125,48.214141 L355.78125,14.151641 Z M400.953125,16.104766 C403.19272,17.9485252 404.3125,21.0057863 404.3125,25.276641 L404.3125,48.214141 L395.1875,48.214141 L395.1875,27.495391 C395.1875,25.7037154 394.947919,24.3287291 394.46875,23.370391 C393.593746,21.6203823 391.927096,20.745391 389.46875,20.745391 C386.447902,20.745391 384.375006,22.0266282 383.25,24.589141 C382.666664,25.9433144 382.375,27.6724638 382.375,29.776641 L382.375,48.214141 L373.5,48.214141 L373.5,14.214141 L382.09375,14.214141 L382.09375,19.182891 C383.239589,17.4328823 384.322912,16.1724782 385.34375,15.401641 C387.177092,14.0266341 389.499986,13.339141 392.3125,13.339141 C395.833351,13.339141 398.71353,14.2610068 400.953125,16.104766 L400.953125,16.104766 Z M432.4375,38.542266 C433.875007,36.9693415 434.59375,34.4641582 434.59375,31.026641 C434.59375,27.7974582 433.911465,25.3391494 432.546875,23.651641 C431.182285,21.9641326 429.354178,21.120391 427.0625,21.120391 C423.937484,21.120391 421.781256,22.5891263 420.59375,25.526641 C419.968747,27.0891488 419.65625,29.0162129 419.65625,31.307891 C419.65625,33.2870676 419.98958,35.0474666 420.65625,36.589141 C421.864589,39.4641554 424.031234,40.901641 427.15625,40.901641 C429.239594,40.901641 430.999993,40.1151905 432.4375,38.542266 L432.4375,38.542266 Z M429.40625,14.120391 C431.572927,15.0162288 433.32291,16.6620457 434.65625,19.057891 L434.65625,14.151641 L443.3125,14.151641 L443.3125,46.464141 C443.3125,50.8599963 442.572924,54.1724632 441.09375,56.401641 C438.552071,60.2349935 433.677119,62.151641 426.46875,62.151641 C422.114562,62.151641 418.562514,61.2974829 415.8125,59.589141 C413.062486,57.8807991 411.541668,55.3287413 411.25,51.932891 L420.9375,51.932891 C421.187501,52.9745629 421.593747,53.7245554 422.15625,54.182891 C423.114588,54.9953951 424.729155,55.401641 427,55.401641 C430.208349,55.401641 432.354161,54.3287351 433.4375,52.182891 C434.145837,50.8078841 434.5,48.4954073 434.5,45.245391 L434.5,43.057891 C433.645829,44.5162316 432.729172,45.6099707 431.75,46.339141 C429.979158,47.6933144 427.677098,48.370391 424.84375,48.370391 C420.468728,48.370391 416.973971,46.833948 414.359375,43.761016 C411.744779,40.688084 410.4375,36.5266673 410.4375,31.276641 C410.4375,26.2141157 411.697904,21.9589499 414.21875,18.511016 C416.739596,15.0630821 420.312477,13.339141 424.9375,13.339141 C426.645842,13.339141 428.13541,13.5995551 429.40625,14.120391 L429.40625,14.120391 Z M477.09375,33.995391 C477.385418,36.0995682 477.958329,37.6724691 478.8125,38.714141 C480.375008,40.6099838 483.052064,41.557891 486.84375,41.557891 C489.114595,41.557891 490.958326,41.3078935 492.375,40.807891 C495.062513,39.8495529 496.40625,38.0683207 496.40625,35.464141 C496.40625,33.9433001 495.73959,32.7662285 494.40625,31.932891 C493.07291,31.1203869 490.979181,30.4016441 488.125,29.776641 L483.25,28.682891 C478.458309,27.5995523 475.145842,26.4224807 473.3125,25.151641 C470.208318,23.0266304 468.65625,19.7037469 468.65625,15.182891 C468.65625,11.0578704 470.156235,7.63082131 473.15625,4.901641 C476.156265,2.17246069 480.562471,0.807891 486.375,0.807891 C491.229191,0.807891 495.369775,2.09433647 498.796875,4.667266 C502.223975,7.24019553 504.020832,10.9745332 504.1875,15.870391 L494.9375,15.870391 C494.770832,13.0995438 493.562511,11.1308135 491.3125,9.964141 C489.812492,9.19330381 487.947928,8.807891 485.71875,8.807891 C483.239571,8.807891 481.260424,9.307886 479.78125,10.307891 C478.302076,11.307896 477.5625,12.7037154 477.5625,14.495391 C477.5625,16.1412326 478.291659,17.3703869 479.75,18.182891 C480.687505,18.7245604 482.687485,19.3599707 485.75,20.089141 L493.6875,21.995391 C497.166684,22.8287285 499.791658,23.9433007 501.5625,25.339141 C504.312514,27.5058185 505.6875,30.6412038 505.6875,34.745391 C505.6875,38.9537454 504.078141,42.4485021 500.859375,45.229766 C497.640609,48.0110299 493.093779,49.401641 487.21875,49.401641 C481.21872,49.401641 476.500017,48.031863 473.0625,45.292266 C469.624983,42.552669 467.90625,38.7870816 467.90625,33.995391 L477.09375,33.995391 Z M533.375,39.151641 C534.77084,37.2974651 535.46875,34.6620748 535.46875,31.245391 C535.46875,27.8287073 534.77084,25.1985252 533.375,23.354766 C531.97916,21.5110068 529.97918,20.589141 527.375,20.589141 C524.77082,20.589141 522.765632,21.5110068 521.359375,23.354766 C519.953118,25.1985252 519.25,27.8287073 519.25,31.245391 C519.25,34.6620748 519.953118,37.2974651 521.359375,39.151641 C522.765632,41.0058169 524.77082,41.932891 527.375,41.932891 C529.97918,41.932891 531.97916,41.0058169 533.375,39.151641 L533.375,39.151641 Z M540.5,44.073516 C537.624986,47.6256171 533.260446,49.401641 527.40625,49.401641 C521.552054,49.401641 517.187514,47.6256171 514.3125,44.073516 C511.437486,40.5214149 510,36.245416 510,31.245391 C510,26.3286998 511.437486,22.0683257 514.3125,18.464141 C517.187514,14.8599563 521.552054,13.057891 527.40625,13.057891 C533.260446,13.057891 537.624986,14.8599563 540.5,18.464141 C543.375014,22.0683257 544.8125,26.3286998 544.8125,31.245391 C544.8125,36.245416 543.375014,40.5214149 540.5,44.073516 L540.5,44.073516 Z M571.53125,26.370391 C571.364582,25.0995513 570.937503,23.9537294 570.25,22.932891 C569.249995,21.5578841 567.697927,20.870391 565.59375,20.870391 C562.593735,20.870391 560.541672,22.3599594 559.4375,25.339141 C558.854164,26.9224823 558.5625,29.0266279 558.5625,31.651641 C558.5625,34.1516535 558.854164,36.1620501 559.4375,37.682891 C560.500005,40.5162385 562.499985,41.932891 565.4375,41.932891 C567.520844,41.932891 568.999996,41.3703966 569.875,40.245391 C570.750004,39.1203854 571.281249,37.6620666 571.46875,35.870391 L580.5625,35.870391 C580.354166,38.5787379 579.375009,41.1412123 577.625,43.557891 C574.833319,47.4537438 570.697944,49.401641 565.21875,49.401641 C559.739556,49.401641 555.708346,47.7766573 553.125,44.526641 C550.541654,41.2766248 549.25,37.0579169 549.25,31.870391 C549.25,26.0161951 550.677069,21.4641573 553.53125,18.214141 C556.385431,14.9641248 560.322892,13.339141 565.34375,13.339141 C569.614605,13.339141 573.109361,14.2974648 575.828125,16.214141 C578.546889,18.1308173 580.156248,21.5162001 580.65625,26.370391 L571.53125,26.370391 Z M595.9375,10.089141 L586.90625,10.089141 L586.90625,1.870391 L595.9375,1.870391 L595.9375,10.089141 Z M586.90625,14.151641 L595.9375,14.151641 L595.9375,48.214141 L586.90625,48.214141 L586.90625,14.151641 Z M613.203125,22.526641 C612.067703,23.8183141 611.354168,25.5682966 611.0625,27.776641 L624.90625,27.776641 C624.760416,25.4224626 624.046881,23.6360221 622.765625,22.417266 C621.484369,21.1985099 619.895843,20.589141 618,20.589141 C615.93749,20.589141 614.338547,21.2349679 613.203125,22.526641 L613.203125,22.526641 Z M625.65625,14.839141 C627.927095,15.9016463 629.802076,17.5787129 631.28125,19.870391 C632.61459,21.8912344 633.479165,24.234961 633.875,26.901641 C634.104168,28.4641488 634.197917,30.7141263 634.15625,33.651641 L610.84375,33.651641 C610.968751,37.0683248 612.041657,39.4641341 614.0625,40.839141 C615.291673,41.6933119 616.770825,42.120391 618.5,42.120391 C620.333343,42.120391 621.822911,41.5995629 622.96875,40.557891 C623.593753,39.9953882 624.145831,39.214146 624.625,38.214141 L633.71875,38.214141 C633.489582,40.2349844 632.437509,42.2870473 630.5625,44.370391 C627.645819,47.6829076 623.562526,49.339141 618.3125,49.339141 C613.979145,49.339141 610.156267,47.9433216 606.84375,45.151641 C603.531233,42.3599604 601.875,37.8183391 601.875,31.526641 C601.875,25.6307782 603.369777,21.1099901 606.359375,17.964141 C609.348973,14.8182919 613.229143,13.245391 618,13.245391 C620.833348,13.245391 623.385405,13.7766357 625.65625,14.839141 L625.65625,14.839141 Z M636.65625,20.807891 L636.65625,14.464141 L641.40625,14.464141 L641.40625,4.964141 L650.21875,4.964141 L650.21875,14.464141 L655.75,14.464141 L655.75,20.807891 L650.21875,20.807891 L650.21875,38.807891 C650.21875,40.2037313 650.395832,41.0735143 650.75,41.417266 C651.104168,41.7610177 652.187491,41.932891 654,41.932891 C654.270835,41.932891 654.55729,41.9276827 654.859375,41.917266 C655.16146,41.9068493 655.458332,41.8912244 655.75,41.870391 L655.75,48.526641 L651.53125,48.682891 C647.322896,48.8287251 644.447924,48.0995657 642.90625,46.495391 C641.906245,45.4745526 641.40625,43.9016516 641.40625,41.776641 L641.40625,20.807891 L636.65625,20.807891 Z M662.84375,54.745391 L663.96875,54.807891 C664.843754,54.8495579 665.677079,54.8183082 666.46875,54.714141 C667.260421,54.6099738 667.927081,54.3703929 668.46875,53.995391 C668.989586,53.6412226 669.473956,52.9016466 669.921875,51.776641 C670.369794,50.6516354 670.552084,49.9641423 670.46875,49.714141 L657.96875,14.151641 L667.875,14.151641 L675.3125,39.276641 L682.34375,14.151641 L691.8125,14.151641 L680.125,47.651641 C677.874989,54.1100066 676.093757,58.1151749 674.78125,59.667266 C673.468743,61.2193571 670.84377,61.995391 666.90625,61.995391 C666.114579,61.995391 665.479169,61.9901827 665,61.979766 C664.520831,61.9693493 663.802088,61.9328913 662.84375,61.870391 L662.84375,54.745391 Z"></path>
                    </g>
                </g>
            </g>
        </g>
    </g>
</svg>