<svg xmlns="http://www.w3.org/2000/svg" width="1062.198" height="257.572" viewBox="0 0 1062.198 257.572"><title>UQCS_Logo_Landscape_Light</title><g id="Layer_2" data-name="Layer 2"><g id="Layer_1-2" data-name="Layer 1"><path d="M194.044,7.5H91.109A32.14,32.14,0,0,0,63.274,23.571L11.806,112.715a32.145,32.145,0,0,0,0,32.142L63.274,234a32.14,32.14,0,0,0,27.835,16.071H194.044A32.143,32.143,0,0,0,221.88,234l51.467-89.144a32.14,32.14,0,0,0,0-32.142L221.88,23.571A32.143,32.143,0,0,0,194.044,7.5Z" fill="#5397d1" stroke="#010101" stroke-miterlimit="10" stroke-width="15"/><path d="M164.179,208.427V197.3c11.045-.139,17.371-7.781,17.371-21.015V156.393c0-13.867,4.092-21.449,13.269-24.586a3.639,3.639,0,0,0,2.5-3.472,3.69,3.69,0,0,0-2.478-3.492c-8.941-3.12-13.287-11.021-13.287-24.153v-20c0-20.418-12.978-20.418-17.242-20.418h-.129V49.145h2.711c19.178,0,30.178,10.96,30.178,30.07V100.8c0,12.591,3.36,20.619,19.612,21.346v12.936c-16.252.831-19.612,8.777-19.612,21.2v22.275c0,26.958-21.1,29.868-30.178,29.868Z" fill="#fff" stroke="#fff" stroke-miterlimit="10" stroke-width="2.5"/><path d="M164.179,208.427V197.3c11.045-.139,17.371-7.781,17.371-21.015V156.393c0-13.867,4.092-21.449,13.269-24.586a3.639,3.639,0,0,0,2.5-3.472,3.69,3.69,0,0,0-2.478-3.492c-8.941-3.12-13.287-11.021-13.287-24.153v-20c0-20.418-12.978-20.418-17.242-20.418h-.129V49.145h2.711c19.178,0,30.178,10.96,30.178,30.07V100.8c0,12.591,3.36,20.619,19.612,21.346v12.936c-16.252.831-19.612,8.777-19.612,21.2v22.275c0,26.958-21.1,29.868-30.178,29.868Z" fill="#fff" stroke="#fff" stroke-miterlimit="10" stroke-width="2.5"/><path d="M120.975,208.427V197.3c-11.045-.139-17.371-7.781-17.371-21.015V156.393c0-13.867-4.093-21.449-13.27-24.586a3.639,3.639,0,0,1-2.5-3.472,3.69,3.69,0,0,1,2.479-3.492c8.94-3.12,13.287-11.021,13.287-24.153v-20c0-20.418,12.977-20.418,17.242-20.418h.129V49.145h-2.711c-19.179,0-30.179,10.96-30.179,30.07V100.8c0,12.591-3.359,20.619-19.611,21.346v12.936c16.252.831,19.611,8.777,19.611,21.2v22.275c0,26.958,21.105,29.868,30.179,29.868Z" fill="#fff" stroke="#fff" stroke-miterlimit="10" stroke-width="2.5"/><path d="M120.975,208.427V197.3c-11.045-.139-17.371-7.781-17.371-21.015V156.393c0-13.867-4.093-21.449-13.27-24.586a3.639,3.639,0,0,1-2.5-3.472,3.69,3.69,0,0,1,2.479-3.492c8.94-3.12,13.287-11.021,13.287-24.153v-20c0-20.418,12.977-20.418,17.242-20.418h.129V49.145h-2.711c-19.179,0-30.179,10.96-30.179,30.07V100.8c0,12.591-3.359,20.619-19.611,21.346v12.936c16.252.831,19.611,8.777,19.611,21.2v22.275c0,26.958,21.105,29.868,30.179,29.868Z" fill="#fff" stroke="#fff" stroke-miterlimit="10" stroke-width="2.5"/><path d="M324.783,65.2v28.73c0,10.873,4.825,15.482,11.306,15.482,7.2,0,11.809-4.753,11.809-15.482V65.2h6.336V93.5c0,14.906-7.848,21.026-18.361,21.026-9.937,0-17.426-5.689-17.426-20.737V65.2Z" fill="#231f20"/><path d="M364.886,88.318c0-3.6-.072-6.553-.288-9.433h5.617l.36,5.76h.144a12.816,12.816,0,0,1,11.521-6.553c4.824,0,12.313,2.881,12.313,14.834v20.81h-6.337V93.646c0-5.616-2.088-10.3-8.064-10.3a9.3,9.3,0,0,0-8.93,9.433v20.954h-6.336Z" fill="#231f20"/><path d="M411.9,69.092a3.924,3.924,0,0,1-7.848,0,3.862,3.862,0,0,1,3.96-3.961A3.762,3.762,0,0,1,411.9,69.092Zm-7.056,44.644V78.885h6.336v34.851Z" fill="#231f20"/><path d="M424.141,78.885l6.841,19.585a89.713,89.713,0,0,1,2.808,8.929h.216c.793-2.88,1.8-5.76,2.953-8.929l6.768-19.585h6.625l-13.681,34.851h-6.049L417.373,78.885Z" fill="#231f20"/><path d="M459.133,97.462c.144,8.569,5.617,12.1,11.953,12.1a22.914,22.914,0,0,0,9.649-1.8l1.08,4.536a28.211,28.211,0,0,1-11.593,2.161c-10.729,0-17.137-7.057-17.137-17.57s6.192-18.794,16.345-18.794c11.377,0,14.4,10.01,14.4,16.418a24.141,24.141,0,0,1-.215,2.952Zm18.578-4.536c.072-4.032-1.657-10.3-8.785-10.3-6.409,0-9.217,5.905-9.721,10.3Z" fill="#231f20"/><path d="M491.676,89.757c0-4.1-.072-7.632-.288-10.872h5.544l.217,6.84h.288c1.584-4.68,5.4-7.633,9.649-7.633a6.862,6.862,0,0,1,1.8.217v5.977a9.46,9.46,0,0,0-2.161-.217c-4.464,0-7.632,3.385-8.5,8.137a17.846,17.846,0,0,0-.288,2.953v18.577h-6.265Z" fill="#231f20"/><path d="M514.356,107.255a16.606,16.606,0,0,0,8.353,2.521c4.608,0,6.768-2.3,6.768-5.185,0-3.024-1.8-4.68-6.48-6.409-6.265-2.231-9.217-5.688-9.217-9.864,0-5.617,4.536-10.226,12.025-10.226a17.4,17.4,0,0,1,8.569,2.161l-1.584,4.609a13.565,13.565,0,0,0-7.129-2.017c-3.744,0-5.833,2.16-5.833,4.752,0,2.881,2.089,4.177,6.625,5.905,6.049,2.3,9.145,5.329,9.145,10.513,0,6.12-4.752,10.441-13.033,10.441a19.874,19.874,0,0,1-9.793-2.376Z" fill="#231f20"/><path d="M550.788,69.092a3.924,3.924,0,0,1-7.848,0,3.862,3.862,0,0,1,3.96-3.961A3.762,3.762,0,0,1,550.788,69.092Zm-7.056,44.644V78.885h6.336v34.851Z" fill="#231f20"/><path d="M568.212,68.875v10.01h9.073v4.824h-9.073V102.5c0,4.321,1.224,6.769,4.753,6.769a14.1,14.1,0,0,0,3.672-.432l.288,4.753a15.512,15.512,0,0,1-5.617.864,8.777,8.777,0,0,1-6.84-2.665c-1.8-1.872-2.448-4.968-2.448-9.072V83.709h-5.4V78.885h5.4V70.532Z" fill="#231f20"/><path d="M587.362,78.885,595,99.479c.792,2.3,1.656,5.04,2.232,7.128h.144c.648-2.088,1.368-4.752,2.232-7.273l6.913-20.449h6.7l-9.5,24.842c-4.537,11.953-7.633,18.073-11.953,21.817a17.17,17.17,0,0,1-7.777,4.105l-1.584-5.328a16.746,16.746,0,0,0,5.544-3.1,19.218,19.218,0,0,0,5.329-7.057,4.537,4.537,0,0,0,.5-1.511,5.51,5.51,0,0,0-.432-1.656L580.45,78.885Z" fill="#231f20"/><path d="M665.772,96.022c0,12.89-8.929,18.506-17.354,18.506-9.433,0-16.705-6.912-16.705-17.93,0-11.665,7.633-18.506,17.281-18.506C659,78.092,665.772,85.366,665.772,96.022Zm-27.651.36c0,7.633,4.392,13.394,10.585,13.394,6.049,0,10.585-5.689,10.585-13.537,0-5.906-2.952-13.394-10.441-13.394S638.121,89.757,638.121,96.382Z" fill="#231f20"/><path d="M674.409,113.736V83.709h-4.9V78.885h4.9V77.229c0-4.9,1.08-9.361,4.033-12.169a12.12,12.12,0,0,1,8.5-3.24,14.694,14.694,0,0,1,5.4,1.008l-.864,4.9a9.455,9.455,0,0,0-4.033-.792c-5.4,0-6.768,4.752-6.768,10.08v1.873H689.1v4.824h-8.424v30.027Z" fill="#231f20"/><path d="M750.3,120.865c-6.553-1.729-12.961-3.673-18.578-5.617a9.3,9.3,0,0,0-2.952-.72c-11.521-.432-21.386-8.929-21.386-24.554,0-15.554,9.5-25.562,22.61-25.562,13.177,0,21.746,10.224,21.746,24.553,0,12.457-5.761,20.451-13.825,23.259v.288c4.824,1.224,10.08,2.376,14.185,3.1Zm-5.185-31.612c0-9.72-5.04-19.729-15.337-19.729-10.585,0-15.769,9.793-15.7,20.306-.071,10.3,5.617,19.586,15.41,19.586C739.5,109.416,745.114,100.342,745.114,89.253Z" fill="#231f20"/><path d="M789.033,104.231c0,3.6.072,6.769.288,9.505h-5.616l-.36-5.689H783.2a13.112,13.112,0,0,1-11.522,6.481c-5.472,0-12.024-3.025-12.024-15.266V78.885h6.336v19.3c0,6.625,2.016,11.089,7.776,11.089a9.162,9.162,0,0,0,8.354-5.76,9.293,9.293,0,0,0,.575-3.24V78.885h6.337Z" fill="#231f20"/><path d="M803.071,97.462c.144,8.569,5.616,12.1,11.952,12.1a22.919,22.919,0,0,0,9.65-1.8l1.08,4.536a28.215,28.215,0,0,1-11.593,2.161c-10.73,0-17.138-7.057-17.138-17.57s6.193-18.794,16.346-18.794c11.377,0,14.4,10.01,14.4,16.418a23.939,23.939,0,0,1-.215,2.952Zm18.577-4.536c.073-4.032-1.656-10.3-8.785-10.3-6.408,0-9.217,5.905-9.721,10.3Z" fill="#231f20"/><path d="M839.142,97.462c.144,8.569,5.617,12.1,11.954,12.1a22.912,22.912,0,0,0,9.648-1.8l1.08,4.536a28.211,28.211,0,0,1-11.593,2.161c-10.729,0-17.137-7.057-17.137-17.57s6.192-18.794,16.345-18.794c11.377,0,14.4,10.01,14.4,16.418a23.9,23.9,0,0,1-.216,2.952Zm18.578-4.536c.072-4.032-1.657-10.3-8.786-10.3-6.408,0-9.216,5.905-9.72,10.3Z" fill="#231f20"/><path d="M871.685,88.318c0-3.6-.072-6.553-.288-9.433h5.616l.361,5.76h.143a12.819,12.819,0,0,1,11.522-6.553c4.824,0,12.312,2.881,12.312,14.834v20.81h-6.336V93.646c0-5.616-2.088-10.3-8.065-10.3a9,9,0,0,0-8.5,6.481,9.109,9.109,0,0,0-.433,2.952v20.954h-6.336Z" fill="#231f20"/><path d="M910.781,107.255a16.609,16.609,0,0,0,8.353,2.521c4.608,0,6.768-2.3,6.768-5.185,0-3.024-1.8-4.68-6.48-6.409-6.265-2.231-9.217-5.688-9.217-9.864,0-5.617,4.536-10.226,12.025-10.226a17.4,17.4,0,0,1,8.569,2.161l-1.584,4.609a13.569,13.569,0,0,0-7.129-2.017c-3.744,0-5.832,2.16-5.832,4.752,0,2.881,2.088,4.177,6.624,5.905,6.049,2.3,9.144,5.329,9.144,10.513,0,6.12-4.752,10.441-13.032,10.441a19.877,19.877,0,0,1-9.793-2.376Z" fill="#231f20"/><path d="M940.157,62.612h6.336v51.124h-6.336Z" fill="#231f20"/><path d="M976.445,113.736l-.5-4.393h-.216a12.978,12.978,0,0,1-10.657,5.185c-7.056,0-10.656-4.969-10.656-10.009,0-8.425,7.488-13.033,20.953-12.961v-.721c0-2.879-.792-8.064-7.92-8.064a17.367,17.367,0,0,0-9.073,2.593l-1.441-4.177a21.635,21.635,0,0,1,11.45-3.1c10.657,0,13.249,7.274,13.249,14.258v13.033a49.071,49.071,0,0,0,.576,8.353Zm-.935-17.785c-6.914-.145-14.762,1.08-14.762,7.848,0,4.1,2.736,6.048,5.976,6.048a8.67,8.67,0,0,0,8.425-5.832A6.615,6.615,0,0,0,975.51,102Z" fill="#231f20"/><path d="M991.852,88.318c0-3.6-.072-6.553-.288-9.433h5.616l.361,5.76h.143a12.819,12.819,0,0,1,11.522-6.553c4.824,0,12.312,2.881,12.312,14.834v20.81h-6.336V93.646c0-5.616-2.088-10.3-8.065-10.3a9,9,0,0,0-8.5,6.481,9.109,9.109,0,0,0-.433,2.952v20.954h-6.336Z" fill="#231f20"/><path d="M1061.91,62.612v42.123c0,3.1.071,6.625.288,9h-5.688l-.289-6.049h-.144c-1.944,3.889-6.192,6.841-11.881,6.841-8.425,0-14.9-7.129-14.9-17.714-.072-11.593,7.129-18.722,15.625-18.722,5.329,0,8.929,2.521,10.513,5.329h.144V62.612Zm-6.337,30.458a11.184,11.184,0,0,0-.288-2.664,9.321,9.321,0,0,0-9.145-7.345c-6.552,0-10.441,5.761-10.441,13.465,0,7.057,3.457,12.89,10.3,12.89a9.526,9.526,0,0,0,9.289-7.561,11.011,11.011,0,0,0,.288-2.736Z" fill="#231f20"/><path d="M352.938,184.661c-2.088,1.08-6.7,2.16-12.529,2.16-15.409,0-24.77-9.649-24.77-24.41,0-15.986,11.089-25.634,25.922-25.634,5.833,0,10.009,1.223,11.809,2.16l-1.944,7.057a23.583,23.583,0,0,0-9.5-1.872c-9.865,0-16.993,6.192-16.993,17.857,0,10.657,6.264,17.5,16.921,17.5a24.792,24.792,0,0,0,9.649-1.8Z" fill="#231f20"/><path d="M392.323,168.244c0,12.888-9.073,18.649-18,18.649-9.937,0-17.57-6.841-17.57-18.073,0-11.522,7.561-18.578,18.146-18.578C385.338,150.242,392.323,157.586,392.323,168.244Zm-26.427.36c0,6.769,3.313,11.881,8.713,11.881,5.04,0,8.569-4.969,8.569-12.026,0-5.472-2.449-11.737-8.5-11.737C368.416,156.722,365.9,162.771,365.9,168.6Z" fill="#231f20"/><path d="M399.591,161.475c0-4.032-.072-7.417-.288-10.441h7.633l.36,5.184h.216a12.13,12.13,0,0,1,10.8-5.976,10.109,10.109,0,0,1,9.72,6.48h.145a13.271,13.271,0,0,1,4.32-4.391,11.7,11.7,0,0,1,7.056-2.089c5.833,0,11.738,3.961,11.738,15.193V186.1h-8.641v-19.37c0-5.832-2.016-9.288-6.265-9.288a6.754,6.754,0,0,0-6.192,4.68,12.683,12.683,0,0,0-.432,2.953V186.1h-8.641V165.8c0-4.9-1.944-8.352-6.048-8.352-3.313,0-5.545,2.592-6.337,5.04a7.58,7.58,0,0,0-.5,2.881V186.1h-8.641Z" fill="#231f20"/><path d="M460.647,162.7c0-4.609-.144-8.353-.288-11.665h7.777l.431,5.4h.144c2.593-3.96,6.7-6.192,12.026-6.192,8.064,0,14.761,6.913,14.761,17.857,0,12.674-7.993,18.794-15.986,18.794-4.392,0-8.064-1.872-9.864-4.681H469.5v18.146h-8.857Zm8.857,8.713a9.124,9.124,0,0,0,.287,2.448,8.01,8.01,0,0,0,7.777,6.192c5.617,0,8.929-4.679,8.929-11.593,0-6.192-3.024-11.232-8.713-11.232a8.253,8.253,0,0,0-7.92,6.552,8.035,8.035,0,0,0-.36,2.232Z" fill="#231f20"/><path d="M534.16,175.588c0,4.176.144,7.633.289,10.513h-7.777l-.432-5.328H526.1a12.682,12.682,0,0,1-11.233,6.12c-6.409,0-12.241-3.816-12.241-15.266V151.034h8.857v19.082c0,5.832,1.872,9.577,6.552,9.577a7.465,7.465,0,0,0,6.769-4.753,8.049,8.049,0,0,0,.5-2.736v-21.17h8.856Z" fill="#231f20"/><path d="M553.886,141.025v10.009h8.424v6.625h-8.424V173.14c0,4.248,1.152,6.481,4.536,6.481a13.035,13.035,0,0,0,3.456-.433l.144,6.77a19.49,19.49,0,0,1-6.408.863,10.254,10.254,0,0,1-7.633-2.88c-1.872-2.017-2.736-5.185-2.736-9.793V157.659H540.2v-6.625h5.041v-7.92Z" fill="#231f20"/><path d="M578.437,141.241a4.97,4.97,0,1,1-4.968-4.825A4.694,4.694,0,0,1,578.437,141.241Zm-9.432,44.86V151.034h8.928V186.1Z" fill="#231f20"/><path d="M587.436,161.475c0-4.032-.072-7.417-.288-10.441h7.777l.432,5.257h.216a12.642,12.642,0,0,1,11.161-6.049c6.12,0,12.457,3.961,12.457,15.049V186.1h-8.857V166.3c0-5.04-1.872-8.856-6.7-8.856a7.431,7.431,0,0,0-6.912,5.184,9.027,9.027,0,0,0-.36,2.88V186.1h-8.929Z" fill="#231f20"/><path d="M660.662,151.034c-.144,2.377-.288,5.257-.288,10.081v19.874c0,7.344-1.512,12.6-5.184,15.913-3.673,3.24-8.713,4.248-13.537,4.248-4.465,0-9.217-.936-12.242-2.808l1.945-6.7a21.171,21.171,0,0,0,10.224,2.664c5.761,0,10.081-3.024,10.081-10.585V180.7h-.144a11.839,11.839,0,0,1-10.225,5.184c-8.712,0-14.905-7.2-14.905-17.137,0-11.521,7.489-18.506,15.914-18.506,5.328,0,8.5,2.592,10.152,5.472h.144l.36-4.68Zm-9.145,14.042a8.564,8.564,0,0,0-.288-2.377,7.354,7.354,0,0,0-7.2-5.689c-4.969,0-8.641,4.321-8.641,11.449,0,5.977,3.024,10.8,8.569,10.8a7.564,7.564,0,0,0,7.2-5.328,15.321,15.321,0,0,0,.359-3.168Z" fill="#231f20"/><path d="M684.922,176.453a24.54,24.54,0,0,0,11.737,3.095c5.688,0,8.856-2.664,8.856-6.624,0-3.673-2.447-5.833-8.64-8.065-7.992-2.88-13.105-7.128-13.105-14.113,0-7.92,6.624-13.969,17.137-13.969a25.63,25.63,0,0,1,11.665,2.448l-2.16,7.129a20.532,20.532,0,0,0-9.649-2.305c-5.616,0-8.064,3.025-8.064,5.833,0,3.744,2.808,5.472,9.288,7.993,8.425,3.167,12.529,7.416,12.529,14.4,0,7.776-5.9,14.545-18.433,14.545-5.112,0-10.441-1.44-13.105-3.024Z" fill="#231f20"/><path d="M755.916,168.244c0,12.888-9.072,18.649-18,18.649-9.937,0-17.569-6.841-17.569-18.073,0-11.522,7.56-18.578,18.145-18.578C748.931,150.242,755.916,157.586,755.916,168.244Zm-26.426.36c0,6.769,3.313,11.881,8.713,11.881,5.04,0,8.568-4.969,8.568-12.026,0-5.472-2.448-11.737-8.5-11.737C732.011,156.722,729.49,162.771,729.49,168.6Z" fill="#231f20"/><path d="M788.963,185.021a25.637,25.637,0,0,1-9.937,1.8c-10.945,0-18.073-6.985-18.073-17.858,0-10.512,7.2-18.721,19.514-18.721a22.1,22.1,0,0,1,8.568,1.656l-1.584,6.625a15.6,15.6,0,0,0-6.7-1.368c-6.769,0-10.8,4.968-10.73,11.377,0,7.2,4.681,11.3,10.73,11.3a17.324,17.324,0,0,0,6.984-1.368Z" fill="#231f20"/><path d="M804.945,141.241a4.971,4.971,0,1,1-4.969-4.825A4.694,4.694,0,0,1,804.945,141.241Zm-9.433,44.86V151.034h8.929V186.1Z" fill="#231f20"/><path d="M820.208,171.052c.217,6.336,5.184,9.073,10.8,9.073a26.379,26.379,0,0,0,9.72-1.584l1.3,6.12a33.025,33.025,0,0,1-12.241,2.16c-11.377,0-18.073-6.985-18.073-17.713,0-9.721,5.9-18.866,17.136-18.866,11.378,0,15.123,9.361,15.123,17.065a21.8,21.8,0,0,1-.289,3.745Zm15.41-6.193c.071-3.24-1.368-8.568-7.273-8.568-5.472,0-7.777,4.968-8.137,8.568Z" fill="#231f20"/><path d="M861.248,141.025v10.009h8.425v6.625h-8.425V173.14c0,4.248,1.152,6.481,4.536,6.481a13.044,13.044,0,0,0,3.457-.433l.144,6.77a19.5,19.5,0,0,1-6.409.863,10.253,10.253,0,0,1-7.632-2.88c-1.873-2.017-2.737-5.185-2.737-9.793V157.659h-5.041v-6.625h5.041v-7.92Z" fill="#231f20"/><path d="M882.414,151.034l6.337,18.794c.72,2.16,1.439,4.824,1.943,6.84h.217c.576-2.016,1.224-4.608,1.872-6.913l5.473-18.721h9.5l-8.786,23.906c-4.824,13.1-8.064,18.937-12.241,22.538a17.8,17.8,0,0,1-9.289,4.536l-2.016-7.488a15.182,15.182,0,0,0,5.185-2.448,15.441,15.441,0,0,0,4.824-5.545,3.544,3.544,0,0,0,.576-1.584,3.76,3.76,0,0,0-.5-1.728l-12.818-32.187Z" fill="#231f20"/></g></g></svg>