<svg xmlns="http://www.w3.org/2000/svg" width="285.153" height="372.464" viewBox="0 0 285.153 372.464"><title>UQCS_Logo_Portrait_Short_Dark</title><g id="Layer_2" data-name="Layer 2"><g id="Layer_1-2" data-name="Layer 1"><path d="M194.044,7.5H91.109A32.14,32.14,0,0,0,63.274,23.571L11.806,112.715a32.145,32.145,0,0,0,0,32.142L63.274,234a32.14,32.14,0,0,0,27.835,16.071H194.044A32.143,32.143,0,0,0,221.88,234l51.467-89.144a32.14,32.14,0,0,0,0-32.142L221.88,23.571A32.143,32.143,0,0,0,194.044,7.5Z" fill="#5397d1" stroke="#fff" stroke-miterlimit="10" stroke-width="15"/><path d="M164.178,208.427V197.3c11.045-.139,17.371-7.781,17.371-21.015V156.393c0-13.867,4.093-21.449,13.27-24.586a3.639,3.639,0,0,0,2.5-3.472,3.69,3.69,0,0,0-2.479-3.492c-8.94-3.12-13.287-11.021-13.287-24.153v-20c0-20.418-12.977-20.418-17.242-20.418h-.129V49.145h2.711c19.179,0,30.179,10.96,30.179,30.07V100.8c0,12.591,3.359,20.619,19.611,21.346v12.936c-16.252.831-19.611,8.777-19.611,21.2v22.275c0,26.958-21.105,29.868-30.179,29.868Z" fill="#fff" stroke="#fff" stroke-miterlimit="10" stroke-width="2.5"/><path d="M164.178,208.427V197.3c11.045-.139,17.371-7.781,17.371-21.015V156.393c0-13.867,4.093-21.449,13.27-24.586a3.639,3.639,0,0,0,2.5-3.472,3.69,3.69,0,0,0-2.479-3.492c-8.94-3.12-13.287-11.021-13.287-24.153v-20c0-20.418-12.977-20.418-17.242-20.418h-.129V49.145h2.711c19.179,0,30.179,10.96,30.179,30.07V100.8c0,12.591,3.359,20.619,19.611,21.346v12.936c-16.252.831-19.611,8.777-19.611,21.2v22.275c0,26.958-21.105,29.868-30.179,29.868Z" fill="#fff" stroke="#fff" stroke-miterlimit="10" stroke-width="2.5"/><path d="M120.974,208.427V197.3c-11.045-.139-17.371-7.781-17.371-21.015V156.393c0-13.867-4.092-21.449-13.269-24.586a3.639,3.639,0,0,1-2.5-3.472,3.69,3.69,0,0,1,2.478-3.492c8.941-3.12,13.287-11.021,13.287-24.153v-20c0-20.418,12.978-20.418,17.242-20.418h.129V49.145h-2.711c-19.178,0-30.178,10.96-30.178,30.07V100.8c0,12.591-3.36,20.619-19.612,21.346v12.936c16.252.831,19.612,8.777,19.612,21.2v22.275c0,26.958,21.1,29.868,30.178,29.868Z" fill="#fff" stroke="#fff" stroke-miterlimit="10" stroke-width="2.5"/><path d="M120.974,208.427V197.3c-11.045-.139-17.371-7.781-17.371-21.015V156.393c0-13.867-4.092-21.449-13.269-24.586a3.639,3.639,0,0,1-2.5-3.472,3.69,3.69,0,0,1,2.478-3.492c8.941-3.12,13.287-11.021,13.287-24.153v-20c0-20.418,12.978-20.418,17.242-20.418h.129V49.145h-2.711c-19.178,0-30.178,10.96-30.178,30.07V100.8c0,12.591-3.36,20.619-19.612,21.346v12.936c16.252.831,19.612,8.777,19.612,21.2v22.275c0,26.958,21.1,29.868,30.178,29.868Z" fill="#fff" stroke="#fff" stroke-miterlimit="10" stroke-width="2.5"/><path d="M27.188,285.564v42.68c0,12.76,4.841,19.25,13.421,19.25,8.8,0,13.64-6.16,13.64-19.25v-42.68h16.72v41.58c0,22.881-11.55,33.77-30.911,33.77-18.7,0-29.7-10.34-29.7-33.99v-41.36Z" fill="#fff"/><path d="M148.848,372.464a255.846,255.846,0,0,1-29.26-10.45,16.768,16.768,0,0,0-5.17-1.1c-16.72-1.1-32.34-13.42-32.34-37.62,0-22.22,14.08-38.94,36.189-38.94,22.661,0,35.091,17.16,35.091,37.4,0,16.83-7.81,28.71-17.6,33.11v.44c5.72,1.65,12.1,2.971,17.93,4.181Zm-13.2-50.05c0-13.53-6.38-24.75-17.82-24.75s-18.04,11.22-18.04,25.08c-.11,14.08,6.71,24.861,17.93,24.861C129.048,347.605,135.648,336.934,135.648,322.414Z" fill="#fff"/><path d="M218.807,357.614c-3.08,1.54-10.009,3.19-19.03,3.19-25.63,0-38.83-15.949-38.83-37.069,0-25.3,18.04-39.381,40.481-39.381,8.69,0,15.29,1.759,18.259,3.3l-3.41,13.311a36.2,36.2,0,0,0-14.08-2.75c-13.309,0-23.649,8.03-23.649,24.53,0,14.85,8.8,24.2,23.759,24.2a41.909,41.909,0,0,0,13.97-2.42Z" fill="#fff"/><path d="M230.355,342.434a42.784,42.784,0,0,0,18.591,4.62c7.7,0,11.77-3.19,11.77-8.029,0-4.621-3.52-7.261-12.43-10.451-12.32-4.29-20.351-11.11-20.351-21.89,0-12.65,10.561-22.33,28.051-22.33a45.408,45.408,0,0,1,18.92,3.74l-3.74,13.53a35.244,35.244,0,0,0-15.51-3.52c-7.26,0-10.78,3.3-10.78,7.15,0,4.73,4.18,6.82,13.75,10.45,13.09,4.84,19.25,11.66,19.25,22.111,0,12.429-9.57,22.989-29.92,22.989-8.47,0-16.83-2.2-21.01-4.51Z" fill="#fff"/></g></g></svg>