<svg xmlns="http://www.w3.org/2000/svg" width="285.153" height="374.935" viewBox="0 0 285.153 374.935"><title>UQCS_Logo_Portrait_Short_Mono_Light</title><g id="Layer_2" data-name="Layer 2"><g id="Layer_1-2" data-name="Layer 1"><path d="M194.044,7.5H91.109A32.14,32.14,0,0,0,63.274,23.571L11.806,112.715a32.145,32.145,0,0,0,0,32.142L63.274,234a32.14,32.14,0,0,0,27.835,16.071H194.044A32.143,32.143,0,0,0,221.88,234l51.467-89.144a32.14,32.14,0,0,0,0-32.142L221.88,23.571A32.143,32.143,0,0,0,194.044,7.5Z" fill="none" stroke="#010101" stroke-miterlimit="10" stroke-width="15"/><path d="M166.972,208.427V197.3c11.045-.139,17.371-7.781,17.371-21.015V156.393c0-13.867,4.093-21.449,13.269-24.586a3.64,3.64,0,0,0,2.5-3.472,3.692,3.692,0,0,0-2.479-3.492c-8.94-3.12-13.287-11.021-13.287-24.153v-20c0-20.418-12.978-20.418-17.242-20.418h-.129V49.145h2.711c19.179,0,30.179,10.96,30.179,30.07V100.8c0,12.591,3.359,20.619,19.611,21.346v12.936c-16.252.831-19.611,8.777-19.611,21.2v22.275c0,26.958-21.1,29.868-30.179,29.868Z" fill="#231f20" stroke="#231f20" stroke-miterlimit="10" stroke-width="2.5"/><path d="M166.972,208.427V197.3c11.045-.139,17.371-7.781,17.371-21.015V156.393c0-13.867,4.093-21.449,13.269-24.586a3.64,3.64,0,0,0,2.5-3.472,3.692,3.692,0,0,0-2.479-3.492c-8.94-3.12-13.287-11.021-13.287-24.153v-20c0-20.418-12.978-20.418-17.242-20.418h-.129V49.145h2.711c19.179,0,30.179,10.96,30.179,30.07V100.8c0,12.591,3.359,20.619,19.611,21.346v12.936c-16.252.831-19.611,8.777-19.611,21.2v22.275c0,26.958-21.1,29.868-30.179,29.868Z" fill="#231f20" stroke="#231f20" stroke-miterlimit="10" stroke-width="2.5"/><path d="M123.768,208.427V197.3c-11.045-.139-17.371-7.781-17.371-21.015V156.393c0-13.867-4.093-21.449-13.27-24.586a3.64,3.64,0,0,1-2.5-3.472,3.691,3.691,0,0,1,2.479-3.492c8.94-3.12,13.287-11.021,13.287-24.153v-20c0-20.418,12.977-20.418,17.242-20.418h.129V49.145h-2.711c-19.179,0-30.179,10.96-30.179,30.07V100.8c0,12.591-3.359,20.619-19.611,21.346v12.936c16.252.831,19.611,8.777,19.611,21.2v22.275c0,26.958,21.105,29.868,30.179,29.868Z" fill="#231f20" stroke="#231f20" stroke-miterlimit="10" stroke-width="2.5"/><path d="M123.768,208.427V197.3c-11.045-.139-17.371-7.781-17.371-21.015V156.393c0-13.867-4.093-21.449-13.27-24.586a3.64,3.64,0,0,1-2.5-3.472,3.691,3.691,0,0,1,2.479-3.492c8.94-3.12,13.287-11.021,13.287-24.153v-20c0-20.418,12.977-20.418,17.242-20.418h.129V49.145h-2.711c-19.179,0-30.179,10.96-30.179,30.07V100.8c0,12.591-3.359,20.619-19.611,21.346v12.936c16.252.831,19.611,8.777,19.611,21.2v22.275c0,26.958,21.105,29.868,30.179,29.868Z" fill="#231f20" stroke="#231f20" stroke-miterlimit="10" stroke-width="2.5"/><path d="M27.189,288.035v42.681c0,12.759,4.84,19.25,13.42,19.25,8.8,0,13.64-6.161,13.64-19.25V288.035h16.72v41.58c0,22.881-11.55,33.771-30.91,33.771-18.7,0-29.7-10.34-29.7-33.991v-41.36Z" fill="#010101"/><path d="M148.848,374.935a255.846,255.846,0,0,1-29.26-10.45,16.738,16.738,0,0,0-5.17-1.1c-16.72-1.1-32.34-13.42-32.34-37.621,0-22.219,14.08-38.94,36.19-38.94,22.66,0,35.09,17.16,35.09,37.4,0,16.83-7.81,28.71-17.6,33.111v.439c5.72,1.651,12.1,2.971,17.93,4.181Zm-13.2-50.049c0-13.531-6.38-24.75-17.82-24.75s-18.04,11.219-18.04,25.08c-.11,14.08,6.71,24.86,17.93,24.86C129.048,350.076,135.648,339.405,135.648,324.886Z" fill="#010101"/><path d="M218.808,360.086c-3.08,1.54-10.011,3.189-19.031,3.189-25.629,0-38.83-15.949-38.83-37.069,0-25.3,18.04-39.381,40.48-39.381,8.691,0,15.29,1.76,18.261,3.3l-3.411,13.31a36.221,36.221,0,0,0-14.08-2.75c-13.31,0-23.65,8.031-23.65,24.531,0,14.849,8.8,24.2,23.761,24.2A41.9,41.9,0,0,0,216.277,347Z" fill="#010101"/><path d="M230.355,344.905a42.77,42.77,0,0,0,18.591,4.62c7.7,0,11.769-3.189,11.769-8.029,0-4.62-3.519-7.261-12.429-10.45-12.321-4.29-20.351-11.111-20.351-21.891,0-12.649,10.561-22.33,28.051-22.33a45.428,45.428,0,0,1,18.92,3.74l-3.74,13.531a35.228,35.228,0,0,0-15.51-3.521c-7.26,0-10.78,3.3-10.78,7.15,0,4.73,4.179,6.821,13.75,10.451,13.089,4.839,19.25,11.66,19.25,22.11,0,12.43-9.57,22.989-29.92,22.989-8.47,0-16.83-2.2-21.01-4.51Z" fill="#010101"/></g></g></svg>