<svg xmlns="http://www.w3.org/2000/svg" width="413.188" height="358.656" viewBox="0 0 413.188 358.656"><title>UQCS_Logo_Portrait_Light</title><g id="Layer_2" data-name="Layer 2"><g id="Layer_1-2" data-name="Layer 1"><path d="M257.945,7.5H155.01a32.141,32.141,0,0,0-27.836,16.071L75.706,112.715a32.145,32.145,0,0,0,0,32.142L127.174,234a32.14,32.14,0,0,0,27.835,16.071H257.944A32.141,32.141,0,0,0,285.78,234l51.468-89.144a32.145,32.145,0,0,0,0-32.142L285.78,23.571A32.14,32.14,0,0,0,257.945,7.5Z" fill="#5397d1" stroke="#010101" stroke-miterlimit="10" stroke-width="15"/><path d="M3.52,284.5v15.957c0,6.039,2.679,8.6,6.278,8.6,4,0,6.559-2.639,6.559-8.6V284.5h3.519v15.717c0,8.278-4.358,11.677-10.2,11.677C4.159,311.892,0,308.733,0,300.375V284.5Z" fill="#010101"/><path d="M25.8,297.336c0-2-.04-3.64-.159-5.24h3.119l.2,3.2h.08a7.118,7.118,0,0,1,6.4-3.64c2.679,0,6.839,1.6,6.839,8.239v11.558h-3.52V300.3c0-3.12-1.16-5.719-4.479-5.719a5,5,0,0,0-4.719,3.6,5.061,5.061,0,0,0-.24,1.64v11.638H25.8Z" fill="#010101"/><path d="M51.918,286.657a2.18,2.18,0,0,1-4.359,0,2.145,2.145,0,0,1,2.2-2.2A2.088,2.088,0,0,1,51.918,286.657ZM48,311.453V292.1h3.52v19.357Z" fill="#010101"/><path d="M58.719,292.1l3.8,10.878a49.854,49.854,0,0,1,1.56,4.959h.12c.44-1.6,1-3.2,1.639-4.959L69.6,292.1h3.679l-7.6,19.357h-3.36L54.959,292.1Z" fill="#010101"/><path d="M78.159,302.415c.079,4.759,3.119,6.718,6.638,6.718a12.72,12.72,0,0,0,5.359-1l.6,2.52a15.671,15.671,0,0,1-6.439,1.2c-5.959,0-9.518-3.92-9.518-9.759s3.439-10.438,9.078-10.438c6.319,0,8,5.56,8,9.119a13.293,13.293,0,0,1-.12,1.64Zm10.318-2.52c.04-2.24-.92-5.72-4.879-5.72-3.56,0-5.119,3.28-5.4,5.72Z" fill="#010101"/><path d="M96.238,298.135c0-2.28-.04-4.239-.159-6.039h3.079l.12,3.8h.16a5.809,5.809,0,0,1,5.359-4.239,3.807,3.807,0,0,1,1,.12V295.1a5.288,5.288,0,0,0-1.2-.12c-2.48,0-4.239,1.88-4.719,4.52a9.9,9.9,0,0,0-.16,1.639v10.319h-3.48Z" fill="#010101"/><path d="M108.838,307.853a9.224,9.224,0,0,0,4.639,1.4c2.56,0,3.76-1.281,3.76-2.88,0-1.68-1-2.6-3.6-3.56-3.479-1.239-5.119-3.159-5.119-5.478,0-3.12,2.52-5.68,6.679-5.68a9.659,9.659,0,0,1,4.759,1.2l-.88,2.56a7.521,7.521,0,0,0-3.959-1.12c-2.08,0-3.24,1.2-3.24,2.639,0,1.6,1.16,2.32,3.68,3.28,3.36,1.28,5.079,2.959,5.079,5.838,0,3.4-2.639,5.8-7.239,5.8a11.039,11.039,0,0,1-5.439-1.32Z" fill="#010101"/><path d="M129.077,286.657a2.18,2.18,0,0,1-4.359,0,2.144,2.144,0,0,1,2.2-2.2A2.089,2.089,0,0,1,129.077,286.657Zm-3.919,24.8V292.1h3.519v19.357Z" fill="#010101"/><path d="M138.757,286.537V292.1H143.8v2.68h-5.039v10.438c0,2.4.68,3.759,2.639,3.759a7.83,7.83,0,0,0,2.04-.24l.16,2.64a8.615,8.615,0,0,1-3.119.48,4.878,4.878,0,0,1-3.8-1.48c-1-1.04-1.36-2.759-1.36-5.039V294.776h-3V292.1h3v-4.639Z" fill="#010101"/><path d="M149.4,292.1l4.239,11.438c.44,1.28.92,2.8,1.24,3.96h.08c.36-1.16.76-2.64,1.24-4.04l3.839-11.358h3.719l-5.278,13.8c-2.52,6.639-4.24,10.038-6.64,12.117a9.528,9.528,0,0,1-4.318,2.281l-.88-2.96a9.326,9.326,0,0,0,3.079-1.72,10.667,10.667,0,0,0,2.959-3.919,2.541,2.541,0,0,0,.281-.84,3.08,3.08,0,0,0-.241-.92L145.558,292.1Z" fill="#010101"/><path d="M192.954,301.615c0,7.158-4.959,10.277-9.639,10.277-5.239,0-9.278-3.839-9.278-9.958,0-6.478,4.239-10.278,9.6-10.278C189.194,291.656,192.954,295.7,192.954,301.615Zm-15.358.2c0,4.239,2.44,7.44,5.879,7.44,3.359,0,5.879-3.161,5.879-7.52,0-3.279-1.64-7.438-5.8-7.438S177.6,298.135,177.6,301.814Z" fill="#010101"/><path d="M197.756,311.453V294.776h-2.719V292.1h2.719v-.92c0-2.719.6-5.2,2.24-6.758a6.73,6.73,0,0,1,4.719-1.8,8.165,8.165,0,0,1,3,.559l-.48,2.72a5.256,5.256,0,0,0-2.24-.44c-3,0-3.759,2.639-3.759,5.6v1.04h4.679v2.68h-4.679v16.677Z" fill="#010101"/><path d="M239.912,315.412c-3.64-.96-7.2-2.039-10.318-3.119a5.143,5.143,0,0,0-1.64-.4c-6.4-.239-11.878-4.959-11.878-13.637,0-8.638,5.279-14.2,12.558-14.2,7.319,0,12.078,5.679,12.078,13.638,0,6.919-3.2,11.358-7.679,12.918v.16c2.68.68,5.6,1.319,7.879,1.72Zm-2.879-17.557c0-5.4-2.8-10.958-8.519-10.958-5.879,0-8.759,5.439-8.719,11.278-.04,5.719,3.12,10.878,8.559,10.878C233.913,309.053,237.033,304.014,237.033,297.855Z" fill="#010101"/><path d="M261.432,306.174c0,2,.04,3.759.16,5.279h-3.12l-.2-3.159h-.08a7.283,7.283,0,0,1-6.4,3.6c-3.039,0-6.679-1.679-6.679-8.478V292.1h3.52v10.718c0,3.68,1.12,6.159,4.319,6.159a5.085,5.085,0,0,0,4.639-3.2,5.148,5.148,0,0,0,.32-1.8V292.1h3.52Z" fill="#010101"/><path d="M269.234,302.415c.08,4.759,3.12,6.718,6.639,6.718a12.72,12.72,0,0,0,5.359-1l.6,2.52a15.675,15.675,0,0,1-6.439,1.2c-5.959,0-9.518-3.92-9.518-9.759s3.439-10.438,9.078-10.438c6.319,0,8,5.56,8,9.119a13.293,13.293,0,0,1-.12,1.64Zm10.318-2.52c.04-2.24-.919-5.72-4.879-5.72-3.559,0-5.119,3.28-5.4,5.72Z" fill="#010101"/><path d="M289.274,302.415c.08,4.759,3.12,6.718,6.64,6.718a12.718,12.718,0,0,0,5.358-1l.6,2.52a15.688,15.688,0,0,1-6.44,1.2c-5.959,0-9.518-3.92-9.518-9.759s3.439-10.438,9.079-10.438c6.318,0,8,5.56,8,9.119a13.293,13.293,0,0,1-.12,1.64Zm10.318-2.52c.04-2.24-.92-5.72-4.879-5.72-3.559,0-5.119,3.28-5.4,5.72Z" fill="#010101"/><path d="M307.354,297.336c0-2-.04-3.64-.16-5.24h3.119l.2,3.2h.08a7.118,7.118,0,0,1,6.4-3.64c2.679,0,6.839,1.6,6.839,8.239v11.558h-3.52V300.3c0-3.12-1.159-5.719-4.478-5.719a5,5,0,0,0-4.72,3.6,5.061,5.061,0,0,0-.24,1.64v11.638h-3.519Z" fill="#010101"/><path d="M329.073,307.853a9.224,9.224,0,0,0,4.639,1.4c2.56,0,3.759-1.281,3.759-2.88,0-1.68-1-2.6-3.6-3.56-3.48-1.239-5.12-3.159-5.12-5.478,0-3.12,2.52-5.68,6.679-5.68a9.662,9.662,0,0,1,4.759,1.2l-.88,2.56a7.521,7.521,0,0,0-3.959-1.12c-2.08,0-3.239,1.2-3.239,2.639,0,1.6,1.159,2.32,3.679,3.28,3.359,1.28,5.079,2.959,5.079,5.838,0,3.4-2.64,5.8-7.239,5.8a11.037,11.037,0,0,1-5.439-1.32Z" fill="#010101"/><path d="M345.393,283.057h3.519v28.4h-3.519Z" fill="#010101"/><path d="M365.55,311.453l-.28-2.44h-.121a7.207,7.207,0,0,1-5.919,2.879,5.514,5.514,0,0,1-5.918-5.558c0-4.68,4.159-7.24,11.638-7.2v-.4c0-1.6-.44-4.479-4.4-4.479a9.639,9.639,0,0,0-5.039,1.439l-.8-2.319a12.011,12.011,0,0,1,6.358-1.72c5.919,0,7.36,4.039,7.36,7.919v7.238a27.369,27.369,0,0,0,.319,4.64Zm-.52-9.878c-3.84-.08-8.2.6-8.2,4.358a3.115,3.115,0,0,0,3.319,3.361,4.817,4.817,0,0,0,4.68-3.241,3.662,3.662,0,0,0,.2-1.119Z" fill="#010101"/><path d="M374.111,297.336c0-2-.04-3.64-.16-5.24h3.119l.2,3.2h.08a7.117,7.117,0,0,1,6.4-3.64c2.68,0,6.839,1.6,6.839,8.239v11.558h-3.52V300.3c0-3.12-1.159-5.719-4.478-5.719a5,5,0,0,0-4.72,3.6,5.061,5.061,0,0,0-.24,1.64v11.638h-3.519Z" fill="#010101"/><path d="M413.027,283.057v23.4c0,1.72.04,3.679.161,5h-3.16l-.16-3.36h-.08a7.159,7.159,0,0,1-6.6,3.8c-4.679,0-8.279-3.959-8.279-9.838-.04-6.438,3.96-10.4,8.679-10.4a6.471,6.471,0,0,1,5.839,2.96h.08V283.057Zm-3.519,16.917a6.211,6.211,0,0,0-.16-1.479,5.177,5.177,0,0,0-5.079-4.079c-3.639,0-5.8,3.2-5.8,7.478,0,3.92,1.92,7.159,5.718,7.159a5.29,5.29,0,0,0,5.16-4.2,6.111,6.111,0,0,0,.16-1.519Z" fill="#010101"/><path d="M63.335,349.018a17.048,17.048,0,0,1-6.959,1.2c-8.558,0-13.757-5.359-13.757-13.559,0-8.878,6.159-14.237,14.4-14.237a15.486,15.486,0,0,1,6.559,1.2l-1.08,3.919a13.116,13.116,0,0,0-5.28-1.04c-5.479,0-9.438,3.44-9.438,9.919,0,5.919,3.479,9.718,9.4,9.718a13.772,13.772,0,0,0,5.36-1Z" fill="#010101"/><path d="M85.216,339.9c0,7.158-5.039,10.357-10,10.357-5.519,0-9.759-3.8-9.759-10.038,0-6.4,4.2-10.318,10.079-10.318C81.336,329.9,85.216,333.981,85.216,339.9Zm-14.677.2c0,3.76,1.839,6.6,4.838,6.6,2.8,0,4.76-2.759,4.76-6.679,0-3.039-1.36-6.519-4.72-6.519C71.938,333.5,70.539,336.86,70.539,340.1Z" fill="#010101"/><path d="M89.259,336.14c0-2.239-.04-4.119-.16-5.8h4.239l.2,2.879h.12a6.735,6.735,0,0,1,6-3.319,5.616,5.616,0,0,1,5.4,3.6h.08a7.35,7.35,0,0,1,2.4-2.439,6.5,6.5,0,0,1,3.92-1.16c3.239,0,6.518,2.2,6.518,8.438v11.479h-4.8V339.06c0-3.24-1.12-5.159-3.479-5.159a3.751,3.751,0,0,0-3.44,2.6,7.039,7.039,0,0,0-.239,1.64v11.678h-4.8V338.539c0-2.719-1.08-4.638-3.359-4.638a3.841,3.841,0,0,0-3.52,2.8,4.213,4.213,0,0,0-.279,1.6v11.519h-4.8Z" fill="#010101"/><path d="M123.179,336.82c0-2.56-.08-4.639-.16-6.479h4.319l.241,3h.079a7.587,7.587,0,0,1,6.679-3.439c4.479,0,8.2,3.839,8.2,9.919,0,7.038-4.439,10.437-8.879,10.437a6.4,6.4,0,0,1-5.479-2.6h-.08v10.079h-4.919Zm4.919,4.839a5.074,5.074,0,0,0,.16,1.36,4.448,4.448,0,0,0,4.32,3.439c3.119,0,4.959-2.6,4.959-6.439,0-3.439-1.68-6.239-4.839-6.239a4.585,4.585,0,0,0-4.4,3.64,4.459,4.459,0,0,0-.2,1.239Z" fill="#010101"/><path d="M164.016,343.979c0,2.319.08,4.239.16,5.839h-4.32l-.24-2.96h-.08a7.041,7.041,0,0,1-6.239,3.4c-3.559,0-6.8-2.119-6.8-8.479V330.341h4.918v10.6c0,3.24,1.041,5.319,3.64,5.319a4.143,4.143,0,0,0,3.759-2.64,4.442,4.442,0,0,0,.28-1.519V330.341h4.92Z" fill="#010101"/><path d="M174.977,324.781v5.56h4.679v3.68h-4.679v8.6c0,2.361.64,3.6,2.52,3.6a7.317,7.317,0,0,0,1.919-.239l.08,3.758a10.771,10.771,0,0,1-3.559.481,5.7,5.7,0,0,1-4.24-1.6c-1.039-1.119-1.519-2.879-1.519-5.438v-9.158h-2.8v-3.68h2.8v-4.4Z" fill="#010101"/><path d="M188.617,324.9a2.761,2.761,0,1,1-2.76-2.68A2.607,2.607,0,0,1,188.617,324.9Zm-5.239,24.916V330.341h4.959v19.477Z" fill="#010101"/><path d="M193.618,336.14c0-2.239-.04-4.119-.16-5.8h4.319l.24,2.919h.12a7.021,7.021,0,0,1,6.2-3.359c3.4,0,6.918,2.2,6.918,8.359v11.558h-4.919v-11c0-2.8-1.04-4.919-3.719-4.919a4.126,4.126,0,0,0-3.839,2.878,5.02,5.02,0,0,0-.2,1.6v11.439h-4.959Z" fill="#010101"/><path d="M234.294,330.341c-.08,1.319-.16,2.919-.16,5.6v11.038c0,4.08-.84,7-2.879,8.839a11.206,11.206,0,0,1-7.519,2.359,13.775,13.775,0,0,1-6.8-1.56l1.079-3.719a11.757,11.757,0,0,0,5.679,1.48c3.2,0,5.6-1.68,5.6-5.879v-1.679h-.08a6.577,6.577,0,0,1-5.679,2.878c-4.839,0-8.278-4-8.278-9.518,0-6.4,4.159-10.278,8.838-10.278a6.13,6.13,0,0,1,5.639,3.04h.08l.2-2.6Zm-5.079,7.8a4.773,4.773,0,0,0-.16-1.32,4.084,4.084,0,0,0-4-3.16c-2.76,0-4.8,2.4-4.8,6.359,0,3.32,1.68,6,4.759,6a4.2,4.2,0,0,0,4-2.959,8.474,8.474,0,0,0,.2-1.76Z" fill="#010101"/><path d="M247.777,344.458a13.615,13.615,0,0,0,6.518,1.72c3.16,0,4.92-1.48,4.92-3.679,0-2.04-1.36-3.24-4.8-4.479-4.44-1.6-7.279-3.96-7.279-7.839,0-4.4,3.679-7.759,9.518-7.759a14.235,14.235,0,0,1,6.479,1.36l-1.2,3.959a11.406,11.406,0,0,0-5.359-1.28c-3.119,0-4.479,1.68-4.479,3.24,0,2.079,1.56,3.039,5.159,4.439,4.679,1.76,6.959,4.12,6.959,8,0,4.319-3.279,8.079-10.238,8.079a16.009,16.009,0,0,1-7.279-1.681Z" fill="#010101"/><path d="M287.213,339.9c0,7.158-5.039,10.357-10,10.357-5.519,0-9.758-3.8-9.758-10.038,0-6.4,4.2-10.318,10.078-10.318C283.333,329.9,287.213,333.981,287.213,339.9Zm-14.677.2c0,3.76,1.839,6.6,4.839,6.6,2.8,0,4.759-2.759,4.759-6.679,0-3.039-1.36-6.519-4.719-6.519C273.936,333.5,272.536,336.86,272.536,340.1Z" fill="#010101"/><path d="M305.574,349.218a14.255,14.255,0,0,1-5.519,1c-6.079,0-10.039-3.88-10.039-9.919,0-5.839,4-10.4,10.839-10.4a12.291,12.291,0,0,1,4.759.919l-.88,3.68a8.668,8.668,0,0,0-3.72-.76c-3.759,0-6,2.76-5.959,6.319,0,4,2.6,6.279,5.959,6.279a9.605,9.605,0,0,0,3.88-.76Z" fill="#010101"/><path d="M314.456,324.9a2.761,2.761,0,1,1-2.76-2.68A2.608,2.608,0,0,1,314.456,324.9Zm-5.24,24.916V330.341h4.959v19.477Z" fill="#010101"/><path d="M322.936,341.459c.12,3.52,2.879,5.039,6,5.039a14.628,14.628,0,0,0,5.4-.88l.721,3.4a18.359,18.359,0,0,1-6.8,1.2c-6.319,0-10.039-3.88-10.039-9.839,0-5.4,3.281-10.478,9.519-10.478,6.319,0,8.4,5.2,8.4,9.478a12.235,12.235,0,0,1-.159,2.08Zm8.559-3.439c.04-1.8-.76-4.76-4.039-4.76-3.04,0-4.32,2.76-4.52,4.76Z" fill="#010101"/><path d="M345.735,324.781v5.56h4.679v3.68h-4.679v8.6c0,2.361.64,3.6,2.519,3.6a7.319,7.319,0,0,0,1.92-.239l.08,3.758a10.775,10.775,0,0,1-3.559.481,5.693,5.693,0,0,1-4.239-1.6c-1.04-1.119-1.52-2.879-1.52-5.438v-9.158h-2.8v-3.68h2.8v-4.4Z" fill="#010101"/><path d="M357.494,330.341l3.52,10.438c.4,1.2.8,2.679,1.08,3.8h.12c.319-1.12.68-2.559,1.04-3.839l3.039-10.4h5.279l-4.879,13.277c-2.679,7.28-4.479,10.519-6.8,12.519a9.887,9.887,0,0,1-5.159,2.519l-1.12-4.159a8.415,8.415,0,0,0,2.879-1.36,8.586,8.586,0,0,0,2.68-3.079,1.984,1.984,0,0,0,.32-.88,2.083,2.083,0,0,0-.28-.96L352.1,330.341Z" fill="#010101"/><path d="M228.079,208.427V197.3c11.045-.139,17.371-7.781,17.371-21.015V156.393c0-13.867,4.093-21.449,13.27-24.586a3.64,3.64,0,0,0,2.5-3.472,3.691,3.691,0,0,0-2.479-3.492c-8.94-3.12-13.287-11.021-13.287-24.153v-20c0-20.418-12.978-20.418-17.242-20.418h-.129V49.145h2.711c19.179,0,30.179,10.96,30.179,30.07V100.8c0,12.591,3.359,20.619,19.611,21.346v12.936c-16.252.831-19.611,8.777-19.611,21.2v22.275c0,26.958-21.1,29.868-30.179,29.868Z" fill="#fff" stroke="#fff" stroke-miterlimit="10" stroke-width="2.5"/><path d="M228.079,208.427V197.3c11.045-.139,17.371-7.781,17.371-21.015V156.393c0-13.867,4.093-21.449,13.27-24.586a3.64,3.64,0,0,0,2.5-3.472,3.691,3.691,0,0,0-2.479-3.492c-8.94-3.12-13.287-11.021-13.287-24.153v-20c0-20.418-12.978-20.418-17.242-20.418h-.129V49.145h2.711c19.179,0,30.179,10.96,30.179,30.07V100.8c0,12.591,3.359,20.619,19.611,21.346v12.936c-16.252.831-19.611,8.777-19.611,21.2v22.275c0,26.958-21.1,29.868-30.179,29.868Z" fill="#fff" stroke="#fff" stroke-miterlimit="10" stroke-width="2.5"/><path d="M184.875,208.427V197.3c-11.045-.139-17.371-7.781-17.371-21.015V156.393c0-13.867-4.093-21.449-13.27-24.586a3.64,3.64,0,0,1-2.5-3.472,3.691,3.691,0,0,1,2.479-3.492c8.94-3.12,13.287-11.021,13.287-24.153v-20c0-20.418,12.978-20.418,17.242-20.418h.129V49.145h-2.711c-19.179,0-30.179,10.96-30.179,30.07V100.8c0,12.591-3.359,20.619-19.611,21.346v12.936c16.252.831,19.611,8.777,19.611,21.2v22.275c0,26.958,21.1,29.868,30.179,29.868Z" fill="#fff" stroke="#fff" stroke-miterlimit="10" stroke-width="2.5"/><path d="M184.875,208.427V197.3c-11.045-.139-17.371-7.781-17.371-21.015V156.393c0-13.867-4.093-21.449-13.27-24.586a3.64,3.64,0,0,1-2.5-3.472,3.691,3.691,0,0,1,2.479-3.492c8.94-3.12,13.287-11.021,13.287-24.153v-20c0-20.418,12.978-20.418,17.242-20.418h.129V49.145h-2.711c-19.179,0-30.179,10.96-30.179,30.07V100.8c0,12.591-3.359,20.619-19.611,21.346v12.936c16.252.831,19.611,8.777,19.611,21.2v22.275c0,26.958,21.1,29.868,30.179,29.868Z" fill="#fff" stroke="#fff" stroke-miterlimit="10" stroke-width="2.5"/></g></g></svg>