<svg xmlns="http://www.w3.org/2000/svg" width="413.188" height="358.657" viewBox="0 0 413.188 358.657"><title>UQCS_Logo_Portrait_Mono_Dark</title><g id="Layer_2" data-name="Layer 2"><g id="Layer_1-2" data-name="Layer 1"><path d="M257.944,7.5H155.009a32.141,32.141,0,0,0-27.835,16.071L75.706,112.715a32.145,32.145,0,0,0,0,32.142L127.174,234a32.14,32.14,0,0,0,27.835,16.071H257.944A32.141,32.141,0,0,0,285.78,234l51.467-89.144a32.14,32.14,0,0,0,0-32.142L285.78,23.571A32.141,32.141,0,0,0,257.944,7.5Z" fill="none" stroke="#fff" stroke-miterlimit="10" stroke-width="15"/><path d="M3.52,284.5v15.957c0,6.039,2.679,8.6,6.279,8.6,4,0,6.558-2.64,6.558-8.6V284.5h3.52v15.717c0,8.278-4.359,11.677-10.2,11.677-5.52,0-9.679-3.159-9.679-11.517V284.5Z" fill="#fff"/><path d="M25.8,297.336c0-2-.04-3.64-.16-5.24h3.119l.2,3.2h.08a7.118,7.118,0,0,1,6.4-3.64c2.679,0,6.839,1.6,6.839,8.239v11.558H38.758V300.3c0-3.119-1.16-5.719-4.48-5.719a5.162,5.162,0,0,0-4.959,5.239v11.638H25.8Z" fill="#fff"/><path d="M51.919,286.657a2.18,2.18,0,0,1-4.359,0,2.144,2.144,0,0,1,2.2-2.2A2.089,2.089,0,0,1,51.919,286.657ZM48,311.453V292.1h3.52v19.357Z" fill="#fff"/><path d="M58.719,292.1l3.8,10.878a50.1,50.1,0,0,1,1.559,4.959h.12c.44-1.6,1-3.2,1.64-4.959L69.6,292.1h3.679l-7.6,19.357h-3.36L54.96,292.1Z" fill="#fff"/><path d="M78.159,302.415c.079,4.759,3.119,6.719,6.639,6.719a12.734,12.734,0,0,0,5.358-1l.6,2.519a15.681,15.681,0,0,1-6.44,1.2c-5.959,0-9.518-3.92-9.518-9.758s3.439-10.439,9.079-10.439c6.318,0,8,5.56,8,9.119a13.335,13.335,0,0,1-.119,1.64Zm10.318-2.52c.04-2.24-.919-5.719-4.879-5.719-3.56,0-5.119,3.279-5.4,5.719Z" fill="#fff"/><path d="M96.238,298.136c0-2.281-.04-4.24-.159-6.04h3.079l.12,3.8h.16a5.809,5.809,0,0,1,5.359-4.239,3.8,3.8,0,0,1,1,.12v3.32a5.218,5.218,0,0,0-1.2-.121c-2.481,0-4.24,1.88-4.72,4.52a9.9,9.9,0,0,0-.16,1.64v10.318h-3.48Z" fill="#fff"/><path d="M108.838,307.853a9.225,9.225,0,0,0,4.64,1.4c2.559,0,3.759-1.281,3.759-2.88,0-1.68-1-2.6-3.6-3.56-3.48-1.239-5.119-3.159-5.119-5.478,0-3.12,2.519-5.68,6.678-5.68a9.667,9.667,0,0,1,4.759,1.2l-.88,2.56a7.521,7.521,0,0,0-3.959-1.12c-2.08,0-3.239,1.2-3.239,2.639,0,1.6,1.159,2.32,3.68,3.28,3.359,1.28,5.079,2.96,5.079,5.839,0,3.4-2.64,5.8-7.24,5.8a11.039,11.039,0,0,1-5.439-1.32Z" fill="#fff"/><path d="M129.077,286.657a2.18,2.18,0,0,1-4.359,0,2.145,2.145,0,0,1,2.2-2.2A2.089,2.089,0,0,1,129.077,286.657Zm-3.919,24.8V292.1h3.52v19.357Z" fill="#fff"/><path d="M138.757,286.537V292.1H143.8v2.68h-5.039v10.438c0,2.4.681,3.759,2.639,3.759a7.845,7.845,0,0,0,2.041-.24l.16,2.64a8.621,8.621,0,0,1-3.12.48,4.876,4.876,0,0,1-3.8-1.48c-1-1.04-1.361-2.759-1.361-5.039V294.776h-3V292.1h3v-4.639Z" fill="#fff"/><path d="M149.4,292.1l4.24,11.438c.439,1.28.92,2.8,1.239,3.96h.08c.36-1.16.76-2.64,1.24-4.04l3.839-11.358h3.72l-5.279,13.8c-2.52,6.639-4.24,10.038-6.639,12.118a9.541,9.541,0,0,1-4.319,2.28l-.88-2.96a9.3,9.3,0,0,0,3.079-1.72,10.668,10.668,0,0,0,2.96-3.919,2.527,2.527,0,0,0,.28-.84,3.069,3.069,0,0,0-.24-.92L145.558,292.1Z" fill="#fff"/><path d="M192.954,301.615c0,7.158-4.959,10.277-9.639,10.277-5.239,0-9.278-3.838-9.278-9.958,0-6.478,4.239-10.278,9.6-10.278C189.194,291.656,192.954,295.7,192.954,301.615Zm-15.357.2c0,4.24,2.439,7.44,5.879,7.44,3.359,0,5.878-3.16,5.878-7.52,0-3.279-1.639-7.438-5.8-7.438S177.6,298.136,177.6,301.814Z" fill="#fff"/><path d="M197.757,311.453V294.776h-2.72V292.1h2.72v-.919c0-2.72.6-5.2,2.239-6.759a6.731,6.731,0,0,1,4.72-1.8,8.14,8.14,0,0,1,3,.56l-.48,2.719a5.256,5.256,0,0,0-2.24-.44c-3,0-3.759,2.639-3.759,5.6v1.04h4.679v2.68h-4.679v16.677Z" fill="#fff"/><path d="M239.912,315.412c-3.64-.96-7.2-2.039-10.318-3.119a5.163,5.163,0,0,0-1.64-.4c-6.4-.239-11.878-4.959-11.878-13.637,0-8.638,5.279-14.2,12.558-14.2,7.319,0,12.078,5.679,12.078,13.638,0,6.919-3.2,11.359-7.679,12.918v.16c2.68.68,5.6,1.32,7.879,1.72Zm-2.879-17.557c0-5.4-2.8-10.958-8.519-10.958-5.879,0-8.758,5.439-8.718,11.279-.04,5.718,3.119,10.878,8.558,10.878C233.913,309.054,237.033,304.014,237.033,297.855Z" fill="#fff"/><path d="M261.432,306.174c0,2,.04,3.759.16,5.279h-3.119l-.2-3.159h-.08a7.283,7.283,0,0,1-6.4,3.6c-3.04,0-6.68-1.679-6.68-8.478V292.1h3.52v10.718c0,3.68,1.12,6.159,4.319,6.159a5.088,5.088,0,0,0,4.64-3.2,5.148,5.148,0,0,0,.319-1.8V292.1h3.52Z" fill="#fff"/><path d="M269.234,302.415c.08,4.759,3.12,6.719,6.639,6.719a12.736,12.736,0,0,0,5.359-1l.6,2.519a15.67,15.67,0,0,1-6.438,1.2c-5.959,0-9.519-3.92-9.519-9.758s3.439-10.439,9.078-10.439c6.319,0,8,5.56,8,9.119a13.293,13.293,0,0,1-.12,1.64Zm10.319-2.52c.04-2.24-.92-5.719-4.879-5.719-3.56,0-5.119,3.279-5.4,5.719Z" fill="#fff"/><path d="M289.274,302.415c.08,4.759,3.121,6.719,6.64,6.719a12.731,12.731,0,0,0,5.358-1l.6,2.519a15.679,15.679,0,0,1-6.439,1.2c-5.959,0-9.519-3.92-9.519-9.758s3.439-10.439,9.079-10.439c6.318,0,8,5.56,8,9.119a13.293,13.293,0,0,1-.12,1.64Zm10.319-2.52c.04-2.24-.92-5.719-4.879-5.719-3.56,0-5.119,3.279-5.4,5.719Z" fill="#fff"/><path d="M307.354,297.336c0-2-.04-3.64-.16-5.24h3.119l.2,3.2h.08a7.117,7.117,0,0,1,6.4-3.64c2.68,0,6.839,1.6,6.839,8.239v11.558h-3.519V300.3c0-3.119-1.16-5.719-4.479-5.719a5.162,5.162,0,0,0-4.96,5.239v11.638h-3.519Z" fill="#fff"/><path d="M329.073,307.853a9.225,9.225,0,0,0,4.64,1.4c2.559,0,3.759-1.281,3.759-2.88,0-1.68-1-2.6-3.6-3.56-3.479-1.239-5.119-3.159-5.119-5.478,0-3.12,2.519-5.68,6.679-5.68a9.668,9.668,0,0,1,4.758,1.2l-.879,2.56a7.524,7.524,0,0,0-3.959-1.12c-2.081,0-3.24,1.2-3.24,2.639,0,1.6,1.159,2.32,3.679,3.28,3.359,1.28,5.079,2.96,5.079,5.839,0,3.4-2.64,5.8-7.238,5.8a11.043,11.043,0,0,1-5.44-1.32Z" fill="#fff"/><path d="M345.394,283.057h3.518v28.4h-3.518Z" fill="#fff"/><path d="M365.551,311.453l-.28-2.44h-.121a7.207,7.207,0,0,1-5.919,2.879,5.514,5.514,0,0,1-5.919-5.558c0-4.68,4.16-7.239,11.639-7.2v-.4c0-1.6-.44-4.479-4.4-4.479a9.639,9.639,0,0,0-5.039,1.439l-.8-2.319a12.008,12.008,0,0,1,6.358-1.72c5.919,0,7.36,4.039,7.36,7.919v7.238a27.361,27.361,0,0,0,.319,4.64Zm-.52-9.878c-3.84-.08-8.2.6-8.2,4.358a3.115,3.115,0,0,0,3.319,3.361,4.818,4.818,0,0,0,4.68-3.24,3.674,3.674,0,0,0,.2-1.12Z" fill="#fff"/><path d="M374.112,297.336c0-2-.04-3.64-.16-5.24h3.119l.2,3.2h.081a7.117,7.117,0,0,1,6.4-3.64c2.68,0,6.839,1.6,6.839,8.239v11.558h-3.52V300.3c0-3.119-1.159-5.719-4.478-5.719a5.162,5.162,0,0,0-4.96,5.239v11.638h-3.519Z" fill="#fff"/><path d="M413.028,283.057v23.4c0,1.72.04,3.68.16,5h-3.159l-.16-3.359h-.08a7.16,7.16,0,0,1-6.6,3.8c-4.679,0-8.279-3.959-8.279-9.838-.04-6.438,3.96-10.4,8.679-10.4a6.471,6.471,0,0,1,5.839,2.96h.08V283.057Zm-3.519,16.917a6.211,6.211,0,0,0-.16-1.479,5.177,5.177,0,0,0-5.079-4.079c-3.639,0-5.8,3.2-5.8,7.478,0,3.92,1.92,7.16,5.718,7.16a5.291,5.291,0,0,0,5.16-4.2,6.111,6.111,0,0,0,.16-1.519Z" fill="#fff"/><path d="M63.336,349.018a17.035,17.035,0,0,1-6.959,1.2c-8.559,0-13.758-5.36-13.758-13.559,0-8.878,6.159-14.237,14.4-14.237a15.47,15.47,0,0,1,6.559,1.2l-1.08,3.919a13.1,13.1,0,0,0-5.279-1.04c-5.48,0-9.439,3.439-9.439,9.919,0,5.919,3.48,9.717,9.4,9.717a13.749,13.749,0,0,0,5.359-1Z" fill="#fff"/><path d="M85.216,339.9c0,7.158-5.039,10.358-10,10.358-5.519,0-9.758-3.8-9.758-10.038,0-6.4,4.2-10.319,10.078-10.319C81.337,329.9,85.216,333.981,85.216,339.9Zm-14.677.2c0,3.76,1.84,6.6,4.839,6.6,2.8,0,4.759-2.76,4.759-6.68,0-3.039-1.36-6.518-4.719-6.518C71.938,333.5,70.539,336.86,70.539,340.1Z" fill="#fff"/><path d="M89.26,336.14c0-2.239-.04-4.119-.16-5.8h4.239l.2,2.879h.12a6.735,6.735,0,0,1,6-3.32,5.617,5.617,0,0,1,5.4,3.6h.08a7.363,7.363,0,0,1,2.4-2.44,6.512,6.512,0,0,1,3.92-1.16c3.239,0,6.519,2.2,6.519,8.439v11.478h-4.8V339.06c0-3.24-1.12-5.159-3.48-5.159a3.75,3.75,0,0,0-3.439,2.6,7.029,7.029,0,0,0-.24,1.639v11.678h-4.8V338.54c0-2.72-1.08-4.639-3.36-4.639a3.841,3.841,0,0,0-3.519,2.8,4.21,4.21,0,0,0-.28,1.6v11.518h-4.8Z" fill="#fff"/><path d="M123.18,336.82c0-2.559-.08-4.639-.16-6.478h4.319l.24,3h.079a7.588,7.588,0,0,1,6.68-3.44c4.478,0,8.2,3.84,8.2,9.919,0,7.038-4.439,10.438-8.879,10.438a6.4,6.4,0,0,1-5.478-2.6h-.08v10.078H123.18Zm4.919,4.84a5.067,5.067,0,0,0,.16,1.359,4.447,4.447,0,0,0,4.319,3.44c3.119,0,4.959-2.6,4.959-6.44,0-3.438-1.68-6.238-4.839-6.238a4.583,4.583,0,0,0-4.4,3.64,4.454,4.454,0,0,0-.2,1.239Z" fill="#fff"/><path d="M164.016,343.979c0,2.32.08,4.24.16,5.839h-4.32l-.24-2.96h-.08a7.039,7.039,0,0,1-6.238,3.4c-3.56,0-6.8-2.12-6.8-8.479V330.342h4.919v10.6c0,3.24,1.04,5.32,3.64,5.32a4.143,4.143,0,0,0,3.758-2.64,4.447,4.447,0,0,0,.281-1.52V330.342h4.919Z" fill="#fff"/><path d="M174.978,324.782v5.56h4.678v3.679h-4.678v8.6c0,2.36.639,3.6,2.519,3.6a7.3,7.3,0,0,0,1.919-.24l.08,3.759a10.8,10.8,0,0,1-3.559.481,5.7,5.7,0,0,1-4.24-1.6c-1.039-1.119-1.519-2.879-1.519-5.439v-9.158h-2.8v-3.679h2.8v-4.4Z" fill="#fff"/><path d="M188.617,324.9a2.761,2.761,0,1,1-2.76-2.68A2.607,2.607,0,0,1,188.617,324.9Zm-5.239,24.916V330.342h4.959v19.476Z" fill="#fff"/><path d="M193.618,336.14c0-2.239-.04-4.119-.16-5.8h4.319l.241,2.919h.119a7.023,7.023,0,0,1,6.2-3.36c3.4,0,6.919,2.2,6.919,8.36v11.557h-4.919v-11c0-2.8-1.04-4.919-3.72-4.919a4.128,4.128,0,0,0-3.839,2.879,5.017,5.017,0,0,0-.2,1.6v11.438h-4.959Z" fill="#fff"/><path d="M234.3,330.342c-.08,1.319-.16,2.919-.16,5.6v11.038c0,4.08-.84,7-2.88,8.839a11.2,11.2,0,0,1-7.519,2.36,13.775,13.775,0,0,1-6.8-1.56l1.08-3.72a11.741,11.741,0,0,0,5.678,1.481c3.2,0,5.6-1.68,5.6-5.879v-1.68h-.08a6.578,6.578,0,0,1-5.68,2.879c-4.839,0-8.278-4-8.278-9.519,0-6.4,4.159-10.278,8.839-10.278a6.131,6.131,0,0,1,5.638,3.04h.08l.2-2.6Zm-5.079,7.8a4.782,4.782,0,0,0-.16-1.32,4.085,4.085,0,0,0-4-3.159c-2.76,0-4.8,2.4-4.8,6.358,0,3.321,1.68,6,4.76,6a4.2,4.2,0,0,0,4-2.959,8.464,8.464,0,0,0,.2-1.759Z" fill="#fff"/><path d="M247.777,344.459a13.619,13.619,0,0,0,6.519,1.72c3.159,0,4.919-1.48,4.919-3.679,0-2.04-1.36-3.24-4.8-4.48-4.439-1.6-7.279-3.96-7.279-7.839,0-4.4,3.679-7.758,9.518-7.758a14.23,14.23,0,0,1,6.48,1.36l-1.2,3.959a11.4,11.4,0,0,0-5.36-1.28c-3.119,0-4.478,1.679-4.478,3.24,0,2.079,1.559,3.039,5.158,4.438,4.68,1.76,6.959,4.121,6.959,8,0,4.32-3.279,8.08-10.238,8.08a16.012,16.012,0,0,1-7.279-1.681Z" fill="#fff"/><path d="M287.214,339.9c0,7.158-5.04,10.358-10,10.358-5.519,0-9.758-3.8-9.758-10.038,0-6.4,4.2-10.319,10.078-10.319C283.334,329.9,287.214,333.981,287.214,339.9Zm-14.678.2c0,3.76,1.84,6.6,4.839,6.6,2.8,0,4.759-2.76,4.759-6.68,0-3.039-1.36-6.518-4.719-6.518C273.936,333.5,272.536,336.86,272.536,340.1Z" fill="#fff"/><path d="M305.574,349.219a14.253,14.253,0,0,1-5.518,1c-6.079,0-10.039-3.88-10.039-9.919,0-5.839,4-10.4,10.838-10.4a12.289,12.289,0,0,1,4.759.92l-.88,3.68a8.648,8.648,0,0,0-3.719-.76c-3.759,0-6,2.76-5.959,6.318,0,4,2.6,6.28,5.959,6.28a9.626,9.626,0,0,0,3.88-.76Z" fill="#fff"/><path d="M314.456,324.9a2.761,2.761,0,1,1-2.76-2.68A2.607,2.607,0,0,1,314.456,324.9Zm-5.239,24.916V330.342h4.959v19.476Z" fill="#fff"/><path d="M322.937,341.46c.12,3.519,2.878,5.039,6,5.039a14.632,14.632,0,0,0,5.4-.88l.721,3.4a18.341,18.341,0,0,1-6.8,1.2c-6.319,0-10.039-3.88-10.039-9.839,0-5.4,3.28-10.479,9.518-10.479,6.32,0,8.4,5.2,8.4,9.479a12.244,12.244,0,0,1-.159,2.08Zm8.558-3.44c.04-1.8-.76-4.759-4.039-4.759-3.04,0-4.319,2.759-4.519,4.759Z" fill="#fff"/><path d="M345.735,324.782v5.56h4.68v3.679h-4.68v8.6c0,2.36.641,3.6,2.52,3.6a7.312,7.312,0,0,0,1.92-.24l.08,3.759a10.8,10.8,0,0,1-3.56.481,5.7,5.7,0,0,1-4.239-1.6c-1.04-1.119-1.519-2.879-1.519-5.439v-9.158h-2.8v-3.679h2.8v-4.4Z" fill="#fff"/><path d="M357.5,330.342l3.52,10.438c.4,1.2.8,2.679,1.08,3.8h.12c.319-1.12.68-2.56,1.04-3.839l3.039-10.4h5.279l-4.879,13.277c-2.679,7.279-4.479,10.518-6.8,12.518a9.89,9.89,0,0,1-5.159,2.52l-1.12-4.159a8.419,8.419,0,0,0,2.879-1.361,8.569,8.569,0,0,0,2.68-3.079,1.977,1.977,0,0,0,.32-.879,2.08,2.08,0,0,0-.28-.96L352.1,330.342Z" fill="#fff"/><path d="M228.079,208.427V197.3c11.045-.139,17.371-7.781,17.371-21.015V156.393c0-13.867,4.093-21.449,13.269-24.586a3.64,3.64,0,0,0,2.5-3.472,3.692,3.692,0,0,0-2.479-3.492c-8.94-3.12-13.287-11.021-13.287-24.153v-20c0-20.418-12.978-20.418-17.242-20.418h-.129V49.145h2.711c19.178,0,30.178,10.96,30.178,30.07V100.8c0,12.591,3.36,20.619,19.612,21.346v12.936c-16.252.831-19.612,8.777-19.612,21.2v22.275c0,26.958-21.1,29.868-30.178,29.868Z" fill="#fff" stroke="#fff" stroke-miterlimit="10" stroke-width="2.5"/><path d="M228.079,208.427V197.3c11.045-.139,17.371-7.781,17.371-21.015V156.393c0-13.867,4.093-21.449,13.269-24.586a3.64,3.64,0,0,0,2.5-3.472,3.692,3.692,0,0,0-2.479-3.492c-8.94-3.12-13.287-11.021-13.287-24.153v-20c0-20.418-12.978-20.418-17.242-20.418h-.129V49.145h2.711c19.178,0,30.178,10.96,30.178,30.07V100.8c0,12.591,3.36,20.619,19.612,21.346v12.936c-16.252.831-19.612,8.777-19.612,21.2v22.275c0,26.958-21.1,29.868-30.178,29.868Z" fill="#fff" stroke="#fff" stroke-miterlimit="10" stroke-width="2.5"/><path d="M184.875,208.427V197.3c-11.045-.139-17.371-7.781-17.371-21.015V156.393c0-13.867-4.093-21.449-13.27-24.586a3.64,3.64,0,0,1-2.5-3.472,3.691,3.691,0,0,1,2.479-3.492c8.94-3.12,13.287-11.021,13.287-24.153v-20c0-20.418,12.977-20.418,17.242-20.418h.129V49.145h-2.711c-19.179,0-30.179,10.96-30.179,30.07V100.8c0,12.591-3.359,20.619-19.611,21.346v12.936c16.252.831,19.611,8.777,19.611,21.2v22.275c0,26.958,21.1,29.868,30.179,29.868Z" fill="#fff" stroke="#fff" stroke-miterlimit="10" stroke-width="2.5"/><path d="M184.875,208.427V197.3c-11.045-.139-17.371-7.781-17.371-21.015V156.393c0-13.867-4.093-21.449-13.27-24.586a3.64,3.64,0,0,1-2.5-3.472,3.691,3.691,0,0,1,2.479-3.492c8.94-3.12,13.287-11.021,13.287-24.153v-20c0-20.418,12.977-20.418,17.242-20.418h.129V49.145h-2.711c-19.179,0-30.179,10.96-30.179,30.07V100.8c0,12.591-3.359,20.619-19.611,21.346v12.936c16.252.831,19.611,8.777,19.611,21.2v22.275c0,26.958,21.1,29.868,30.179,29.868Z" fill="#fff" stroke="#fff" stroke-miterlimit="10" stroke-width="2.5"/></g></g></svg>