<svg xmlns="http://www.w3.org/2000/svg" width="285.153" height="257.572" viewBox="0 0 285.153 257.572"><title>UQCS_Logo_Symbol_Light_Mono</title><g id="Layer_2" data-name="Layer 2"><g id="Layer_1-2" data-name="Layer 1"><path d="M194.044,7.5H91.109A32.14,32.14,0,0,0,63.274,23.571L11.806,112.715a32.145,32.145,0,0,0,0,32.142L63.274,234a32.14,32.14,0,0,0,27.835,16.071H194.044A32.143,32.143,0,0,0,221.88,234l51.467-89.144a32.14,32.14,0,0,0,0-32.142L221.88,23.571A32.143,32.143,0,0,0,194.044,7.5Z" fill="none" stroke="#231f20" stroke-miterlimit="10" stroke-width="15"/><path d="M164.179,208.427V197.3c11.045-.139,17.371-7.781,17.371-21.015V156.393c0-13.867,4.093-21.449,13.27-24.586a3.639,3.639,0,0,0,2.5-3.472,3.69,3.69,0,0,0-2.478-3.492c-8.941-3.12-13.288-11.021-13.288-24.153v-20c0-20.418-12.977-20.418-17.242-20.418h-.129V49.145h2.711c19.179,0,30.179,10.96,30.179,30.07V100.8c0,12.591,3.359,20.619,19.611,21.346v12.936c-16.252.831-19.611,8.777-19.611,21.2v22.275c0,26.958-21.1,29.868-30.179,29.868Z" fill="#231f20" stroke="#231f20" stroke-miterlimit="10" stroke-width="2.5"/><path d="M164.179,208.427V197.3c11.045-.139,17.371-7.781,17.371-21.015V156.393c0-13.867,4.093-21.449,13.27-24.586a3.639,3.639,0,0,0,2.5-3.472,3.69,3.69,0,0,0-2.478-3.492c-8.941-3.12-13.288-11.021-13.288-24.153v-20c0-20.418-12.977-20.418-17.242-20.418h-.129V49.145h2.711c19.179,0,30.179,10.96,30.179,30.07V100.8c0,12.591,3.359,20.619,19.611,21.346v12.936c-16.252.831-19.611,8.777-19.611,21.2v22.275c0,26.958-21.1,29.868-30.179,29.868Z" fill="#231f20" stroke="#231f20" stroke-miterlimit="10" stroke-width="2.5"/><path d="M120.976,208.427V197.3c-11.045-.139-17.372-7.781-17.372-21.015V156.393c0-13.867-4.092-21.449-13.269-24.586a3.639,3.639,0,0,1-2.5-3.472,3.69,3.69,0,0,1,2.478-3.492c8.941-3.12,13.287-11.021,13.287-24.153v-20c0-20.418,12.978-20.418,17.243-20.418h.129V49.145h-2.711c-19.179,0-30.179,10.96-30.179,30.07V100.8c0,12.591-3.359,20.619-19.611,21.346v12.936c16.252.831,19.611,8.777,19.611,21.2v22.275c0,26.958,21.1,29.868,30.179,29.868Z" fill="#231f20" stroke="#231f20" stroke-miterlimit="10" stroke-width="2.5"/><path d="M120.976,208.427V197.3c-11.045-.139-17.372-7.781-17.372-21.015V156.393c0-13.867-4.092-21.449-13.269-24.586a3.639,3.639,0,0,1-2.5-3.472,3.69,3.69,0,0,1,2.478-3.492c8.941-3.12,13.287-11.021,13.287-24.153v-20c0-20.418,12.978-20.418,17.243-20.418h.129V49.145h-2.711c-19.179,0-30.179,10.96-30.179,30.07V100.8c0,12.591-3.359,20.619-19.611,21.346v12.936c16.252.831,19.611,8.777,19.611,21.2v22.275c0,26.958,21.1,29.868,30.179,29.868Z" fill="#231f20" stroke="#231f20" stroke-miterlimit="10" stroke-width="2.5"/></g></g></svg>